<svg xmlns="http://www.w3.org/2000/svg" viewBox="0 0 490.001 490.001"><g fill="#a8a8a8"><path d="M480 0H10C4.477 0 0 4.477 0 10v410c0 5.523 4.477 10 10 10h260v50a10 10 0 0 0 16.507 7.593L350 433.171l63.492 54.422A9.999 9.999 0 0 0 430 480v-50h50c5.523 0 10-4.477 10-10V10c0-5.523-4.477-10-10-10zm-70 458.257L360 415.4V360h-20v55.4l-50 42.857V315.148C305.385 330.496 326.603 340 350 340s44.615-9.504 60-24.852v143.109zM350 320c-35.841 0-65-29.159-65-65s29.159-65 65-65 65 29.159 65 65-29.159 65-65 65zm120 90h-40V283.706A84.604 84.604 0 0 0 435 255c0-46.869-38.131-85-85-85s-85 38.131-85 85a84.584 84.584 0 0 0 5 28.706V410H20V20h450v390z"/><path d="M45 210h190v20H45zM155 60h180v20H155zm50 40h80v20h-80zM45 260h190v20H45zm0 50h130v20H45z"/></g></svg>