<svg xmlns="http://www.w3.org/2000/svg" viewBox="0 0 474.906 474.906"><path d="M459.233 104.229H133.747c-8.882 0-15.673 6.792-15.673 15.673v235.102c0 8.882 6.792 15.673 15.673 15.673h325.486c8.882 0 15.673-6.792 15.673-15.673V119.902c0-8.882-6.792-15.673-15.673-15.673zm-42.841 31.347l-123.82 105.012L175.02 135.576h241.372zm27.167 203.755H149.42V154.906L281.6 272.98c5.747 5.224 14.629 5.224 20.376.522L443.56 153.861v185.47zM88.816 253.127H61.649c-8.882 0-15.673-6.792-15.673-15.673s6.792-15.673 15.673-15.673h27.167c8.882 0 15.673 6.792 15.673 15.673s-6.791 15.673-15.673 15.673zm0 63.738H15.673C6.792 316.865 0 310.073 0 301.192c0-8.882 6.792-15.673 15.673-15.673h73.143c8.882 0 15.673 6.792 15.673 15.673.001 8.881-6.791 15.673-15.673 15.673zm0-127.477H15.673C6.792 189.388 0 182.596 0 173.714s6.792-15.673 15.673-15.673h73.143c8.882 0 15.673 6.792 15.673 15.673s-6.791 15.674-15.673 15.674z" fill="#fff" opacity=".4"/></svg>