<svg xmlns="http://www.w3.org/2000/svg" viewBox="0 0 512 512"><path d="M306.7 434.6c-32.6 11-67.9 11.1-100.6.2-5.2-1.8-10.9 1-12.7 6.2-1.8 5.2 1 10.9 6.2 12.7h.1c36.8 12.2 76.6 12.1 113.3-.3 5.2-1.7 8.1-7.4 6.3-12.6-1.7-5.1-7.3-7.9-12.6-6.2zm-50.9-320.4c22.7 0 41.1-18.4 41.1-41.1S278.5 32 255.8 32c-22.7 0-41 18.4-41.1 41.1.1 22.7 18.5 41.1 41.1 41.1zm0-62.2c11.6 0 21.1 9.5 21.1 21.1s-9.5 21.1-21.1 21.1c-11.6 0-21.1-9.5-21.1-21.1.1-11.7 9.5-21.1 21.1-21.1zm14.6 68h-28.8c-31.1-.1-56.5 25-56.6 56.1v8.6c0 5.5 4.1 10.2 9.6 10.2h122.8c5.5 0 9.6-4.7 9.6-10.2v-8.2c.1-31.1-25-56.4-56.1-56.6-.2.1-.3.1-.5.1zm-65.8 55c.8-19.7 17.2-35.2 36.9-35h28.8c19.7-.2 36.1 15.3 36.9 35H204.6zm-117 119.5c5.5 0 10-4.5 10-10-.1-48.1 21.7-93.6 59.3-123.6 4.3-3.4 5.1-9.7 1.6-14-3.4-4.3-9.7-5.1-14-1.6l-.1.1c-42.3 33.8-66.9 85-66.8 139.2 0 5.4 4.5 9.9 10 9.9zm259.8-139.4c42 29.7 67 78 67 129.4 0 5.5 4.5 10 10 10s10-4.5 10-10c-.1-57.9-28.2-112.2-75.5-145.7-4.5-3.2-10.8-2.1-13.9 2.5-3.1 4.5-2.1 10.6 2.4 13.8zM100.3 399.4c22.7 0 41.1-18.4 41.1-41.1 0-22.7-18.4-41.1-41.1-41.1-22.7 0-41 18.4-41.1 41.1 0 22.6 18.4 41 41.1 41.1zm0-62.2c11.6 0 21.1 9.5 21.1 21.1 0 11.6-9.5 21.1-21.1 21.1-11.6 0-21.1-9.5-21.1-21.1 0-11.7 9.5-21.1 21.1-21.1zm14.6 67.8H86c-31.4-.1-57 25.3-57 56.7v8.2c0 5.5 4.5 10 10.1 10h122.8c5.6 0 10.1-4.5 10.2-10v-8.2c-.1-31.4-25.8-56.7-57.2-56.7zm-65.8 55c.8-19.7 17.2-35.2 36.9-35h28.8c19.7-.2 36.1 15.3 36.9 35H49.1zm321.2-101.7c0 22.7 18.4 41.1 41.1 41.2 22.7 0 41.1-18.4 41.2-41.1 0-22.7-18.4-41.1-41.1-41.2h-.1c-22.7 0-41.1 18.4-41.1 41.1zm62.2 0c0 11.7-9.4 21.1-21.1 21.2s-21.1-9.4-21.2-21.1c0-11.7 9.4-21.1 21.1-21.2h.1c11.6 0 21.1 9.4 21.1 21.1zM426 405h-28.8c-31.4 0-57.1 25.3-57.1 56.7v8.2c.1 5.6 4.6 10 10.2 10h122.8c5.5 0 10-4.5 10.1-10v-8.2c-.3-31.4-25.8-56.8-57.2-56.7zm-65.8 55c.8-19.7 17.2-35.2 36.9-35H426c19.7-.2 36.1 15.3 36.9 35H360.2z" fill="#a8a8a8"/></svg>