<?xml version="1.0" standalone="no"?>
<!DOCTYPE svg PUBLIC "-//W3C//DTD SVG 20010904//EN"
 "http://www.w3.org/TR/2001/REC-SVG-20010904/DTD/svg10.dtd">
<svg version="1.0" xmlns="http://www.w3.org/2000/svg"
 width="512.000000pt" height="512.000000pt" viewBox="0 0 512.000000 512.000000"
 preserveAspectRatio="xMidYMid meet">
<metadata>
Created by potrace 1.14, written by Peter Selinger 2001-2017
</metadata>
<g transform="translate(0.000000,512.000000) scale(0.100000,-0.100000)"
fill="#000000" stroke="none">
<path d="M3985 4659 c-4 -6 -13 -8 -21 -5 -8 3 -14 1 -14 -4 0 -8 -140 -100
-153 -100 -12 0 -47 -34 -47 -46 0 -6 -10 -19 -22 -28 -13 -9 -17 -14 -10 -10
10 5 11 2 4 -12 -5 -11 -15 -32 -21 -47 -6 -15 -15 -26 -20 -23 -5 4 -12 -12
-16 -34 -4 -22 -14 -44 -23 -50 -10 -5 -14 -10 -9 -10 4 0 -5 -19 -19 -42 -18
-28 -28 -58 -28 -85 -1 -24 -5 -43 -9 -43 -5 0 -6 -3 -4 -7 3 -5 8 -57 12
-117 4 -60 9 -121 11 -135 l4 -26 -19 25 c-11 14 -28 35 -39 48 -23 26 -112
92 -125 92 -13 0 -127 53 -127 60 0 3 -8 6 -18 7 -10 1 -47 11 -83 23 -54 19
-85 22 -194 21 -183 -2 -190 -3 -290 -47 -101 -44 -129 -66 -178 -144 -26 -42
-36 -70 -41 -122 -4 -37 -12 -70 -17 -73 -5 -4 -9 -26 -9 -50 0 -24 -3 -46 -8
-49 -9 -5 -72 50 -72 64 0 5 -7 10 -16 10 -9 0 -32 17 -50 37 -19 20 -34 34
-34 29 0 -4 -21 4 -47 17 -75 39 -94 46 -153 58 -89 18 -99 18 -214 9 -111 -9
-177 -30 -206 -64 -7 -9 -18 -16 -26 -16 -7 0 -29 -14 -48 -30 l-34 -31 4 28
c10 57 12 159 5 200 -6 32 -4 46 8 59 15 17 15 17 -1 5 -16 -12 -18 -11 -18 8
0 33 0 34 -20 66 -9 17 -23 48 -30 70 -7 22 -21 49 -31 60 -10 11 -27 40 -39
65 -27 59 -53 104 -62 108 -5 2 -8 10 -8 17 0 7 -33 48 -74 91 -41 44 -90 97
-110 119 -24 27 -36 35 -36 24 0 -9 38 -57 85 -105 47 -49 88 -100 92 -113 8
-32 25 -64 43 -84 33 -36 42 -54 43 -84 0 -7 4 -13 8 -13 10 0 75 -115 92
-165 8 -22 17 -65 21 -95 4 -30 9 -73 12 -94 3 -22 6 -42 7 -45 1 -3 -7 -44
-18 -89 -15 -68 -23 -85 -41 -92 -13 -5 -30 -22 -39 -37 -15 -27 -15 -27 -9
-3 4 14 14 36 23 50 19 28 17 75 -2 63 -7 -4 -6 1 2 10 12 15 12 20 -2 35 -11
11 -13 22 -7 32 12 20 1 33 -16 19 -11 -9 -14 -9 -14 0 0 7 -4 9 -10 6 -11 -7
-12 -67 -1 -105 5 -18 -1 -41 -20 -80 -25 -51 -40 -94 -53 -161 -3 -14 -15
-36 -26 -49 -11 -13 -20 -28 -20 -33 0 -6 -3 -8 -6 -4 -3 3 2 36 11 72 9 37
14 69 11 72 -11 12 -23 -9 -35 -61 -14 -61 -36 -90 -27 -34 3 18 8 47 11 63 6
35 -3 85 -15 85 -11 0 -19 -37 -10 -47 9 -9 -9 -135 -19 -129 -3 2 -7 -18 -8
-45 -2 -33 -11 -60 -25 -80 -18 -24 -20 -32 -9 -38 9 -6 10 -11 2 -15 -6 -4
-11 -18 -11 -32 0 -34 -42 -54 -66 -30 -25 26 -30 9 -6 -23 12 -16 23 -40 26
-53 5 -32 46 -99 56 -93 4 3 3 -6 -3 -19 l-12 -25 -45 26 c-25 14 -52 34 -60
44 -18 21 -70 36 -70 20 0 -6 5 -11 11 -11 5 0 7 -4 4 -10 -3 -5 6 -12 20 -16
14 -3 25 -10 25 -15 0 -5 5 -9 11 -9 17 0 99 -71 99 -86 0 -8 5 -14 11 -14 14
0 49 -39 49 -53 0 -6 9 -21 21 -33 11 -12 21 -28 23 -35 1 -8 14 -27 29 -43
15 -16 24 -32 22 -37 -3 -4 -1 -10 5 -14 15 -9 12 -27 -2 -20 -7 4 -3 -2 9
-12 21 -17 46 -86 36 -97 -3 -3 3 -16 14 -29 15 -20 18 -35 13 -95 -3 -40 -3
-72 1 -72 16 0 41 -124 46 -230 5 -107 3 -122 -15 -152 -11 -18 -23 -50 -27
-70 -4 -21 -10 -38 -14 -38 -4 0 -8 -12 -9 -26 -1 -15 -13 -37 -27 -50 -14
-13 -25 -26 -25 -29 1 -27 -1 -35 -10 -30 -5 3 -10 1 -10 -4 0 -6 -8 -11 -18
-11 -10 0 -23 -5 -30 -12 -6 -6 -23 -12 -37 -14 l-26 -3 23 19 c13 11 19 19
15 20 -5 0 6 19 24 41 18 23 48 72 66 108 29 59 33 79 39 178 6 107 5 112 -15
123 -12 6 -18 16 -15 22 4 6 3 8 -3 5 -6 -4 -23 10 -39 31 -15 20 -37 45 -48
56 -12 10 -20 22 -19 26 1 4 -14 16 -34 25 -33 16 -41 16 -88 3 -47 -13 -53
-13 -63 1 -8 13 -12 14 -23 4 -24 -23 -40 -16 -33 15 6 22 -3 15 -44 -35 -55
-66 -82 -89 -64 -57 6 11 19 28 29 39 66 75 64 79 -12 21 -35 -26 -37 -27 -17
-5 12 14 22 30 22 37 0 6 6 15 13 19 6 4 19 17 27 27 14 18 13 18 -9 11 -15
-5 -21 -4 -17 3 3 6 2 13 -2 16 -5 3 -7 17 -4 31 6 33 -11 32 -39 -2 l-21 -28
7 25 c4 14 16 40 27 58 16 27 17 32 4 32 -8 0 -19 -6 -23 -14 -4 -8 -17 -14
-27 -13 -12 1 -28 -11 -43 -33 -36 -53 -64 -83 -71 -76 -3 4 4 13 16 22 12 8
22 23 22 34 0 10 15 31 34 48 39 34 73 82 58 82 -6 0 -29 -21 -51 -48 -26 -30
-41 -41 -41 -30 0 9 11 25 25 36 14 11 25 25 25 32 0 13 -58 -30 -60 -45 -1
-5 -18 -23 -38 -40 l-36 -30 24 33 c13 17 27 32 32 32 4 0 8 6 8 13 0 6 14 23
30 36 16 13 27 27 24 32 -3 5 0 9 5 9 6 0 11 7 11 15 0 12 -4 11 -20 -5 -11
-11 -24 -20 -29 -20 -18 0 1 38 25 50 13 8 24 20 24 28 0 11 -3 12 -14 3 -11
-10 -19 -8 -34 5 -18 15 -19 19 -6 39 16 25 8 40 -13 23 -11 -8 -12 -7 -7 6 3
9 10 16 15 16 5 0 9 10 9 21 0 17 -3 19 -14 10 -10 -9 -16 -8 -26 3 -6 9 -9
20 -5 26 4 6 -4 10 -19 10 -18 0 -24 4 -20 15 8 20 -5 19 -28 -2 -29 -26 -23
7 7 36 24 22 32 41 19 41 -3 0 -15 -10 -25 -22 l-20 -23 16 33 c8 17 19 32 24
32 5 0 9 21 8 47 l0 47 -47 -52 c-26 -29 -50 -49 -53 -46 -3 3 17 35 44 71 28
35 49 66 47 68 -6 6 -43 -29 -73 -70 -44 -59 -67 -86 -92 -108 -28 -25 -30
-41 -3 -34 25 6 25 2 2 -24 -18 -18 -19 -18 -34 -2 -9 10 -18 34 -22 53 -15
90 -19 116 -20 132 0 9 -4 14 -8 12 -4 -3 -8 7 -9 23 0 15 -2 35 -4 43 -19 80
-31 164 -28 208 2 28 0 52 -4 52 -9 0 -13 63 -14 186 0 76 2 84 36 135 19 29
35 58 35 64 0 6 9 16 20 23 11 7 20 17 20 24 0 12 -47 -36 -67 -68 -12 -19
-12 -19 -12 1 0 11 13 38 29 59 30 39 39 63 20 51 -5 -3 -7 0 -4 9 3 8 -3 19
-15 26 -12 6 -20 7 -19 3 2 -5 -10 -22 -25 -38 -37 -40 -90 -142 -75 -147 12
-4 3 -41 -15 -61 -7 -7 -25 -27 -40 -44 -16 -17 -30 -37 -31 -44 -2 -8 -6 -21
-9 -29 -21 -47 -34 -109 -24 -107 8 1 12 -25 13 -78 1 -44 6 -100 12 -124 6
-25 9 -48 6 -53 -3 -4 2 -45 11 -90 9 -46 18 -112 21 -148 5 -72 11 -132 15
-140 2 -5 5 -15 8 -31 1 -4 11 -201 13 -244 0 -5 -3 -19 -8 -29 -5 -13 -4 -17
4 -12 11 7 26 -46 21 -75 -1 -8 1 -30 4 -49 13 -69 16 -125 6 -136 -5 -7 -9
-16 -8 -20 1 -5 1 -24 0 -42 -1 -23 -5 -31 -13 -26 -10 5 -10 4 -1 -6 7 -8 8
-21 4 -34 -5 -11 -7 -28 -6 -36 1 -8 5 -48 9 -89 8 -82 36 -166 75 -225 43
-64 49 -79 54 -126 3 -25 10 -56 17 -70 15 -33 87 -86 158 -117 31 -13 65 -28
74 -34 10 -5 32 -9 48 -9 21 0 29 -4 24 -12 -4 -6 -3 -8 3 -5 5 3 22 -1 37 -9
16 -7 35 -14 43 -14 9 0 30 -9 47 -19 17 -11 54 -26 81 -34 73 -22 101 -39 97
-60 -3 -16 -1 -17 16 -6 21 13 76 4 67 -11 -3 -5 0 -7 7 -5 8 3 23 -3 34 -13
11 -10 27 -18 36 -16 9 1 24 -7 34 -17 9 -10 23 -19 29 -19 7 0 28 -10 46 -23
19 -13 40 -22 47 -19 7 2 15 -3 18 -12 3 -9 14 -16 23 -16 9 0 27 -7 39 -16
12 -8 22 -12 22 -7 0 4 4 3 8 -2 4 -6 19 -16 34 -22 20 -9 25 -17 21 -34 -5
-18 -3 -20 15 -15 22 7 86 -30 77 -44 -2 -4 2 -7 9 -7 7 0 38 -16 68 -37 44
-29 65 -36 99 -36 68 2 307 9 486 15 106 3 164 2 168 -5 4 -6 11 -8 16 -4 5 3
40 7 77 10 37 2 94 11 127 20 33 9 71 17 85 19 14 1 32 5 40 9 27 10 130 23
130 16 0 -8 -49 -25 -62 -22 -5 1 -8 -1 -8 -6 0 -4 -36 -34 -79 -67 -43 -33
-91 -78 -105 -100 -32 -48 -72 -106 -86 -122 -7 -8 -6 -14 1 -19 8 -4 7 -9 -2
-15 -11 -7 -11 -9 -1 -9 9 0 10 -6 4 -17 -9 -19 -8 -37 3 -88 4 -16 8 -36 9
-43 1 -7 8 -18 14 -24 15 -15 16 -48 2 -48 -5 0 -10 -9 -10 -19 0 -11 -4 -22
-9 -25 -4 -3 -6 -16 -4 -30 3 -13 0 -33 -6 -45 -9 -16 -9 -21 1 -21 10 0 10
-2 0 -9 -11 -6 -10 -16 4 -51 10 -24 24 -51 31 -59 8 -9 22 -26 31 -39 15 -20
22 -22 66 -16 39 6 58 16 98 53 62 58 128 102 139 95 5 -3 9 1 10 8 0 7 4 4 9
-8 13 -34 85 -65 141 -63 26 2 46 6 43 11 -3 4 -1 8 4 8 6 0 32 22 58 50 27
27 54 55 60 61 94 91 125 119 132 119 18 0 138 128 172 183 19 31 42 59 51 62
9 3 22 23 29 45 7 21 25 50 39 63 29 27 139 70 154 60 6 -3 7 -1 3 5 -4 7 -2
12 4 12 7 0 21 11 32 25 11 14 28 25 38 25 13 0 17 5 14 15 -4 8 -1 15 6 15 6
0 8 5 5 10 -3 6 -1 10 5 10 6 0 9 4 6 8 -12 19 89 186 106 176 7 -5 8 -3 3 5
-4 7 1 22 12 34 20 23 83 115 83 122 0 2 11 16 25 31 13 14 24 29 23 33 -2 20
3 31 14 25 6 -4 8 -3 5 3 -9 14 22 55 35 47 7 -4 8 -2 4 4 -3 6 2 16 12 21 11
6 25 24 32 41 7 16 16 30 20 30 6 0 18 28 20 48 0 1 9 11 20 22 12 12 18 25
15 30 -4 6 -3 10 2 10 8 0 33 49 37 73 4 26 28 57 38 51 7 -4 8 -3 4 5 -5 7
10 28 36 54 24 23 52 59 63 79 10 20 22 35 27 32 4 -3 5 2 2 10 -4 11 0 16 12
16 9 0 14 3 11 7 -4 4 5 19 20 35 15 15 23 28 19 28 -5 0 -2 10 6 23 17 26 33
78 40 134 1 10 5 10 17 1 9 -7 13 -9 9 -4 -10 12 21 68 33 61 5 -4 9 -3 8 2
-4 21 2 33 17 33 8 0 12 5 9 10 -3 6 -3 15 1 22 4 7 9 25 11 41 2 15 7 37 13
47 5 10 10 33 10 50 0 18 4 29 10 25 6 -3 10 -2 10 4 0 5 -4 12 -9 16 -11 6
-4 80 15 169 5 21 8 46 19 139 7 67 12 95 21 108 4 8 3 9 -4 5 -7 -4 -12 -3
-12 3 0 5 4 12 9 15 4 3 7 18 5 33 -1 16 5 37 14 48 12 13 12 16 2 8 -13 -10
-15 -1 -13 69 1 43 4 86 7 94 3 8 0 14 -6 14 -7 0 -6 5 2 15 7 8 9 15 4 15 -5
0 -10 43 -11 95 -2 106 -16 197 -38 249 -8 19 -17 75 -20 123 -6 105 -21 157
-42 149 -8 -3 -11 -2 -8 4 7 11 -44 107 -61 114 -16 6 -67 -41 -61 -57 2 -6
16 -12 30 -12 15 1 27 -2 27 -5 0 -10 -55 -70 -65 -70 -4 0 2 11 15 25 13 14
21 28 18 31 -4 3 -11 -4 -18 -15 -6 -12 -15 -19 -19 -16 -5 3 -12 -2 -15 -11
-3 -8 -11 -12 -18 -8 -8 5 -5 12 8 23 26 21 36 49 21 54 -8 3 -5 14 11 35 32
45 27 50 -10 8 -17 -20 -37 -36 -44 -36 -7 0 -18 -13 -26 -30 -14 -33 -29 -41
-23 -12 1 9 22 37 45 61 23 24 39 45 36 48 -2 3 7 16 22 30 26 24 26 25 1 6
-14 -10 -25 -21 -25 -24 1 -3 -21 -27 -48 -53 -56 -53 -83 -96 -61 -96 8 0 11
-7 8 -20 -3 -11 -9 -20 -14 -20 -5 0 -9 -4 -9 -10 0 -26 44 6 74 53 10 16 20
26 24 22 4 -3 2 -9 -3 -13 -6 -4 -11 -14 -13 -22 -2 -8 -10 -22 -18 -30 -35
-37 -53 -63 -48 -72 3 -5 12 -4 20 3 21 17 17 -4 -6 -29 -24 -25 -26 -36 -5
-28 29 11 15 -26 -22 -62 l-38 -36 25 -7 c14 -4 19 -7 12 -8 -7 -1 -18 -13
-25 -28 -6 -15 -33 -47 -59 -71 -49 -46 -63 -71 -29 -52 25 13 34 -9 12 -30
-9 -8 -23 -28 -31 -45 -8 -16 -19 -33 -25 -37 -6 -5 -6 -8 2 -8 6 0 21 16 33
35 12 19 26 33 31 29 10 -6 9 -8 -34 -71 -16 -24 -31 -43 -35 -43 -8 0 -42
-58 -42 -71 0 -6 5 -7 11 -3 14 8 11 0 -20 -48 -12 -21 -27 -38 -32 -38 -5 0
-14 -11 -19 -25 -5 -14 -14 -25 -19 -25 -5 0 -14 -13 -21 -30 -7 -16 -16 -30
-21 -30 -5 0 -9 -8 -9 -17 0 -16 2 -16 11 -3 8 12 9 10 7 -10 -2 -14 -9 -24
-16 -22 -6 1 -12 -6 -12 -15 -1 -15 -3 -15 -19 5 -11 12 -25 22 -32 22 -7 0
-9 3 -6 6 7 8 -36 44 -52 44 -6 0 -11 5 -11 10 0 6 -6 10 -14 10 -8 0 -20 16
-26 35 -10 29 -14 34 -26 24 -18 -15 -17 1 1 25 26 34 17 54 -9 21 -13 -16
-22 -34 -19 -39 4 -5 1 -6 -4 -3 -6 4 -18 -5 -28 -19 -14 -21 -14 -28 -3 -41
10 -13 10 -17 1 -20 -18 -6 -16 -23 2 -23 19 0 19 -14 0 -30 -20 -17 -12 -24
12 -12 15 9 19 7 19 -8 0 -10 -3 -17 -6 -15 -3 1 -13 -8 -23 -21 -13 -18 -15
-24 -4 -24 7 0 19 6 26 13 11 10 11 8 2 -11 -7 -12 -21 -28 -31 -35 -11 -6
-20 -16 -20 -20 0 -5 -7 -15 -15 -23 -8 -9 -15 -19 -15 -24 0 -5 7 -7 15 -4
22 9 18 -19 -5 -34 -12 -7 -17 -18 -13 -27 3 -10 0 -15 -8 -13 -8 2 -13 -3
-11 -9 1 -7 -5 -13 -15 -13 -9 0 -13 -3 -10 -7 10 -9 57 18 57 34 0 7 5 13 10
13 15 0 7 -23 -13 -38 -20 -15 -14 -34 8 -25 11 4 13 1 9 -11 -7 -19 -21 -21
-26 -4 -5 13 -30 -8 -58 -47 -14 -20 -14 -20 7 -2 15 14 31 17 63 13 53 -6 58
-11 35 -36 -10 -11 -14 -20 -9 -20 5 -1 -2 -7 -15 -14 -14 -8 -30 -12 -36 -10
-6 3 -20 -5 -31 -17 l-19 -21 35 7 c41 8 83 45 100 86 12 28 33 38 45 20 3 -5
0 -15 -7 -23 -7 -7 -19 -25 -27 -40 -8 -16 -23 -28 -34 -28 -16 0 -17 -3 -8
-14 10 -11 8 -16 -9 -21 -11 -4 -17 -11 -13 -18 4 -6 17 2 35 23 29 35 35 30
18 -15 -6 -16 -14 -23 -22 -19 -8 5 -9 2 -5 -9 3 -10 2 -17 -2 -17 -5 0 -11 7
-15 15 -3 8 -12 15 -21 15 -8 0 -15 9 -15 21 0 11 -5 17 -10 14 -6 -4 -8 -10
-5 -15 3 -5 -4 -14 -16 -21 -19 -10 -21 -9 -16 5 3 8 1 18 -5 22 -7 4 -8 3 -4
-4 4 -7 -3 -14 -18 -18 -14 -3 -28 -15 -32 -26 -3 -11 -11 -17 -17 -15 -8 3
-13 -9 -15 -30 -1 -19 -11 -55 -23 -79 -14 -31 -21 -72 -23 -131 -3 -53 -8
-88 -16 -93 -9 -6 -9 -9 1 -12 8 -3 15 -14 15 -26 1 -12 2 -31 3 -42 0 -11 19
-40 41 -64 22 -24 40 -48 40 -54 0 -6 8 -9 18 -7 29 4 34 -6 12 -27 -24 -22
-67 -18 -110 12 -14 9 -32 19 -41 23 -9 3 -20 22 -23 44 -4 21 -14 56 -21 79
-9 26 -14 93 -15 185 -1 79 -5 203 -9 274 -7 121 1 191 19 180 4 -2 5 7 2 22
-4 19 -2 24 8 18 9 -5 11 -4 6 4 -11 18 11 73 44 109 16 18 29 36 29 39 0 4 5
10 13 13 7 3 13 11 14 18 1 6 2 20 3 30 0 9 12 30 26 46 14 16 25 34 26 40 2
33 11 72 19 81 4 5 11 30 15 55 3 25 13 70 22 100 8 30 15 80 15 110 0 30 5
61 10 68 6 7 6 12 1 12 -5 0 -9 12 -8 28 1 33 -15 73 -26 66 -5 -3 -9 -2 -10
3 0 4 -3 24 -5 43 -2 19 -6 67 -9 105 -9 146 -34 204 -48 109 -3 -26 -45 -79
-54 -70 -4 4 -8 29 -9 56 -2 27 -5 54 -8 59 -4 5 -2 21 4 35 6 16 6 27 0 31
-6 4 -10 15 -10 26 0 10 -5 19 -11 19 -7 0 -8 7 -4 18 6 15 9 29 18 76 1 6 -9
10 -23 8 -20 -2 -22 0 -12 10 7 7 17 14 23 14 5 1 11 2 14 3 3 0 1 11 -6 22
-9 17 -8 23 2 30 8 5 9 9 3 9 -12 0 -11 58 1 132 7 39 28 59 55 51 13 -4 13
-3 1 5 -8 6 -22 9 -32 7 -12 -3 -15 2 -12 16 3 10 9 19 13 19 7 0 17 33 27 89
2 14 14 33 25 43 12 10 23 32 25 50 4 37 18 57 52 70 21 8 23 11 11 20 -12 8
-11 9 4 4 11 -4 26 0 37 10 11 10 19 14 19 11 0 -3 12 5 26 18 14 13 46 34 70
46 24 11 44 25 44 30 0 13 -37 11 -45 -2z m-345 -653 c0 -2 -7 -7 -16 -10 -8
-3 -12 -2 -9 4 6 10 25 14 25 6z m1069 -120 c-11 -23 -29 -36 -29 -20 0 8 34
53 38 49 1 -1 -3 -14 -9 -29z m-2646 -70 c17 -4 25 -11 21 -18 -5 -7 1 -9 20
-4 17 4 26 2 26 -5 0 -7 -3 -9 -7 -6 -3 4 -12 2 -20 -4 -9 -8 -17 -8 -26 0 -9
7 -24 8 -47 1 -18 -5 -37 -7 -42 -4 -5 4 -61 6 -124 6 -67 0 -112 4 -108 9 3
5 9 7 14 4 4 -3 10 2 14 10 4 11 30 15 118 17 62 2 118 2 123 1 6 -1 23 -4 38
-7z m1127 -36 c0 -5 -4 -10 -10 -10 -5 0 -10 5 -10 10 0 6 5 10 10 10 6 0 10
-4 10 -10z m1610 6 c0 -3 -4 -8 -10 -11 -5 -3 -10 -1 -10 4 0 6 5 11 10 11 6
0 10 -2 10 -4z m-3070 -36 c0 -24 -44 -38 -65 -20 -17 14 -10 31 10 24 7 -3
22 -1 32 5 24 14 23 14 23 -9z m1400 0 c0 -5 -5 -10 -11 -10 -5 0 -7 5 -4 10
3 6 8 10 11 10 2 0 4 -4 4 -10z m-1475 -20 c3 -5 -1 -10 -9 -10 -8 0 -18 5
-21 10 -3 6 1 10 9 10 8 0 18 -4 21 -10z m1275 -14 c0 -3 -4 -8 -10 -11 -5 -3
-10 -1 -10 4 0 6 5 11 10 11 6 0 10 -2 10 -4z m-1330 -26 c0 -10 -9 -24 -19
-30 -11 -5 -23 -19 -26 -30 -4 -11 -11 -17 -17 -14 -7 4 -8 2 -4 -5 4 -6 12
-9 17 -6 5 4 9 -4 9 -17 0 -15 -8 -27 -22 -33 -13 -6 -24 -20 -26 -33 -2 -13
-8 -20 -15 -16 -7 3 -5 0 3 -8 25 -22 24 -48 -3 -48 -21 0 -23 -4 -24 -51 -1
-29 -7 -55 -13 -59 -8 -5 -7 -9 4 -13 20 -8 10 -36 -18 -48 -20 -9 -20 -9 2
-5 19 4 22 0 22 -26 0 -17 -4 -27 -10 -23 -5 3 -10 1 -10 -4 0 -6 6 -11 13
-11 9 0 13 -15 12 -49 0 -34 -4 -47 -12 -44 -7 3 -13 0 -13 -6 0 -6 3 -10 8
-10 34 6 35 -22 3 -49 -14 -10 -14 -11 3 -5 16 5 18 3 13 -11 -4 -10 -7 -22
-7 -27 0 -5 -7 -9 -16 -9 -8 0 -12 -5 -9 -10 5 -8 11 -8 19 0 7 5 25 9 39 8
21 -2 25 -7 25 -34 0 -54 11 -74 40 -74 15 0 22 -4 16 -8 -16 -11 -26 -45 -15
-52 6 -3 8 -16 4 -28 -4 -19 -11 -21 -44 -18 -22 2 -39 0 -39 -6 0 -5 -5 -6
-12 -2 -6 4 -8 3 -5 -4 4 -6 25 -8 50 -5 88 10 92 9 93 -14 1 -25 -15 -30 -35
-10 -9 7 -11 7 -8 1 9 -16 -18 -25 -32 -11 -8 8 -15 7 -26 -4 -13 -13 -7 -14
47 -11 80 4 110 -3 106 -26 -2 -9 5 -22 17 -27 11 -6 21 -19 23 -30 1 -11 16
-26 33 -34 17 -7 28 -16 25 -18 -9 -9 14 -43 29 -43 19 0 19 -9 -1 -31 -15
-17 -15 -18 5 -14 31 6 51 -4 51 -25 0 -13 -12 -20 -47 -28 l-48 -10 62 3 c35
2 65 0 68 -5 3 -4 25 -6 50 -4 36 4 47 1 52 -12 4 -10 0 -20 -10 -26 -10 -5
-17 -14 -17 -20 0 -7 4 -7 13 0 14 12 60 5 52 -8 -3 -5 -1 -11 5 -15 5 -3 10
3 10 14 0 23 1 24 24 15 42 -16 -4 -53 -57 -46 -22 3 -27 7 -22 20 5 13 4 14
-6 5 -9 -9 -9 -16 -1 -26 12 -14 123 -15 229 -2 52 6 53 6 53 -19 0 -28 -17
-35 -26 -11 -6 14 -8 13 -20 -2 -7 -10 -13 -20 -14 -23 0 -3 41 -5 90 -5 69 0
93 -4 100 -15 6 -9 5 -17 -3 -22 -8 -5 -3 -8 11 -8 20 0 21 3 12 21 -10 18 -9
20 7 17 10 -2 18 -12 19 -23 3 -58 4 -59 16 -47 10 10 10 15 -2 23 -12 9 -11
9 5 4 11 -4 37 -8 58 -10 21 -1 44 -8 50 -14 9 -9 6 -11 -15 -7 -16 3 -32 -1
-39 -10 -6 -8 -10 -14 -8 -15 24 -4 61 -6 52 -2 -7 2 -13 9 -13 15 0 6 6 5 15
-2 19 -16 16 -42 -5 -46 -8 -2 -25 -5 -37 -8 -17 -3 -23 0 -24 12 0 14 -1 15
-7 2 -9 -20 -38 -19 -34 0 2 13 0 13 -10 0 -18 -20 -39 -24 -32 -5 4 8 1 15
-5 15 -6 0 -11 -4 -11 -9 0 -4 -10 -6 -22 -4 -13 2 -32 -3 -43 -11 -18 -14
-18 -15 -2 -16 17 0 25 -20 8 -20 -16 0 -30 25 -21 40 14 22 0 33 -16 13 -12
-16 -15 -16 -24 -3 -8 13 -10 12 -10 -5 -1 -17 -30 -69 -30 -53 0 4 -3 14 -6
23 -4 9 -3 15 2 14 21 -4 24 2 10 16 -12 13 -20 14 -37 4 -19 -10 -21 -9 -16
5 5 14 3 15 -13 6 -10 -6 -24 -18 -30 -28 -11 -16 -11 -16 -6 1 3 9 1 17 -4
17 -6 0 -10 -4 -10 -10 0 -5 -7 -10 -15 -10 -8 0 -15 4 -15 8 0 9 -107 9 -116
-1 -13 -12 -24 -7 -18 8 8 19 -10 19 -30 0 -19 -20 -25 -19 -22 3 2 13 13 17
45 17 43 0 72 22 48 37 -20 12 -5 16 87 20 59 4 91 9 96 19 5 7 7 16 4 18 -3
3 -9 -1 -14 -8 -10 -17 -80 -21 -80 -4 0 6 -4 15 -10 18 -6 3 -7 -1 -4 -9 7
-19 -16 -21 -35 -3 -8 7 -11 7 -8 1 4 -7 -3 -14 -16 -16 -20 -4 -22 -1 -21 39
1 29 -2 43 -11 43 -8 0 -11 -8 -8 -20 6 -23 -15 -28 -23 -5 -7 18 -28 20 -21
3 2 -7 0 -21 -5 -31 -8 -16 -7 -16 10 -6 11 7 27 9 37 5 15 -5 15 -9 4 -23 -8
-9 -13 -24 -11 -34 2 -9 -3 -21 -9 -25 -9 -5 -10 -2 -6 9 9 23 -19 22 -32 0
-7 -12 -10 -14 -11 -4 0 9 -8 12 -25 9 -13 -3 -22 -1 -19 3 8 13 -10 11 -24
-3 -9 -9 -14 -9 -22 0 -6 6 -7 10 -3 7 3 -3 17 2 30 10 13 9 23 11 23 5 0 -6
15 -8 35 -6 41 5 57 14 49 27 -4 6 -11 6 -19 -1 -17 -14 -28 3 -27 41 1 26 -1
28 -15 14 -11 -12 -12 -19 -4 -29 19 -22 -7 -31 -29 -11 -18 16 -20 16 -26 2
-5 -13 -10 -14 -25 -6 -13 6 -19 6 -19 -1 0 -5 -5 -10 -11 -10 -15 0 -7 35 9
36 55 6 57 6 40 11 -10 2 -18 11 -18 19 0 8 -5 12 -10 9 -6 -4 -7 -11 -4 -17
5 -7 -5 -8 -32 -3 -21 4 -49 7 -61 7 -12 -1 -25 3 -28 8 -4 6 -13 3 -23 -7
-15 -15 -17 -15 -20 -1 -2 12 -12 16 -36 14 -18 -2 -38 -6 -45 -10 -7 -4 -10
-2 -9 5 2 6 -4 14 -12 17 -8 2 -12 1 -8 -3 4 -4 0 -14 -8 -22 -19 -19 -8 -36
15 -23 10 5 21 7 23 4 3 -2 17 0 32 5 18 7 25 7 23 0 -1 -7 27 -11 76 -11 42
0 77 -4 77 -9 0 -5 -5 -9 -11 -9 -8 0 -8 -5 1 -15 10 -12 9 -15 -6 -15 -10 0
-28 -10 -41 -22 -17 -16 -26 -19 -34 -11 -14 14 -44 -11 -34 -27 3 -5 1 -10
-5 -10 -8 0 -10 9 -6 25 5 19 2 25 -9 25 -9 0 -13 -4 -10 -10 3 -5 2 -10 -3
-10 -14 0 -25 34 -13 38 22 7 10 19 -14 14 -19 -3 -25 0 -25 12 0 14 -4 15
-21 5 -16 -8 -23 -8 -29 1 -6 9 -10 8 -18 -5 -11 -20 -32 -12 -32 12 0 10 5
13 17 9 10 -4 14 -4 10 0 -4 4 1 13 11 21 15 11 13 12 -11 3 -38 -13 -37 -14
-33 20 2 20 -2 34 -13 40 -14 8 -13 9 4 10 17 0 17 2 5 10 -13 8 -11 11 7 16
13 4 20 10 17 15 -3 5 -10 6 -16 3 -8 -5 -9 -1 -4 11 5 15 4 16 -9 5 -9 -8
-15 -8 -15 -2 0 6 5 14 10 17 6 3 10 19 10 36 0 19 5 29 15 29 8 0 15 4 15 10
0 5 -12 7 -27 4 -21 -4 -31 0 -41 15 -11 18 -10 21 8 21 10 0 24 9 30 19 16
30 12 35 -14 18 -20 -13 -25 -14 -29 -3 -7 18 1 26 25 26 10 0 19 8 20 18 4
54 2 112 -4 112 -5 0 -8 -11 -8 -25 0 -16 -6 -25 -15 -25 -8 0 -15 5 -15 10 0
6 5 10 10 10 6 0 10 5 10 10 0 18 -18 11 -25 -10 -7 -24 -30 -26 -39 -5 -3 10
1 15 13 15 19 0 35 25 26 40 -3 4 12 11 33 15 l37 7 -35 12 c-30 11 -39 10
-63 -7 -32 -22 -51 -15 -21 8 15 11 16 14 3 15 -8 0 -20 -5 -27 -12 -9 -9 -12
-7 -12 10 0 14 7 23 18 24 9 1 24 2 32 4 8 1 22 3 30 4 8 1 2 5 -15 9 -16 4
-33 3 -36 -2 -4 -5 -15 -5 -26 2 -11 5 -23 8 -26 4 -4 -3 -14 0 -23 8 -15 12
-17 12 -12 -1 2 -8 13 -19 24 -25 20 -10 32 -45 15 -45 -5 0 -23 19 -40 42
-32 43 -41 69 -18 50 8 -7 18 -7 27 -2 8 5 18 6 24 3 5 -3 6 -1 2 6 -4 6 -11
9 -16 6 -12 -8 -19 30 -8 50 7 11 6 21 -1 28 -8 8 -11 5 -11 -11 0 -23 -14
-30 -25 -12 -9 14 32 50 50 44 8 -4 15 -2 15 4 0 15 -37 21 -49 9 -9 -9 -11
-5 -8 12 2 13 14 30 28 38 15 9 17 12 5 8 -16 -5 -17 -3 -6 10 7 8 9 15 5 15
-4 0 -2 7 5 15 9 11 9 15 1 15 -6 0 -10 13 -9 29 1 16 6 27 10 25 5 -3 6 -10
3 -15 -11 -17 2 -9 21 14 10 12 15 19 10 15 -5 -4 -15 -3 -23 4 -11 9 -11 14
2 28 17 19 27 53 26 87 0 12 4 25 10 28 6 4 14 18 19 31 6 14 18 24 30 24 11
0 20 5 20 10 0 6 -7 10 -15 10 -8 0 -15 3 -15 6 0 10 37 54 42 49 3 -3 4 5 4
18 -1 12 4 21 12 20 6 -2 12 6 12 16 0 11 11 33 25 49 14 17 25 35 25 41 0 10
6 12 28 10 4 0 9 10 12 23 4 14 15 24 28 26 13 2 22 10 22 21 0 10 3 21 7 24
12 13 23 7 23 -13z m3010 6 c0 -3 -4 -8 -10 -11 -5 -3 -10 -1 -10 4 0 6 5 11
10 11 6 0 10 -2 10 -4z m-1730 -36 c0 -5 -5 -10 -11 -10 -5 0 -7 5 -4 10 3 6
8 10 11 10 2 0 4 -4 4 -10z m1925 -40 c-3 -5 -1 -17 4 -27 15 -28 39 -111 51
-178 12 -74 11 -315 -3 -332 -5 -8 -5 -13 0 -13 5 0 8 -21 7 -47 -1 -27 -3
-48 -4 -48 -1 0 -3 -31 -4 -68 -2 -47 -7 -71 -17 -78 -10 -6 -10 -9 -1 -9 6 0
12 -7 12 -16 0 -8 -3 -13 -7 -11 -7 5 -11 -28 -12 -96 0 -16 -4 -33 -8 -40 -4
-6 -6 -29 -4 -50 1 -22 -1 -37 -6 -34 -4 3 -9 -13 -10 -35 -1 -22 -5 -48 -9
-57 -9 -18 -13 -43 -15 -86 -1 -16 -7 -36 -13 -44 -9 -12 -8 -13 3 -6 21 13 7
-47 -22 -89 -41 -61 -140 -165 -150 -159 -6 3 -7 1 -3 -5 9 -15 -22 -62 -43
-63 -11 0 -12 -2 -3 -6 19 -7 -5 -33 -32 -34 -11 0 -15 -3 -8 -6 10 -4 10 -8
0 -21 -7 -8 -12 -17 -10 -19 7 -10 0 -23 -13 -23 -9 0 -15 -9 -15 -23 0 -34
-29 -87 -47 -87 -11 0 -14 -7 -10 -27 6 -30 -1 -55 -13 -48 -5 3 -6 -3 -3 -13
2 -9 -3 -31 -11 -47 -9 -17 -16 -36 -16 -43 0 -7 -5 -10 -12 -6 -7 4 -8 3 -4
-4 9 -14 -24 -73 -36 -66 -5 3 -8 2 -7 -3 4 -20 -26 -73 -39 -68 -7 2 -11 1
-8 -4 3 -5 -1 -11 -9 -15 -8 -3 -12 -11 -10 -18 3 -7 -6 -26 -20 -42 -14 -16
-25 -32 -25 -36 0 -13 -57 -80 -64 -75 -3 3 -4 2 -1 -1 7 -11 -25 -65 -36 -59
-5 4 -8 3 -7 -2 4 -15 -23 -54 -34 -47 -7 4 -8 3 -4 -4 4 -6 -23 -52 -59 -102
-36 -49 -62 -90 -59 -90 4 0 -6 -12 -22 -28 -16 -15 -29 -34 -29 -42 0 -8 -5
-14 -10 -13 -6 1 -11 -7 -12 -17 -3 -40 -45 -64 -125 -73 -9 -1 -14 -6 -11
-11 4 -5 -1 -7 -10 -3 -9 3 -16 3 -14 -1 1 -4 -13 -22 -30 -39 -18 -18 -33
-37 -33 -43 0 -5 -4 -10 -10 -10 -5 0 -10 -6 -10 -14 0 -8 -11 -24 -25 -37
-13 -13 -25 -30 -25 -36 0 -7 -4 -13 -10 -13 -5 0 -10 -7 -10 -15 0 -14 -12
-19 -32 -16 -5 0 -8 -8 -8 -19 0 -11 -7 -23 -15 -26 -8 -3 -17 -14 -20 -23
-11 -36 -82 -95 -117 -98 -65 -6 -98 -14 -93 -22 3 -5 -2 -11 -10 -15 -8 -3
-15 0 -15 7 -1 7 -10 -5 -20 -25 -11 -20 -26 -41 -33 -45 -6 -4 -26 -26 -42
-48 -49 -66 -95 -111 -103 -100 -4 6 -18 16 -32 23 -24 12 -25 15 -24 125 0
110 6 143 53 302 12 38 21 71 21 73 0 2 5 0 12 -4 6 -4 8 -3 5 3 -8 13 27 65
38 56 4 -5 5 -3 2 3 -4 7 2 23 13 37 11 13 24 36 30 51 5 14 15 25 21 24 7 -2
22 11 34 29 12 18 25 30 28 26 4 -3 16 11 28 31 11 20 25 33 30 30 5 -3 9 -1
9 4 0 9 26 19 67 28 7 1 22 -11 34 -27 11 -16 27 -29 35 -29 19 0 18 9 -3 32
-16 18 -27 48 -16 48 13 0 43 -22 39 -29 -3 -4 6 -7 20 -7 16 0 24 6 24 18 0
10 -7 18 -15 18 -8 0 -15 5 -15 10 0 6 -7 10 -15 10 -8 0 -15 5 -15 10 0 6 -9
10 -20 10 -54 0 -41 69 33 169 27 35 46 70 43 78 -3 7 -1 13 5 13 5 0 14 12
20 28 11 29 89 139 129 181 13 14 24 30 22 34 -1 4 7 17 18 29 11 12 20 25 20
28 0 4 7 7 15 7 13 0 20 -23 16 -50 -1 -4 20 -7 46 -6 27 1 53 0 58 -1 28 -7
26 3 -5 21 l-35 20 33 -4 c20 -2 32 1 32 9 0 10 -11 15 -62 29 -5 2 -19 3 -32
4 -16 1 -27 9 -32 24 -4 12 -12 25 -18 29 -7 5 -5 8 6 8 9 0 20 -5 23 -10 4
-7 14 -5 28 5 13 9 43 15 74 15 29 0 53 4 53 9 0 5 9 11 19 14 11 3 22 17 26
36 4 17 11 31 17 31 6 0 8 3 5 6 -3 4 -1 16 5 28 6 11 13 32 14 44 2 13 9 29
17 35 7 7 29 32 48 57 18 25 39 50 45 55 16 14 25 55 11 52 -7 -1 -17 -9 -24
-17 -10 -13 -12 -12 -8 6 5 30 27 64 42 64 15 0 83 66 83 80 0 16 -18 12 -28
-6 -5 -9 -15 -15 -21 -13 -7 3 2 20 23 42 19 21 33 44 30 52 -7 17 8 25 51 27
21 1 35 6 35 14 0 17 -30 22 -58 10 -28 -12 -44 7 -35 42 3 12 0 28 -6 36 -9
11 -8 15 6 21 16 6 17 8 2 18 -24 18 -25 22 -10 41 12 15 13 19 1 26 -11 7
-11 12 -2 23 7 8 11 25 9 38 -2 13 4 38 14 56 10 18 16 33 14 33 -3 0 1 14 10
30 9 17 13 30 10 30 -3 0 3 17 14 39 l20 38 56 -4 c59 -5 74 9 30 29 -13 6
-22 14 -20 18 3 4 -1 13 -9 19 -19 16 -2 74 37 123 23 31 33 37 53 32 19 -5
26 -1 34 20 5 14 14 26 19 26 5 0 29 29 52 65 26 40 45 61 49 54 11 -17 46 5
64 42 15 29 15 33 -2 45 -12 10 -13 13 -3 14 8 0 19 -6 25 -13 6 -7 10 -10 9
-8 -1 2 7 15 17 29 21 26 27 58 10 47 -5 -3 -10 -1 -10 4 0 6 5 11 10 11 6 0
10 6 10 14 0 7 10 26 21 41 20 25 37 95 24 95 -3 0 -17 -12 -31 -27 l-25 -28
25 40 c30 46 36 75 11 55 -13 -11 -12 -6 2 21 10 19 22 37 28 41 12 9 27 -1
20 -12z m-1558 -6 c-3 -3 -12 -4 -19 -1 -8 3 -5 6 6 6 11 1 17 -2 13 -5z
m-2977 -17 c0 -7 -16 -28 -35 -47 -42 -41 -48 -20 -7 28 29 34 42 40 42 19z
m2750 3 c0 -5 -5 -10 -11 -10 -5 0 -7 5 -4 10 3 6 8 10 11 10 2 0 4 -4 4 -10z
m1675 -10 c-10 -11 -22 -20 -27 -20 -5 0 -4 9 2 20 6 11 18 20 27 20 14 0 14
-2 -2 -20z m-115 -31 c-7 -11 -14 -18 -17 -15 -3 3 0 12 7 21 18 21 23 19 10
-6z m-4300 -11 c0 -9 4 -8 10 2 8 13 10 13 10 -1 0 -10 -11 -19 -27 -22 -33
-6 -35 -5 -27 17 7 19 34 22 34 4z m1131 -11 c-10 -9 -11 -8 -5 6 3 10 9 15
12 12 3 -3 0 -11 -7 -18z m873 -5 c3 -5 -1 -9 -9 -9 -8 0 -12 4 -9 9 3 4 7 8
9 8 2 0 6 -4 9 -8z m2439 -9 c-7 -20 -23 -33 -38 -33 -5 1 -1 7 9 15 11 8 16
15 10 15 -5 0 -2 5 6 10 20 13 20 13 13 -7z m-2213 -3 c0 -5 -2 -10 -4 -10 -3
0 -8 5 -11 10 -3 6 -1 10 4 10 6 0 11 -4 11 -10z m-2220 -9 c0 -5 -7 -11 -15
-15 -15 -5 -20 5 -8 17 9 10 23 9 23 -2z m2470 -21 c0 -5 -4 -10 -10 -10 -5 0
-10 5 -10 10 0 6 5 10 10 10 6 0 10 -4 10 -10z m50 0 c0 -5 -4 -10 -10 -10 -5
0 -10 5 -10 10 0 6 5 10 10 10 6 0 10 -4 10 -10z m1910 -24 c0 -7 -70 -81 -70
-74 0 4 14 23 31 43 29 33 39 41 39 31z m-4481 -23 c-30 -38 -39 -45 -39 -31
0 18 12 34 30 41 23 8 23 8 9 -10z m51 0 c-1 -5 -12 -21 -25 -38 -28 -34 -34
-17 -7 20 17 24 32 32 32 18z m3005 -43 c3 -5 1 -10 -4 -10 -6 0 -11 5 -11 10
0 6 2 10 4 10 3 0 8 -4 11 -10z m-175 -10 c0 -5 -5 -10 -11 -10 -5 0 -7 5 -4
10 3 6 8 10 11 10 2 0 4 -4 4 -10z m-405 -10 c-3 -5 -12 -10 -18 -10 -7 0 -6
4 3 10 19 12 23 12 15 0z m-2493 -26 c-3 -17 -8 -22 -15 -15 -7 7 -6 15 3 26
17 20 18 19 12 -11z m4237 -6 c-12 -21 -13 -21 -17 -4 -2 10 2 22 9 27 20 12
22 4 8 -23z m-4204 -8 c-10 -11 -20 -18 -23 -15 -3 3 3 14 13 25 10 11 20 18
23 15 3 -3 -3 -14 -13 -25z m1655 20 c0 -5 -5 -10 -11 -10 -5 0 -7 5 -4 10 3
6 8 10 11 10 2 0 4 -4 4 -10z m670 -14 c0 -3 -4 -8 -10 -11 -5 -3 -10 -1 -10
4 0 6 5 11 10 11 6 0 10 -2 10 -4z m560 -28 c0 -6 -6 -5 -15 2 -8 7 -15 14
-15 16 0 2 7 1 15 -2 8 -4 15 -11 15 -16z m-1860 -2 c0 -3 -4 -8 -10 -11 -5
-3 -10 -1 -10 4 0 6 5 11 10 11 6 0 10 -2 10 -4z m1275 -6 c-3 -5 -12 -10 -18
-10 -7 0 -6 4 3 10 19 12 23 12 15 0z m-2307 -28 c16 12 16 11 1 -12 -20 -31
-33 -29 -37 7 -2 24 -1 26 9 10 9 -15 13 -16 27 -5z m3103 -36 c-10 -25 -31
-36 -31 -16 0 6 5 10 11 10 5 0 7 5 4 11 -4 6 -13 8 -21 5 -8 -3 -14 0 -14 5
0 6 9 9 20 6 11 -3 23 -1 26 5 11 18 15 1 5 -26z m-1201 14 c0 -5 -2 -10 -4
-10 -3 0 -8 5 -11 10 -3 6 -1 10 4 10 6 0 11 -4 11 -10z m311 -9 c-8 -5 -11
-16 -7 -26 3 -10 2 -15 -5 -13 -6 2 -10 7 -10 11 1 4 1 14 1 22 0 8 8 15 18
15 14 0 14 -2 3 -9z m-2211 -45 c0 -3 -4 -8 -10 -11 -5 -3 -10 -1 -10 4 0 6 5
11 10 11 6 0 10 -2 10 -4z m978 -21 c-6 -14 -13 -23 -15 -21 -5 5 15 46 22 46
3 0 -1 -11 -7 -25z m1933 -53 c-7 -2 -18 1 -23 6 -8 8 -4 9 13 5 13 -4 18 -8
10 -11z m-71 -22 c0 -5 -7 -10 -16 -10 -8 0 -12 5 -9 10 3 6 10 10 16 10 5 0
9 -4 9 -10z m-2715 -60 c8 -13 55 -297 60 -360 5 -63 19 -104 50 -145 19 -24
23 -35 14 -36 -8 0 -3 -5 10 -10 13 -5 21 -15 18 -23 -3 -7 0 -13 6 -12 7 0
13 -2 15 -6 1 -4 14 -19 27 -32 16 -17 23 -31 18 -43 -3 -10 -3 -15 2 -11 4 4
16 3 27 -3 14 -8 19 -18 15 -35 -3 -19 -2 -22 9 -13 17 14 30 5 42 -31 8 -22
8 -30 -1 -30 -7 0 -5 -5 4 -10 21 -12 92 -127 87 -142 -2 -6 6 -22 18 -35 13
-14 26 -38 29 -54 4 -16 11 -29 16 -29 5 0 19 -21 30 -47 47 -105 58 -130 80
-183 12 -30 28 -60 35 -66 8 -6 10 -15 6 -19 -4 -5 -2 -5 5 -2 6 4 18 0 27 -8
8 -8 28 -17 44 -19 16 -2 34 -6 41 -10 6 -4 11 -4 11 1 0 4 23 8 50 8 52 0 58
-3 38 -23 -6 -6 -9 -15 -5 -18 4 -4 12 6 19 23 9 20 19 29 31 27 10 -1 30 9
46 22 16 13 32 24 35 24 4 0 16 9 28 20 12 10 24 17 28 15 4 -2 6 6 5 18 -4
33 13 70 27 61 10 -6 11 -4 1 7 -16 16 -17 33 -1 23 7 -4 8 -3 4 5 -4 6 -2 19
6 28 11 14 11 16 -2 8 -13 -8 -13 -7 0 9 14 18 17 37 20 124 1 23 5 40 9 38 4
-3 7 4 8 14 1 11 -2 22 -8 25 -5 4 -9 11 -9 16 0 6 4 8 9 5 5 -4 7 3 4 15 -5
19 -3 20 31 15 44 -7 88 -34 79 -49 -3 -6 -1 -7 6 -3 15 10 81 -32 81 -51 0
-9 3 -13 6 -10 11 11 46 -14 40 -29 -3 -7 3 -18 14 -24 11 -6 20 -19 20 -29 0
-10 8 -29 19 -42 28 -37 30 -51 8 -94 -19 -38 -31 -125 -17 -125 12 0 30 24
30 42 0 10 5 18 10 18 6 0 10 16 10 36 0 20 4 33 10 29 6 -3 7 1 4 9 -5 13 2
16 32 16 22 -1 59 -5 84 -11 25 -5 54 -11 65 -13 11 -2 31 -8 45 -13 14 -4 50
-8 80 -8 31 0 61 -5 68 -12 7 -7 22 -13 33 -13 11 0 22 -7 25 -15 4 -11 21
-15 56 -15 50 0 93 -15 84 -29 -3 -4 12 -15 33 -24 33 -15 38 -21 39 -54 2
-44 22 -72 22 -30 0 17 5 27 15 27 17 0 22 -65 6 -74 -10 -7 -7 -65 3 -69 10
-3 46 77 38 83 -12 9 -13 30 -1 30 5 0 8 3 5 8 -2 4 48 7 112 6 64 -1 122 2
129 7 13 12 53 -9 53 -27 0 -6 6 -11 13 -12 42 -6 57 -10 101 -32 27 -13 55
-23 62 -23 34 0 158 -189 152 -232 -3 -19 -11 -20 -127 -22 -98 -2 -132 -6
-160 -20 -39 -20 -111 -87 -111 -103 0 -5 -15 -10 -32 -10 -18 0 -53 -1 -77
-3 -28 -1 -46 3 -48 11 -3 6 1 12 9 12 8 0 14 15 16 42 3 42 3 42 -16 23 -11
-11 -20 -22 -20 -25 0 -22 -3 -30 -12 -25 -5 3 -7 0 -4 -8 3 -8 0 -18 -5 -22
-6 -3 -9 -11 -6 -16 4 -5 2 -9 -3 -9 -15 0 -10 69 5 74 18 7 16 51 -3 66 -8 8
-14 9 -12 4 2 -5 -7 -20 -19 -34 -25 -26 -28 -45 -13 -84 9 -24 7 -25 -33 -31
-23 -3 -61 -7 -84 -8 -24 -1 -43 -5 -43 -9 0 -10 -73 -7 -86 4 -14 11 -42 17
-109 23 -27 3 -75 8 -105 11 -30 3 -63 5 -72 5 -10 0 -18 5 -18 10 0 6 -4 8
-9 5 -4 -3 -34 -12 -65 -20 -45 -12 -62 -13 -84 -3 -29 13 -36 27 -33 71 2 29
1 29 -19 11 -19 -18 -20 -18 -20 0 0 17 -3 16 -25 -5 -30 -28 -31 -22 -5 25
23 41 17 46 -12 9 -11 -14 -23 -23 -26 -20 -2 3 0 11 6 19 8 9 8 17 0 27 -8
13 -9 12 -5 -1 4 -11 -3 -20 -19 -28 -13 -6 -24 -15 -24 -21 0 -5 -5 -10 -11
-10 -5 0 -7 5 -3 12 4 6 8 34 10 61 l2 49 -35 -33 c-24 -23 -31 -27 -22 -11 8
12 16 22 20 22 3 0 6 6 6 14 0 8 -6 12 -14 9 -7 -3 -13 -9 -13 -15 0 -5 -9 -7
-19 -3 -14 4 -23 0 -30 -13 -6 -11 -20 -22 -32 -25 -16 -4 -19 -3 -10 6 6 6
11 18 11 26 0 12 -3 11 -18 -2 -20 -18 -37 -23 -27 -8 3 5 1 12 -5 16 -5 3
-10 1 -10 -4 0 -6 -7 -11 -15 -11 -8 0 -15 4 -15 10 0 5 -6 7 -14 4 -10 -4
-12 2 -9 23 l4 28 -17 -22 c-9 -13 -21 -23 -26 -23 -7 0 -6 5 1 13 14 18 2 30
-15 16 -10 -8 -15 -8 -19 3 -4 9 -25 14 -71 14 -69 1 -89 13 -78 47 7 23 -22
23 -35 0 -9 -16 -10 -16 -11 -2 0 11 -8 15 -25 14 -25 -3 -29 3 -26 38 3 21
-17 23 -25 2 -5 -11 -10 -13 -19 -5 -6 5 -15 7 -18 4 -3 -3 -11 -3 -17 1 -8 5
-8 11 2 23 10 14 10 15 -2 5 -17 -15 -44 -17 -35 -3 3 6 -1 7 -9 4 -10 -4 -16
-1 -16 7 0 9 -14 15 -39 16 -46 3 -133 31 -143 46 -3 6 -14 12 -23 13 -27 4
-120 38 -126 47 -3 4 -16 9 -27 10 -28 2 -28 14 3 59 14 20 25 40 25 44 0 4
10 15 22 25 11 11 18 19 13 19 -4 0 0 11 9 25 9 13 16 34 16 45 0 17 -3 19
-19 10 -25 -13 -36 2 -21 31 7 11 9 23 5 27 -9 9 -53 -43 -61 -72 -10 -40 -32
-53 -49 -30 -12 16 -14 16 -15 3 0 -9 -9 -24 -20 -34 -28 -26 -25 -39 5 -19
23 15 25 15 19 0 -3 -9 -1 -16 5 -16 15 0 14 -37 -1 -43 -10 -3 -10 -7 0 -19
10 -13 10 -17 -5 -22 -11 -5 -23 1 -35 16 -10 13 -18 19 -18 14 0 -5 -7 -3
-15 4 -8 7 -15 9 -15 5 0 -4 -17 15 -38 42 -43 54 -62 99 -58 137 2 14 0 23
-4 21 -12 -8 -19 49 -8 63 8 8 7 12 -3 12 -12 0 -12 2 0 9 7 5 11 13 7 19 -9
14 3 39 21 46 13 5 14 4 4 -8 -9 -11 -9 -15 1 -18 13 -5 48 32 48 51 0 6 -8 7
-17 4 -16 -6 -16 -5 0 17 22 31 21 37 -4 43 -18 5 -19 8 -7 27 11 17 11 22 -2
30 -9 6 -11 13 -5 18 20 14 17 35 -4 29 -18 -4 -19 -2 -10 14 5 10 13 19 17
19 4 0 8 9 9 20 1 11 -3 20 -9 20 -7 0 -7 4 -1 13 14 17 23 97 11 97 -5 0 -19
-5 -31 -11 -19 -9 -20 -9 -5 4 17 14 36 67 23 67 -4 0 -15 -10 -26 -22 -18
-22 -18 -22 -19 -2 0 11 6 26 13 33 9 11 9 13 0 7 -9 -5 -13 0 -13 13 0 12 4
21 8 21 4 0 16 15 27 33 18 32 18 32 -2 15 -31 -28 -34 -21 -8 24 16 28 20 45
13 49 -6 4 -2 10 11 14 33 10 24 32 -11 26 -8 -1 -12 24 -9 43 1 5 -4 4 -11
-2 -11 -9 -14 -6 -13 13 0 13 3 27 8 31 11 12 8 44 -5 44 -6 0 -3 10 8 21 13
15 15 23 7 26 -9 3 -9 10 -1 29 9 19 9 27 0 32 -7 5 -8 13 -2 22 14 22 12 43
-4 37 -12 -5 -12 -2 -3 16 27 50 39 58 52 37z m2625 6 c0 -3 -4 -8 -10 -11 -5
-3 -10 -1 -10 4 0 6 5 11 10 11 6 0 10 -2 10 -4z m-2703 -39 c-15 -33 -31 -36
-21 -4 6 20 25 40 31 33 2 -1 -3 -14 -10 -29z m3103 13 c0 -5 -5 -10 -11 -10
-5 0 -7 5 -4 10 3 6 8 10 11 10 2 0 4 -4 4 -10z m-750 -64 c0 -3 -4 -8 -10
-11 -5 -3 -10 -1 -10 4 0 6 5 11 10 11 6 0 10 -2 10 -4z m400 -16 c0 -5 -5
-10 -11 -10 -5 0 -7 5 -4 10 3 6 8 10 11 10 2 0 4 -4 4 -10z m-2515 -20 c-10
-11 -21 -17 -24 -14 -3 3 3 12 13 20 28 20 32 17 11 -6z m-245 -37 c-10 -20
-16 -41 -13 -47 3 -6 2 -7 -2 -3 -17 15 -14 42 7 64 30 32 31 29 8 -14z m959
1 c3 -16 1 -17 -13 -5 -19 16 -21 34 -3 29 6 -3 14 -13 16 -24z m2437 1 c-9
-13 -16 -32 -16 -42 0 -14 -2 -15 -9 -4 -6 9 -11 10 -15 2 -4 -6 -4 -16 0 -22
4 -8 0 -8 -15 0 -30 16 -26 39 7 43 21 2 27 8 25 26 -2 16 2 22 18 22 20 0 21
-1 5 -25z m-3156 -20 c-7 -9 -15 -13 -19 -10 -3 3 1 10 9 15 21 14 24 12 10
-5z m2926 -10 c-3 -9 -11 -13 -16 -10 -8 5 -7 11 1 21 14 18 24 11 15 -11z
m754 -6 c-7 -11 -14 -18 -17 -15 -3 3 0 12 7 21 18 21 23 19 10 -6z m-130 7
c0 -11 -19 -15 -25 -6 -3 5 1 10 9 10 9 0 16 -2 16 -4z m27 -21 c-4 -8 -11
-15 -17 -15 -6 0 -6 7 2 20 14 22 24 19 15 -5z m-3640 -21 c13 6 14 4 3 -9
-11 -13 -15 -13 -21 -3 -5 7 -8 20 -8 28 1 10 3 9 6 -3 3 -12 10 -16 20 -13z
m3173 -18 c0 -3 -4 -8 -10 -11 -5 -3 -10 -1 -10 4 0 6 5 11 10 11 6 0 10 -2
10 -4z m-2301 -66 c15 -22 15 -23 -6 -12 -11 6 -23 19 -27 28 -9 23 14 12 33
-16z m36 0 c-6 -9 -9 -9 -16 1 -10 17 0 34 13 21 6 -6 7 -16 3 -22z m2649 -4
c-3 -8 -12 -17 -20 -20 -18 -7 -18 -1 2 18 19 20 25 20 18 2z m-414 -5 c0 -5
-6 -11 -14 -14 -9 -4 -12 -14 -9 -26 4 -15 1 -21 -11 -21 -9 0 -16 5 -16 10 0
6 5 10 10 10 6 0 9 3 9 8 -4 24 3 42 16 42 8 0 15 -4 15 -9z m442 -13 c-7 -7
-12 -8 -12 -2 0 6 3 14 7 17 3 4 9 5 12 2 2 -3 -1 -11 -7 -17z m-107 -28 c-3
-5 -14 -10 -23 -9 -14 0 -13 2 3 9 27 11 27 11 20 0z m-3355 -25 c-7 -8 -17
-15 -22 -15 -6 0 -5 7 2 15 7 8 17 15 22 15 6 0 5 -7 -2 -15z m839 -37 c-12
-23 -45 -23 -58 0 -7 13 -5 20 12 28 29 16 60 -2 46 -28z m2526 12 c-9 -16
-23 -30 -31 -30 -14 0 -14 3 -4 15 10 12 10 15 -1 15 -8 0 -3 7 11 14 38 21
42 19 25 -14z m-395 -4 c0 -2 -7 -6 -15 -10 -8 -3 -15 -1 -15 4 0 6 7 10 15
10 8 0 15 -2 15 -4z m-2877 -34 c-34 -53 -48 -68 -67 -75 -18 -7 -18 -6 -1 20
23 37 67 83 78 83 5 0 1 -13 -10 -28z m3295 14 c-2 0 -14 -10 -27 -21 l-24
-20 18 27 c9 15 21 25 27 22 5 -3 8 -7 6 -8z m54 -19 c-12 -13 -22 -29 -22
-37 0 -7 -3 -10 -6 -7 -11 11 18 67 34 67 12 0 11 -5 -6 -23z m-3302 5 c0 -10
-132 -144 -137 -138 -3 2 15 24 39 48 23 24 53 56 65 71 23 27 33 33 33 19z
m-116 -16 c-3 -8 -13 -17 -22 -21 -13 -5 -13 -2 3 15 21 24 26 25 19 6z m2936
-11 c0 -8 -6 -15 -14 -15 -7 0 -20 -8 -27 -17 -12 -15 -12 -16 3 -10 28 10 30
-10 3 -31 -14 -11 -21 -23 -16 -27 17 -10 2 -32 -30 -45 -39 -17 -33 -20 19
-10 44 8 64 -3 43 -23 -9 -9 -10 -7 -5 8 7 19 7 19 -13 3 -11 -10 -24 -18 -30
-18 -6 0 -13 -4 -15 -9 -1 -4 -12 -11 -23 -15 -17 -5 -20 -1 -19 27 3 69 3 69
24 62 11 -4 20 -2 20 4 0 6 8 7 18 4 14 -6 15 -4 5 8 -11 14 -18 49 -15 80 1
8 14 20 30 26 38 15 42 15 42 -2z m473 -52 c6 -10 -60 -90 -67 -82 -7 7 43 89
54 89 5 0 11 -3 13 -7z m41 -8 c-4 -8 -10 -15 -15 -15 -5 0 -9 -6 -9 -14 0 -7
-7 -19 -15 -26 -18 -15 -20 1 -3 18 7 7 8 12 3 12 -4 0 2 9 15 20 28 24 31 25
24 5z m46 8 c0 -2 -13 -22 -30 -45 -34 -46 -38 -42 -13 12 10 20 24 37 30 37
7 0 13 -2 13 -4z m-2686 -63 c-6 -6 -10 -2 -11 12 -2 16 1 18 10 9 7 -7 8 -14
1 -21z m2103 8 c-3 -8 -6 -5 -6 6 -1 11 2 17 5 13 3 -3 4 -12 1 -19z m-2744
-35 c-4 -10 -18 -29 -32 -43 -14 -14 -31 -34 -38 -45 -10 -19 -11 -19 -18 -2
-6 13 4 29 38 62 49 49 60 55 50 28z m-103 -13 c-8 -5 -19 -10 -25 -10 -5 0
-3 5 5 10 8 5 20 10 25 10 6 0 3 -5 -5 -10z m140 0 c0 -5 -8 -10 -17 -10 -15
0 -16 2 -3 10 19 12 20 12 20 0z m42 -8 c-15 -2 -28 -16 -39 -40 -18 -41 -68
-88 -77 -73 -10 15 112 134 127 124 8 -5 5 -9 -11 -11z m3124 1 c-2 -10 -11
-20 -20 -21 -15 -3 -16 -1 -4 17 16 26 27 27 24 4z m36 -5 c-6 -6 -15 -8 -19
-4 -4 4 -1 11 7 16 19 12 27 3 12 -12z m48 -2 c0 -3 -4 -8 -10 -11 -5 -3 -10
-1 -10 4 0 6 5 11 10 11 6 0 10 -2 10 -4z m-3226 -65 l-27 -26 15 25 c8 14 18
32 23 40 7 11 10 11 13 1 2 -7 -8 -25 -24 -40z m-73 21 c-12 -23 -41 -48 -41
-35 0 10 37 53 46 53 2 0 0 -8 -5 -18z m3248 5 c17 11 19 10 14 -3 -7 -19 -45
-15 -50 6 -4 13 -3 13 6 0 8 -12 14 -13 30 -3z m-469 -7 c0 -5 -5 -10 -11 -10
-5 0 -8 -4 -4 -9 3 -5 1 -12 -5 -16 -5 -3 -10 1 -10 9 0 20 -16 21 -28 1 -13
-24 -60 -29 -64 -8 -3 14 7 21 42 29 59 15 80 16 80 4z m-3210 -4 c0 -2 -7 -9
-15 -16 -13 -11 -14 -10 -9 4 5 14 24 23 24 12z m3554 -25 c12 -10 33 -21 49
-25 25 -6 39 -36 16 -36 -5 0 -8 -4 -5 -9 6 -10 -10 -25 -36 -34 -13 -4 -26 6
-49 38 -18 25 -36 45 -41 45 -17 0 -7 -24 27 -61 19 -22 35 -44 35 -49 0 -6 6
-10 14 -10 10 0 13 -11 12 -37 -2 -41 -16 -71 -43 -99 -17 -17 -17 -17 -1 -11
26 9 30 -7 7 -31 -18 -20 -17 -26 4 -23 15 2 7 -28 -10 -38 -10 -5 -14 -13
-10 -18 5 -4 13 0 18 9 5 9 22 26 38 37 l29 21 -5 -21 c-3 -11 -16 -25 -29
-31 -13 -6 -21 -14 -19 -18 3 -4 -4 -15 -15 -25 -27 -24 -25 -38 3 -30 19 5
20 5 4 -5 -9 -6 -15 -15 -12 -20 9 -14 -24 -20 -53 -8 -74 30 -90 39 -97 55
-6 15 -16 113 -19 176 0 9 -4 17 -9 17 -5 0 -6 14 -2 33 4 17 9 48 12 67 2 19
10 40 17 45 8 6 17 25 20 43 4 17 12 32 17 32 6 0 7 5 3 11 -19 31 98 40 130
10z m-2874 -9 c0 -4 -10 -13 -22 -21 -23 -14 -23 -14 -4 8 20 22 26 25 26 13z
m230 -106 c8 -12 25 -29 37 -39 13 -10 23 -25 23 -33 0 -8 5 -12 10 -9 7 4 8
-24 5 -82 -4 -64 -13 -106 -32 -152 -26 -63 -67 -118 -84 -113 -5 1 -9 -2 -9
-8 0 -6 -3 -9 -7 -8 -13 2 -47 -15 -61 -31 -11 -14 -11 -13 -2 7 10 21 7 26
-13 23 -10 -2 -1 16 22 43 15 18 15 18 -9 11 -24 -7 -24 -7 -8 12 10 10 17 32
16 49 -1 16 2 38 7 48 7 16 5 18 -14 13 -19 -5 -21 -3 -9 11 7 9 -2 4 -19 -11
-20 -19 -33 -25 -38 -17 -5 8 -11 8 -21 -1 -29 -23 -24 -1 6 31 17 18 36 43
42 54 10 19 10 20 -5 7 -15 -12 -17 -11 -17 7 0 23 22 42 28 24 2 -8 9 -9 21
-2 31 16 33 -2 4 -34 l-28 -29 33 22 c35 25 38 31 20 49 -10 10 -10 17 0 32 7
11 8 20 4 20 -5 0 -15 -11 -22 -25 -18 -33 -29 -32 -22 3 l5 27 -26 -31 c-15
-18 -27 -35 -27 -39 0 -11 -67 -75 -78 -75 -6 0 -14 5 -18 12 -4 6 -3 8 3 5
14 -9 53 26 53 46 0 8 6 18 13 20 7 3 5 6 -5 6 -10 1 -18 -6 -18 -14 0 -8 -9
-19 -19 -25 -26 -13 -31 -13 -25 4 3 9 -1 13 -13 13 -15 -2 -18 6 -19 40 -1
44 16 89 32 86 5 -1 11 9 12 23 1 13 -3 24 -8 24 -6 0 -5 9 2 23 13 21 35 41
41 35 1 -2 15 9 31 23 15 15 36 25 45 22 9 -2 27 0 41 5 22 8 30 4 65 -36 22
-25 47 -55 55 -66z m-299 87 c-5 -10 -29 -38 -52 -63 -25 -26 -36 -34 -26 -18
9 14 28 38 42 54 14 15 25 31 25 35 0 5 5 9 10 9 7 0 7 -6 1 -17z m-136 -5
c-11 -6 -24 -17 -28 -25 -4 -7 -13 -13 -19 -13 -6 0 -1 11 12 25 13 14 31 25
39 25 12 -1 11 -3 -4 -12z m2673 -27 c-6 -2 -14 1 -16 8 -3 9 -7 8 -16 -2 -6
-8 -26 -19 -44 -25 -29 -10 -32 -9 -30 6 2 10 22 23 48 32 41 14 46 14 58 1
10 -12 10 -17 0 -20z m47 33 c12 -5 14 -9 4 -14 -15 -10 -41 -1 -33 11 6 11 8
11 29 3z m-70 -44 c-3 -5 3 -10 14 -10 14 0 19 -6 18 -20 -2 -26 -12 -25 -31
2 -14 19 -13 38 0 38 3 0 2 -4 -1 -10z m75 -16 c0 -7 -6 -11 -13 -8 -8 3 -14
11 -14 18 0 8 6 12 14 9 7 -3 13 -11 13 -19z m-95 -5 c8 -11 -25 -40 -37 -33
-5 3 -8 0 -8 -5 0 -6 4 -11 8 -11 4 0 9 -11 10 -25 1 -19 -2 -23 -15 -18 -11
4 -14 3 -9 -5 4 -7 13 -12 21 -12 8 0 13 -9 12 -20 -2 -29 -37 -26 -38 3 0 12
-2 44 -3 70 -3 41 0 50 18 57 29 12 34 12 41 -1z m705 1 c0 -5 -5 -10 -11 -10
-5 0 -7 5 -4 10 3 6 8 10 11 10 2 0 4 -4 4 -10z m-610 -48 c0 -6 6 -13 13 -16
6 -3 -1 -4 -17 0 -18 3 -32 0 -38 -8 -6 -11 -10 -10 -17 1 -7 11 -11 9 -21 -9
-11 -21 -10 -22 9 -17 11 3 24 1 27 -4 3 -6 12 -5 22 3 15 12 16 11 2 -6 -19
-25 -22 -49 -5 -42 8 3 17 1 20 -3 5 -9 -30 -26 -77 -37 -22 -5 -28 -3 -28 10
0 17 12 24 47 31 10 2 20 4 22 4 2 1 -2 8 -9 16 -15 18 -31 20 -24 2 2 -7 -3
-13 -14 -13 -18 0 -23 21 -9 43 4 6 3 14 -3 18 -16 10 -11 28 6 21 9 -4 22 -2
29 4 7 6 19 9 26 8 9 -2 13 4 11 16 -3 17 -2 18 12 3 9 -8 16 -20 16 -25z
m585 18 c-3 -5 -12 -10 -18 -10 -7 0 -6 4 3 10 19 12 23 12 15 0z m-2615 -21
c0 -6 -4 -7 -10 -4 -5 3 -10 11 -10 16 0 6 5 7 10 4 6 -3 10 -11 10 -16z
m-710 -4 c-7 -8 -17 -15 -23 -15 -6 0 -2 7 9 15 25 19 30 19 14 0z m770 11 c0
-11 -19 -15 -25 -6 -3 5 1 10 9 10 9 0 16 -2 16 -4z m210 -8 c0 -9 4 -8 11 2
9 13 10 13 6 0 -2 -8 -14 -14 -28 -14 -13 1 -27 -4 -31 -10 -5 -8 -11 -7 -19
1 -10 10 -7 14 12 22 34 14 49 13 49 -1z m-960 -38 c-6 -11 -16 -18 -21 -14
-6 3 -3 12 8 20 24 18 26 17 13 -6z m100 2 c0 -4 -9 -13 -20 -20 -24 -15 -26
-9 -4 12 17 18 24 20 24 8z m690 -13 c0 -5 -7 -9 -15 -9 -8 0 -15 7 -15 15 0
9 6 12 15 9 8 -4 15 -10 15 -15z m80 -11 c0 -7 -4 -7 -13 1 -8 6 -16 9 -19 6
-2 -3 -5 2 -5 9 0 11 5 13 19 5 10 -5 18 -15 18 -21z m90 13 c0 -12 -59 -11
-66 1 -5 7 -2 9 8 6 8 -4 21 -2 28 2 15 9 30 4 30 -9z m49 -5 c1 10 17 11 54
5 5 0 6 -5 3 -10 -3 -4 -26 -8 -51 -8 -29 0 -42 3 -33 8 10 7 10 9 -2 9 -13 0
-13 1 0 10 11 7 17 5 22 -8 4 -9 7 -12 7 -6z m-972 -8 c-7 -10 -19 -18 -27
-18 -13 0 -13 1 0 10 8 5 11 10 7 10 -15 0 2 17 17 17 11 0 12 -4 3 -19z
m1753 -4 c-13 -34 -13 -39 5 -24 8 7 15 18 15 25 0 7 15 12 35 13 30 1 34 -2
32 -21 -1 -13 4 -22 13 -22 8 0 16 -9 17 -20 2 -11 0 -14 -3 -7 -5 11 -10 10
-24 -3 -15 -13 -19 -14 -29 -1 -8 9 -8 16 -2 20 12 8 3 36 -11 36 -5 0 -6 -4
-3 -10 3 -5 1 -10 -4 -10 -16 0 -13 -16 5 -34 14 -14 14 -16 0 -16 -8 0 -19 8
-25 17 -7 14 -12 15 -24 5 -15 -13 -69 -13 -61 -1 2 4 0 10 -5 13 -5 4 -12 2
-15 -3 -4 -5 -18 -8 -32 -5 -15 3 -23 1 -20 -5 3 -5 0 -12 -6 -15 -7 -3 -2 -4
12 -3 16 1 26 -4 28 -14 2 -11 -4 -15 -20 -15 -19 1 -23 -4 -24 -31 0 -18 -3
-35 -6 -39 -14 -14 5 -34 26 -28 21 6 21 6 1 -9 -11 -8 -22 -12 -25 -8 -3 4
-21 8 -42 8 -29 1 -37 -3 -42 -20 -6 -25 -15 -19 -21 14 -4 21 0 24 30 26 19
2 35 -1 35 -7 0 -21 26 2 28 25 2 29 -1 31 -23 8 -13 -13 -18 -14 -25 -3 -4 7
-12 10 -18 6 -6 -3 -13 0 -15 6 -4 9 -6 8 -6 -2 -1 -20 -47 -20 -47 0 0 12 14
16 59 17 66 3 73 5 80 33 4 17 2 18 -15 9 -14 -8 -24 -7 -36 3 -9 7 -13 8 -9
2 4 -7 0 -14 -8 -18 -8 -3 -15 -2 -15 2 0 4 -18 8 -39 9 -30 1 -41 -2 -44 -15
-4 -16 -5 -15 -12 1 -10 25 -4 29 52 32 73 3 73 3 72 28 0 21 -1 21 -9 2 -5
-11 -9 -15 -9 -10 -1 6 -6 3 -12 -5 -9 -13 -10 -12 -5 2 3 10 1 20 -5 23 -5 4
-7 11 -3 16 3 5 9 7 13 5 8 -5 35 -6 121 -7 25 0 56 -1 70 -2 21 -2 25 2 23
23 -1 19 4 26 17 27 16 1 18 -2 10 -23z m1330 22 c0 -3 -4 -8 -10 -11 -5 -3
-10 -1 -10 4 0 6 5 11 10 11 6 0 10 -2 10 -4z m-3068 -61 c1 -11 8 -24 13 -28
6 -5 2 -6 -8 -3 -10 3 -23 6 -28 6 -13 0 -11 24 3 38 14 14 15 13 20 -13z
m1336 3 c-6 -18 -28 -21 -28 -4 0 9 7 16 16 16 9 0 14 -5 12 -12z m666 -14 c2
-11 7 -31 11 -47 6 -23 4 -27 -11 -24 -11 2 -29 8 -41 15 -15 9 -24 9 -28 1
-4 -6 -18 -8 -32 -4 -16 4 -22 2 -18 -5 3 -6 -3 -10 -14 -10 -12 0 -21 5 -21
10 0 6 -4 10 -10 10 -5 0 -9 -4 -7 -9 1 -5 -1 -9 -5 -10 -20 -3 -29 0 -25 7 6
9 -56 10 -63 0 -3 -3 -15 4 -27 16 l-22 23 44 -7 c24 -4 56 -5 72 -3 50 6 86
4 97 -7 5 -5 14 -10 20 -10 5 0 7 3 3 6 -3 4 1 13 9 21 8 9 13 21 10 29 -3 8
5 14 22 16 33 4 32 5 36 -18z m-1094 12 c0 -2 -7 -6 -15 -10 -8 -3 -15 -1 -15
4 0 6 7 10 15 10 8 0 15 -2 15 -4z m294 -12 c3 -8 -1 -14 -8 -14 -8 0 -16 5
-18 11 -3 8 -10 6 -20 -5 -22 -21 -39 -21 -31 1 7 17 6 17 -20 0 -32 -21 -38
-21 -31 -2 6 15 -16 21 -29 8 -10 -9 -56 -13 -61 -4 -3 4 -19 6 -35 5 -17 -1
-29 1 -27 4 2 4 65 8 139 8 107 1 137 -2 141 -12z m41 5 c12 -19 -5 -23 -22
-6 -16 16 -16 17 -1 17 9 0 20 -5 23 -11z m40 2 c3 -5 1 -12 -4 -15 -5 -3 -11
1 -15 9 -6 16 9 21 19 6z m642 -16 c0 -17 -27 -12 -38 7 -7 12 -4 14 15 11 12
-3 23 -11 23 -18z m1851 3 c-13 -22 -14 -29 -17 -56 0 -7 -5 -11 -10 -8 -5 3
-8 -2 -7 -12 0 -9 -5 -16 -11 -14 -7 1 -12 -1 -11 -5 3 -16 -15 -43 -28 -43
-8 0 -13 -6 -11 -12 1 -7 -9 -14 -23 -16 -14 -1 -20 1 -14 5 6 4 13 16 17 26
4 9 12 16 18 15 6 -2 14 3 17 11 3 9 0 11 -8 6 -7 -4 -4 4 5 19 9 14 20 24 24
22 4 -3 19 15 35 40 29 45 47 62 24 22z m-1231 -4 c3 -9 0 -20 -8 -24 -24 -16
-2 -22 38 -11 21 6 44 11 51 11 19 0 14 -28 -8 -40 -16 -9 -20 -8 -21 7 0 16
-1 16 -9 -2 -4 -11 -6 -30 -3 -41 2 -12 0 -25 -6 -28 -6 -4 -11 -2 -11 5 0 19
-13 1 -17 -22 -3 -17 1 -19 19 -14 11 4 40 8 63 10 23 1 47 5 53 9 20 12 13
-8 -8 -27 -16 -13 -25 -15 -40 -7 -13 7 -20 7 -20 1 0 -12 -77 -34 -90 -26 -6
3 -7 -1 -4 -9 3 -9 11 -13 17 -9 11 7 57 13 57 8 0 -22 -17 -35 -45 -35 -39 0
-42 7 -39 84 2 57 15 82 39 69 5 -4 7 -3 3 2 -4 4 -3 14 3 22 9 10 8 13 -5 13
-9 0 -15 -5 -13 -11 1 -6 -4 -14 -10 -16 -9 -3 -13 10 -13 46 0 49 14 68 27
35z m-1158 -13 c2 -1 -2 -8 -9 -16 -6 -8 -9 -20 -5 -27 4 -7 0 -5 -8 5 -14 17
-77 24 -77 8 0 -4 -11 -6 -25 -3 -14 2 -33 -2 -42 -9 -12 -10 -14 -10 -9 -1 4
6 3 12 -3 12 -5 0 -13 -5 -16 -10 -4 -6 -11 -8 -16 -4 -5 3 -7 10 -4 15 4 5 2
9 -4 9 -5 0 -12 -6 -14 -12 -3 -8 -6 -6 -6 5 -1 13 6 17 27 16 29 -2 165 11
170 16 3 3 13 1 41 -4z m-385 -16 c3 -8 1 -15 -4 -15 -6 0 -10 7 -10 15 0 8 2
15 4 15 2 0 6 -7 10 -15z m680 -1 c9 -24 7 -27 -9 -10 -17 17 -19 26 -6 26 5
0 12 -7 15 -16z m364 -5 c17 -27 5 -40 -14 -15 -8 11 -14 23 -14 28 0 15 15 8
28 -13z m-998 1 c0 -5 -4 -10 -9 -10 -6 0 -13 5 -16 10 -3 6 1 10 9 10 9 0 16
-4 16 -10z m50 -4 c0 -9 -7 -12 -20 -9 -11 3 -17 9 -14 14 8 14 34 10 34 -5z
m34 -2 c9 -24 7 -27 -9 -10 -17 17 -19 26 -6 26 5 0 12 -7 15 -16z m2066 12
c0 -3 -4 -8 -10 -11 -5 -3 -10 -1 -10 4 0 6 5 11 10 11 6 0 10 -2 10 -4z
m-1102 -24 c-3 -10 0 -20 6 -21 20 -3 71 -9 84 -10 18 -1 15 -19 -7 -30 -17
-9 -18 -8 -14 12 l6 22 -22 -23 c-21 -21 -48 -22 -36 -1 4 5 1 9 -4 9 -6 0
-11 -4 -11 -9 0 -5 -7 -12 -16 -15 -12 -4 -15 -2 -10 9 4 10 -1 15 -16 15 -12
0 -18 -3 -15 -7 4 -3 0 -14 -9 -24 -14 -16 -11 -16 52 -11 61 4 67 3 61 -12
-5 -12 -3 -16 5 -13 7 2 12 10 10 17 -2 9 11 11 52 7 30 -3 58 -1 64 5 6 6 8
0 5 -16 -6 -29 -13 -32 -31 -14 -9 9 -12 9 -12 0 0 -7 -7 -12 -15 -12 -8 0
-15 -4 -15 -10 0 -5 9 -10 20 -10 11 0 20 5 20 11 0 9 4 9 14 0 8 -7 30 -9 57
-5 39 5 45 4 45 -13 0 -11 -8 -20 -19 -20 -12 -1 -17 3 -13 13 3 8 1 14 -3 14
-5 0 -11 -7 -15 -15 -3 -9 -12 -12 -21 -9 -9 4 -22 -1 -31 -12 -13 -15 -15
-16 -11 -2 8 24 -4 30 -25 11 -17 -15 -18 -15 -18 3 0 12 -3 15 -8 8 -4 -6
-17 -14 -29 -18 -18 -6 -22 -4 -17 8 3 9 2 16 -4 16 -5 0 -12 -7 -16 -15 -3
-8 -10 -15 -17 -15 -6 0 -8 7 -5 17 6 15 4 15 -14 -2 -25 -22 -26 -35 -2 -33
38 3 51 -2 45 -17 -5 -14 -8 -14 -25 2 -18 16 -19 16 -25 -5 -7 -27 -23 -29
-23 -4 0 10 -7 19 -15 19 -8 0 -15 -5 -15 -11 0 -6 -5 -5 -12 2 -15 15 -58 16
-58 1 0 -5 5 -7 10 -4 14 9 13 1 -7 -40 -9 -19 -23 -35 -30 -35 -8 0 -12 4 -8
9 3 5 1 12 -5 16 -6 4 -8 11 -4 16 4 6 11 6 19 -1 22 -18 28 7 7 28 -13 13
-16 25 -11 38 4 10 8 13 8 7 1 -8 15 -13 37 -13 31 0 35 3 29 20 -4 11 -2 20
4 20 6 0 8 7 5 15 -4 9 -1 15 7 15 10 0 9 5 -4 17 -14 14 -22 15 -52 6 -23 -7
-37 -8 -41 -1 -3 5 -15 8 -25 5 -11 -3 -19 0 -19 6 0 8 21 12 61 12 60 -1 94
15 68 31 -7 4 -15 2 -17 -4 -2 -7 -8 -12 -13 -12 -6 0 -7 5 -4 10 3 6 -3 10
-15 10 -12 0 -18 -4 -15 -10 3 -5 4 -10 1 -10 -2 0 -11 -3 -19 -6 -11 -4 -14
0 -12 13 2 10 4 20 4 23 1 3 27 5 59 4 64 -1 96 11 88 32 -3 8 1 14 10 14 11
0 15 -6 12 -18z m-2030 -92 c3 -39 9 -60 17 -60 12 0 31 -67 22 -76 -7 -7 -33
37 -48 81 -7 22 -18 47 -25 55 -21 27 -23 59 -6 69 26 15 35 -2 40 -69z m88
32 c-19 -20 -39 -32 -43 -28 -4 4 3 16 16 27 13 10 19 19 15 19 -5 0 0 7 10
15 36 27 38 2 2 -33z m1186 15 c-18 -17 -24 -19 -31 -8 -7 10 -13 11 -31 1
-15 -8 -20 -8 -16 -1 8 13 4 14 -18 5 -9 -3 -16 -14 -16 -24 0 -17 7 -18 58
-14 141 11 184 12 174 2 -5 -5 -27 -11 -47 -12 -23 -2 -44 -11 -52 -22 -14
-19 -14 -19 -11 0 2 10 -3 21 -9 23 -7 3 -13 -2 -13 -10 0 -8 -7 -18 -16 -21
-12 -5 -14 -1 -8 16 6 19 5 21 -8 11 -8 -7 -24 -10 -36 -6 -12 3 -30 -1 -39
-8 -12 -10 -14 -10 -9 -1 8 14 -6 16 -19 3 -6 -6 -17 -4 -29 5 -11 8 -16 15
-10 15 5 1 14 2 19 4 6 1 15 3 21 3 7 1 15 13 18 27 6 25 16 28 81 26 17 -1
37 3 45 8 24 16 25 2 2 -22z m-192 16 c-1 -18 -19 -35 -30 -28 -19 12 -100 9
-113 -4 -16 -16 -30 -14 -23 4 7 20 -3 19 -26 -2 -17 -15 -18 -15 -18 5 0 19
5 20 58 18 45 -3 135 5 150 13 1 0 2 -2 2 -6z m49 -16 c-15 -14 -39 -12 -39 3
0 8 40 19 49 13 2 -1 -3 -8 -10 -16z m217 11 c3 -5 1 -15 -5 -21 -8 -8 -11 -6
-11 7 0 14 -3 16 -13 7 -10 -8 -14 -7 -14 2 0 16 34 20 43 5z m217 5 c-7 -2
-19 -2 -25 0 -7 3 -2 5 12 5 14 0 19 -2 13 -5z m110 -7 c15 1 27 -4 27 -9 0
-7 4 -7 12 1 7 7 19 12 28 11 10 0 7 -4 -7 -11 -13 -6 -23 -15 -23 -19 0 -4
-11 -6 -25 -3 -15 3 -25 0 -25 -8 0 -6 -6 -3 -14 7 -12 16 -16 17 -30 6 -9 -8
-16 -9 -16 -3 0 6 -3 18 -6 27 -6 13 -2 15 22 8 16 -4 41 -7 57 -7z m117 3 c0
-8 4 -8 14 0 11 9 15 7 19 -8 3 -14 0 -17 -14 -14 -14 4 -19 0 -19 -14 0 -19
-18 -40 -47 -57 -9 -5 -11 -2 -7 9 5 13 2 15 -20 9 -21 -5 -26 -3 -26 12 0 14
3 15 12 6 8 -8 15 -9 25 -1 9 8 13 8 13 0 0 -21 20 -11 35 19 14 28 13 35 -8
31 -5 -1 -6 3 -2 9 8 13 25 13 25 -1z m809 -20 c-15 -9 -32 -2 -24 11 3 5 13
6 21 3 12 -4 13 -8 3 -14z m-1659 -45 c0 -9 -5 -14 -12 -12 -18 6 -21 28 -4
28 9 0 16 -7 16 -16z m125 -14 c-6 -9 -9 -9 -16 1 -10 17 0 34 13 21 6 -6 7
-16 3 -22z m549 21 c3 -5 15 -7 25 -4 10 3 22 0 25 -6 4 -6 -4 -9 -21 -8 -16
2 -34 -4 -41 -13 -12 -13 -13 -13 -7 4 3 11 0 23 -7 28 -10 6 -9 8 4 8 9 0 19
-4 22 -9z m1386 -1 c0 -5 -7 -10 -16 -10 -8 0 -12 5 -9 10 3 6 10 10 16 10 5
0 9 -4 9 -10z m-2018 -22 c-2 -10 -8 -18 -13 -18 -4 0 -7 8 -6 18 0 10 6 19
13 19 6 0 9 -9 6 -19z m48 12 c0 -5 -4 -10 -9 -10 -6 0 -13 5 -16 10 -3 6 1
10 9 10 9 0 16 -4 16 -10z m354 -15 c-4 -8 -8 -15 -10 -15 -2 0 -4 7 -4 15 0
8 4 15 10 15 5 0 7 -7 4 -15z m540 0 c-7 -16 -24 -21 -24 -6 0 8 7 13 27 20 1
1 0 -6 -3 -14z m-713 -30 c5 4 6 -2 2 -11 -4 -11 -8 -13 -11 -6 -2 7 -11 12
-20 12 -15 0 -15 2 -2 10 10 6 16 6 18 0 2 -6 8 -8 13 -5z m267 -6 c-7 -5 -20
-9 -30 -9 -9 0 -19 -6 -21 -12 -3 -7 -6 -4 -6 7 -1 14 -4 16 -13 7 -8 -8 -17
-8 -31 0 -11 5 -37 7 -58 4 -21 -3 -40 -2 -43 3 -3 5 36 8 89 7 52 0 95 2 95
6 0 4 7 5 16 1 13 -5 13 -7 2 -14z m457 2 c-3 -6 -14 -11 -23 -11 -15 1 -15 2
2 15 21 16 32 13 21 -4z m661 -3 c10 -12 13 -18 5 -13 -10 5 -12 4 -7 -3 10
-16 -7 -15 -23 1 -11 10 -13 9 -8 -5 4 -12 1 -16 -13 -15 -12 1 -16 5 -11 10
5 5 7 15 4 22 -3 10 2 12 18 8 15 -4 20 -3 15 5 -12 19 -1 14 20 -10z m-1436
4 c0 -4 -14 -8 -30 -9 -17 -1 -30 1 -30 5 0 4 14 8 30 9 17 1 30 -1 30 -5z
m399 -3 c-7 -4 -21 -6 -32 -3 -33 6 -29 11 8 11 20 0 30 -4 24 -8z m60 2 c10
-7 7 -9 -12 -8 -15 1 -27 5 -27 10 0 10 22 9 39 -2z m117 -6 c-2 -5 -10 -8
-17 -6 -8 3 -30 4 -49 4 -30 -1 -32 0 -10 6 35 10 81 8 76 -4z m-1620 -30 c-1
-19 -4 -35 -8 -35 -5 0 -11 0 -15 0 -15 1 7 70 21 70 2 0 2 -16 2 -35z m974
26 c0 -4 -11 -6 -25 -3 -14 2 -25 6 -25 8 0 2 11 4 25 4 14 0 25 -4 25 -9z
m1556 -2 c8 -14 -6 -28 -34 -34 -22 -4 -22 -3 -5 20 20 27 29 30 39 14z m-254
-21 c-18 -18 -14 -38 8 -38 11 0 20 -4 20 -10 0 -5 -7 -7 -15 -4 -8 4 -15 2
-16 -2 0 -5 -2 -19 -3 -32 -2 -15 2 -21 13 -20 9 2 19 7 22 11 3 5 9 1 12 -8
5 -11 3 -14 -5 -9 -8 5 -9 2 -5 -9 3 -10 2 -17 -3 -17 -6 0 -10 5 -10 12 0 6
-9 3 -21 -8 -11 -10 -16 -20 -10 -22 19 -6 12 -32 -16 -68 -29 -35 -48 -43
-56 -21 -3 7 -6 4 -6 -6 -1 -10 -5 -16 -9 -13 -4 2 -14 0 -22 -6 -11 -7 -6 -8
19 -4 18 3 42 6 53 6 10 0 16 4 13 10 -3 5 10 26 29 46 33 34 35 38 18 50 -15
12 -14 13 15 14 23 0 33 6 38 20 5 16 10 18 26 10 24 -13 25 -2 2 16 -17 13
-17 14 0 8 10 -4 17 -1 17 6 0 6 4 9 9 6 23 -14 -4 -59 -30 -51 -10 4 -19 2
-19 -3 0 -15 42 -22 57 -10 8 6 13 7 13 0 0 -5 -7 -15 -15 -22 -8 -7 -12 -16
-9 -21 3 -5 -2 -6 -11 -2 -13 5 -14 7 -3 14 7 5 11 9 8 10 -47 7 -57 5 -69
-13 -12 -19 -11 -20 8 -15 28 7 26 -1 -6 -35 -21 -22 -23 -28 -10 -28 9 0 17
6 17 13 0 22 35 48 54 41 9 -3 23 -1 31 6 9 8 20 8 31 2 16 -9 15 -11 -4 -21
-12 -7 -22 -9 -22 -5 0 3 -6 1 -14 -5 -10 -8 -15 -9 -18 -1 -4 13 -38 3 -38
-11 0 -5 9 -9 19 -9 11 0 23 -5 26 -11 4 -6 1 -10 -6 -8 -29 3 -40 -1 -33 -13
5 -9 2 -8 -10 1 -14 12 -19 12 -29 1 -10 -10 -8 -12 6 -6 13 4 17 2 14 -6 -2
-7 -11 -12 -21 -10 -9 2 -16 -2 -16 -8 0 -14 -13 -13 -36 5 -19 14 -18 14 2 9
14 -4 23 0 27 10 5 13 3 15 -11 7 -17 -9 -24 -11 -43 -11 -5 0 -7 -4 -4 -10 3
-5 1 -10 -4 -10 -6 0 -11 -6 -11 -12 -1 -14 -45 -68 -56 -68 -3 0 -4 7 0 15 7
20 -1 19 -26 -5 -23 -21 -22 -22 30 -22 26 -1 32 -4 27 -17 -15 -38 -2 -46 43
-27 29 12 28 24 -3 36 -20 7 -25 16 -22 35 1 13 7 28 11 32 5 4 6 -6 3 -24 -6
-28 -4 -31 16 -29 12 1 32 8 45 15 27 15 28 11 2 -19 -24 -27 -26 -42 -5 -34
8 4 13 10 10 14 -3 4 2 13 10 20 21 17 19 -2 -3 -31 -10 -13 -22 -32 -25 -43
-5 -11 -13 -16 -23 -12 -11 4 -15 2 -11 -7 3 -8 2 -19 -2 -25 -12 -19 -73 52
-73 84 0 25 -2 26 -13 11 -15 -21 -36 -22 -29 -2 4 8 1 15 -5 15 -6 0 -9 13
-7 29 2 23 0 28 -15 24 -10 -3 -16 -9 -13 -14 3 -5 0 -9 -5 -9 -6 0 -11 5 -11
10 0 6 0 13 0 18 0 4 6 7 13 7 6 0 17 3 22 6 6 3 29 5 52 4 23 -1 40 2 37 7
-3 5 -15 6 -26 2 -18 -5 -20 -3 -15 17 5 22 5 22 -7 7 -7 -10 -18 -18 -24 -18
-5 0 -9 8 -7 18 2 9 4 20 4 24 1 4 10 10 21 13 11 3 20 11 20 18 0 8 -3 8 -12
-1 -9 -9 -15 -9 -27 1 -12 9 -13 9 -7 -1 4 -7 -1 -24 -13 -41 -11 -15 -18 -31
-14 -35 3 -3 1 -6 -5 -6 -7 0 -12 8 -12 18 -1 16 -1 16 -14 -1 -16 -21 -45
-13 -41 11 1 9 -3 24 -9 32 -10 13 -9 13 7 1 15 -12 17 -11 17 3 0 20 -18 21
-40 1 -15 -14 -17 -13 -15 7 2 21 7 23 56 24 107 1 126 4 107 15 -10 5 -18 17
-18 26 0 14 -4 13 -20 -5 -21 -23 -36 -30 -25 -12 8 13 -1 13 -25 0 -13 -7
-19 -6 -23 4 -4 10 -16 13 -39 9 -18 -3 -29 -1 -25 3 4 5 27 9 50 10 23 1 70
5 104 9 54 7 60 10 51 24 -6 11 -22 16 -44 16 -38 -2 -59 14 -22 16 13 1 26 1
31 0 14 -2 7 20 -9 26 -10 4 -26 -5 -45 -24 -15 -17 -27 -32 -26 -34 1 -3 -2
1 -8 6 -5 6 -26 11 -46 10 -36 -1 -42 6 -26 33 5 6 4 12 -2 12 -5 0 -13 -4
-16 -10 -10 -16 -28 -12 -21 5 3 8 1 15 -4 15 -6 0 -10 -5 -10 -12 0 -9 -3 -9
-11 -1 -6 6 -19 9 -28 6 -10 -3 -8 0 4 8 11 7 34 12 50 11 25 -2 32 3 41 27 9
22 18 29 40 29 l28 0 -27 -22 c-25 -20 -39 -44 -17 -31 5 3 18 1 28 -4 22 -12
42 3 42 31 0 16 -2 16 -21 -3 -11 -11 -23 -18 -26 -15 -11 10 27 44 50 45 12
0 61 2 110 4 48 2 90 7 94 11 3 3 9 6 12 6 3 0 0 -5 -7 -12z m-1057 -18 c3 -5
1 -10 -4 -10 -6 0 -11 5 -11 10 0 6 2 10 4 10 3 0 8 -4 11 -10z m1325 0 c0 -5
-4 -10 -10 -10 -5 0 -10 5 -10 10 0 6 5 10 10 10 6 0 10 -4 10 -10z m-1270 -9
c0 -5 -9 -7 -20 -4 -11 3 -20 7 -20 9 0 2 9 4 20 4 11 0 20 -4 20 -9z m140 5
c-7 -6 -98 -11 -105 -5 -3 3 21 7 52 8 32 1 55 0 53 -3z m80 -8 c-19 -5 -37
-14 -40 -19 -3 -4 -11 1 -18 11 -12 19 -9 20 40 19 53 -1 53 -1 18 -11z m90 8
c0 -2 -11 -6 -25 -8 -13 -3 -22 -1 -19 3 5 9 44 13 44 5z m825 -6 c8 -13 -5
-13 -25 0 -13 8 -13 10 2 10 9 0 20 -4 23 -10z m38 -13 c12 -19 13 -24 2 -24
-8 0 -12 4 -9 8 2 4 0 10 -6 14 -9 6 -14 25 -6 25 2 0 11 -10 19 -23z m43 -18
c-9 -13 -16 -33 -17 -44 0 -11 -3 -14 -6 -7 -3 8 -9 10 -16 3 -8 -6 -16 -4
-24 4 -15 16 0 30 22 21 8 -3 19 3 25 14 14 26 13 30 -7 31 -15 0 -15 2 2 9
29 11 40 -5 21 -31z m-126 6 c0 -17 -5 -25 -17 -24 -11 0 -13 3 -5 6 6 2 12
11 12 19 0 9 -4 12 -10 9 -5 -3 -10 -1 -10 4 0 6 7 11 15 11 9 0 15 -9 15 -25z
m-430 5 c0 -5 -4 -10 -10 -10 -5 0 -10 5 -10 10 0 6 5 10 10 10 6 0 10 -4 10
-10z m-536 -15 c3 -8 1 -15 -4 -15 -6 0 -10 7 -10 15 0 8 2 15 4 15 2 0 6 -7
10 -15z m1006 5 c0 -5 -2 -10 -4 -10 -3 0 -8 5 -11 10 -3 6 -1 10 4 10 6 0 11
-4 11 -10z m-2446 -21 c14 -12 22 -28 19 -35 -3 -9 2 -14 16 -15 12 -1 26 -3
31 -4 6 -1 16 -3 23 -4 8 -1 7 -4 -3 -11 -9 -6 -18 -6 -24 0 -6 6 -18 10 -27
10 -23 0 -56 30 -64 58 -8 27 -2 28 29 1z m1469 6 c-3 -9 -8 -14 -10 -11 -3 3
-2 9 2 15 9 16 15 13 8 -4z m61 -1 c3 -8 2 -12 -4 -9 -5 3 -18 -4 -29 -16
l-20 -22 2 22 c1 11 7 21 14 21 7 0 13 5 13 10 0 16 17 12 24 -6z m116 1 c-7
-8 -17 -15 -23 -15 -6 0 -2 7 9 15 25 19 30 19 14 0z m120 -4 c0 -3 -5 -13
-11 -21 -9 -13 -10 -13 -6 2 3 9 -1 19 -9 22 -13 5 -19 -6 -15 -28 1 -5 -5 -3
-15 4 -14 13 -16 12 -12 -5 3 -17 10 -19 43 -17 22 2 37 1 34 -3 -10 -10 -109
-15 -109 -5 0 5 4 10 9 12 5 2 11 12 13 23 1 11 12 23 23 26 22 6 55 0 55 -10z
m-362 -11 c7 -11 11 -20 9 -20 -2 0 -12 9 -22 20 -10 11 -14 20 -9 20 5 0 15
-9 22 -20z m490 3 c-4 -22 -50 -24 -55 -3 -4 11 -2 12 5 2 10 -14 45 -5 36 9
-3 5 0 9 6 9 6 0 10 -8 8 -17z m767 8 c3 -5 2 -12 -3 -15 -5 -3 -9 1 -9 9 0
17 3 19 12 6z m-48 -23 c-3 -8 -6 -5 -6 6 -1 11 2 17 5 13 3 -3 4 -12 1 -19z
m-967 -8 c8 -5 11 -10 5 -10 -5 0 -17 5 -25 10 -8 5 -10 10 -5 10 6 0 17 -5
25 -10z m196 -12 c4 -6 3 -8 -4 -4 -6 3 -13 2 -17 -4 -8 -13 -35 -13 -35 0 0
5 6 7 14 4 8 -3 17 -1 21 5 8 14 12 14 21 -1z m134 -3 c0 -9 -41 -11 -47 -3
-3 7 -1 8 5 4 7 -4 12 -3 12 3 0 6 7 8 15 5 8 -4 15 -7 15 -9z m-422 -8 c-1
-2 4 -12 12 -23 14 -18 14 -18 -2 -5 -10 7 -18 20 -18 29 0 8 3 13 6 10 3 -4
4 -8 2 -11z m-61 -12 c0 -8 -4 -12 -9 -9 -4 3 -8 9 -8 15 0 5 4 9 8 9 5 0 9
-7 9 -15z m118 5 c-3 -5 -11 -10 -16 -10 -6 0 -7 5 -4 10 3 6 11 10 16 10 6 0
7 -4 4 -10z m882 -13 c-6 -19 -23 -18 -24 2 -1 14 3 18 13 14 8 -3 13 -10 11
-16z m-560 -33 c-3 -3 -12 -4 -19 -1 -8 3 -5 6 6 6 11 1 17 -2 13 -5z m43 -4
c-11 -7 -11 -10 -2 -10 7 0 10 -4 7 -10 -4 -6 -11 -5 -19 3 -17 15 -11 27 12
27 15 0 15 -2 2 -10z m680 -28 c0 -4 -10 -18 -21 -32 -11 -14 -18 -20 -15 -14
3 7 -1 14 -9 18 -22 8 -18 21 8 33 22 10 37 8 37 -5z m-3205 -12 c-14 -16 -15
-20 -4 -20 8 0 20 5 27 12 9 9 12 9 12 -1 0 -8 7 -11 20 -8 11 3 20 1 20 -4 0
-5 -7 -9 -15 -9 -8 0 -15 -2 -15 -4 0 -2 -3 -11 -6 -20 -4 -10 -1 -16 9 -16 8
0 18 6 20 13 3 6 6 2 6 -9 1 -24 -27 -36 -52 -23 -9 5 -23 23 -31 40 -12 24
-13 34 -3 50 6 10 16 19 21 19 5 0 1 -9 -9 -20z m3319 12 c3 -5 -1 -9 -9 -9
-8 0 -15 4 -15 9 0 4 4 8 9 8 6 0 12 -4 15 -8z m-784 -45 c0 -5 -4 -5 -10 -2
-5 3 -10 14 -10 23 0 15 2 15 10 2 5 -8 10 -19 10 -23z m-2410 14 c0 -5 -7
-12 -16 -15 -14 -5 -15 -4 -4 9 14 17 20 19 20 6z m1 -60 c-13 -23 -40 -45
-47 -39 -3 3 3 14 13 24 10 9 19 21 19 26 3 18 4 19 14 13 6 -4 7 -13 1 -24z
m49 6 c0 -11 -48 -66 -53 -61 -7 7 33 63 46 63 4 1 7 0 7 -2z m2784 -27 c-6
-6 -19 -7 -30 -3 -17 6 -17 8 6 13 29 8 38 4 24 -10z m-117 -12 c-1 -15 3 -22
11 -20 8 1 11 -2 6 -9 -5 -9 -13 -5 -26 11 -15 18 -16 25 -6 31 18 12 18 12
15 -13z m58 -7 c-3 -6 -11 -11 -16 -11 -5 0 -4 6 3 14 14 16 24 13 13 -3z
m-2708 -29 c-8 -7 -21 -10 -30 -6 -24 9 -11 24 18 22 21 -2 23 -5 12 -16z
m118 8 c-3 -5 -13 -10 -21 -10 -8 0 -12 5 -9 10 3 6 13 10 21 10 8 0 12 -4 9
-10z m35 0 c0 -5 -5 -10 -11 -10 -5 0 -7 5 -4 10 3 6 8 10 11 10 2 0 4 -4 4
-10z m20 -40 c0 -16 -37 -25 -58 -14 -13 6 -19 13 -13 15 17 6 71 5 71 -1z
m45 -10 c-3 -5 -11 -10 -16 -10 -6 0 -7 5 -4 10 3 6 11 10 16 10 6 0 7 -4 4
-10z m2553 -12 c-7 -13 -11 -26 -10 -30 1 -5 -2 -8 -8 -8 -5 0 -10 -7 -10 -16
0 -8 -4 -13 -8 -10 -5 3 -16 -13 -26 -34 -10 -23 -24 -40 -33 -40 -14 0 -12 4
5 23 12 13 22 28 22 33 0 6 12 24 26 41 14 18 25 35 24 39 -1 6 19 23 28 24 1
0 -3 -10 -10 -22z m-2371 -38 c-2 -11 -9 -26 -15 -32 -9 -9 -12 -7 -12 8 0 11
5 25 12 32 16 16 18 15 15 -8z m2153 -1 c0 -18 -2 -19 -15 -5 -8 8 -15 17 -15
20 0 3 7 6 15 6 9 0 15 -9 15 -21z m-2080 -14 c0 -8 -4 -15 -10 -15 -5 0 -7 7
-4 15 4 8 8 15 10 15 2 0 4 -7 4 -15z m2284 -36 c-9 -11 -19 -17 -21 -15 -8 7
21 45 30 39 4 -3 1 -14 -9 -24z m-2303 -12 c-10 -9 -11 -8 -5 6 3 10 9 15 12
12 3 -3 0 -11 -7 -18z m149 -1 c0 -2 -8 -10 -17 -17 -16 -13 -17 -12 -4 4 13
16 21 21 21 13z m1964 -27 c-3 -5 6 -14 20 -21 16 -7 26 -19 26 -32 0 -12 7
-32 16 -44 27 -39 20 -102 -12 -102 -8 0 -13 -5 -11 -12 1 -9 -20 -13 -72 -14
-40 -1 -83 -6 -95 -12 -17 -8 -101 -33 -126 -37 -3 -1 -23 -6 -45 -13 -83 -23
-202 -51 -245 -57 -25 -3 -52 -7 -60 -8 -8 -2 -21 -6 -28 -10 -17 -11 -52 1
-52 18 0 16 75 57 86 47 4 -4 4 -2 1 4 -9 15 20 52 30 39 10 -12 45 -16 37 -4
-3 5 2 12 10 15 9 3 16 15 16 26 0 19 -2 18 -21 -6 -20 -26 -47 -37 -32 -13
24 39 2 51 -23 12 -17 -26 -34 -33 -34 -14 0 5 4 8 9 5 9 -6 22 29 14 38 -7 7
-25 -13 -43 -48 -8 -17 -37 -52 -63 -78 l-49 -49 -110 2 c-83 1 -111 5 -115
15 -7 18 -23 18 -23 0 0 -11 -19 -13 -97 -9 -54 2 -108 4 -120 4 -13 0 -23 4
-23 9 0 6 9 10 20 10 11 0 20 7 20 16 0 8 4 13 9 9 5 -3 13 0 17 6 4 7 3 9 -4
5 -17 -10 -23 9 -8 29 16 22 131 33 123 12 -3 -8 1 -14 9 -14 8 0 14 4 14 7 0
13 80 10 81 -3 0 -7 5 -1 10 12 7 19 12 22 21 13 15 -15 53 -15 80 -1 13 7 18
7 14 1 -3 -6 -2 -13 3 -16 10 -7 34 14 58 50 8 13 19 21 24 18 5 -3 -2 -17
-16 -32 -16 -17 -21 -28 -13 -31 7 -2 14 1 16 8 2 6 10 11 18 11 9 0 13 3 11
8 -3 4 -1 17 4 30 7 17 16 22 41 22 18 -1 49 1 68 4 40 5 255 16 415 21 120 4
135 5 132 14 -1 4 7 16 19 29 16 17 20 33 18 74 -2 61 2 73 22 57 7 -6 11 -15
8 -20z m-2084 11 c0 -5 -5 -10 -11 -10 -5 0 -7 5 -4 10 3 6 8 10 11 10 2 0 4
-4 4 -10z m42 -12 c-17 -17 -15 -26 6 -31 13 -4 11 -5 -5 -6 -13 0 -23 5 -23
12 0 13 19 37 29 37 3 0 0 -5 -7 -12z m171 -8 c-3 -11 -9 -17 -14 -14 -5 3 -9
-4 -9 -15 0 -11 -4 -23 -10 -26 -19 -12 -10 29 12 52 26 28 27 28 21 3z m275
8 c-6 -18 -28 -21 -28 -4 0 9 7 16 16 16 9 0 14 -5 12 -12z m-368 -12 c0 -2
-7 -7 -16 -10 -8 -3 -12 -2 -9 4 6 10 25 14 25 6z m28 -16 c-7 -10 -14 -17
-17 -15 -4 4 18 35 25 35 2 0 -1 -9 -8 -20z m1642 3 c0 -5 54 -8 120 -8 133 1
136 0 98 -61 l-23 -35 -145 5 c-80 3 -151 5 -158 6 -24 0 7 39 44 55 19 8 37
21 40 30 6 15 24 21 24 8z m-1572 -38 c-11 -20 -23 -34 -25 -31 -5 5 35 66 42
66 3 0 -5 -16 -17 -35z m102 14 c-7 -11 -14 -19 -16 -16 -7 7 7 37 17 37 6 0
5 -9 -1 -21z m-190 -13 c0 -3 -4 -8 -10 -11 -5 -3 -10 -1 -10 4 0 6 5 11 10
11 6 0 10 -2 10 -4z m130 -15 c0 -12 -20 -25 -27 -18 -7 7 6 27 18 27 5 0 9
-4 9 -9z m184 -46 c-4 -8 -8 -15 -10 -15 -2 0 -4 7 -4 15 0 8 4 15 10 15 5 0
7 -7 4 -15z m-194 -15 c0 -5 -4 -10 -9 -10 -6 0 -13 5 -16 10 -3 6 1 10 9 10
9 0 16 -4 16 -10z m346 -10 c0 -16 -14 -40 -25 -40 -3 0 -7 14 -8 31 -2 24 1
30 15 27 9 -2 17 -10 18 -18z m-191 -34 c-9 -13 -24 -27 -33 -31 -10 -4 -5 6
12 24 36 37 42 39 21 7z m84 -20 c-26 -39 -35 -39 -25 -1 4 14 13 25 21 25 8
0 15 5 15 12 0 6 3 8 6 5 4 -4 -4 -22 -17 -41z m164 32 c4 -10 8 -9 16 2 9 13
11 12 11 -5 0 -11 -16 -33 -35 -48 -40 -32 -44 -28 -15 13 11 16 16 31 11 34
-5 3 -16 -5 -24 -18 -20 -29 -48 -58 -53 -53 -5 5 68 87 77 87 4 0 10 -6 12
-12z m67 -22 c0 -2 -7 -7 -16 -10 -8 -3 -12 -2 -9 4 6 10 25 14 25 6z m574
-18 c-3 -4 -9 -8 -15 -8 -5 0 -9 4 -9 8 0 5 7 9 15 9 8 0 12 -4 9 -9z m-621
-27 c-13 -11 -23 -21 -23 -24 0 -7 22 -3 38 6 8 5 12 2 12 -8 0 -8 7 -18 15
-21 8 -3 17 -15 21 -26 3 -11 12 -17 19 -14 8 3 25 -4 38 -14 18 -14 27 -16
35 -8 9 9 12 9 12 0 0 -12 -3 -13 -37 -16 -10 -1 -23 -5 -29 -8 -6 -4 -45 -8
-85 -9 -82 -1 -137 19 -176 65 -13 14 -29 26 -37 26 -8 0 -18 6 -22 13 -4 6
-4 9 1 5 5 -5 13 2 19 15 8 14 21 22 39 22 26 1 26 0 12 -22 -12 -18 -13 -23
-2 -23 7 0 19 6 26 13 11 10 13 10 7 0 -4 -8 -1 -13 8 -13 9 0 16 5 16 11 0 6
8 9 19 6 11 -2 31 5 47 19 16 13 34 23 39 23 6 0 0 -8 -12 -18z m1307 -31 c0
-5 -5 -10 -11 -10 -5 0 -7 5 -4 10 3 6 8 10 11 10 2 0 4 -4 4 -10z m-160 -50
c-8 -5 -19 -10 -25 -10 -5 0 -3 5 5 10 8 5 20 10 25 10 6 0 3 -5 -5 -10z m100
-14 c0 -2 -8 -10 -17 -17 -16 -13 -17 -12 -4 4 13 16 21 21 21 13z m-70 -20
c-6 -8 -18 -12 -27 -9 -12 5 -12 7 -1 14 7 5 19 9 27 9 11 0 11 -3 1 -14z
m-27 -41 c-3 -9 -8 -14 -10 -11 -3 3 -2 9 2 15 9 16 15 13 8 -4z m-98 -25 c-9
-17 -20 -28 -25 -25 -11 7 17 55 31 55 5 0 2 -14 -6 -30z m-56 -22 c-12 -21
-13 -21 -17 -4 -2 10 2 22 9 27 20 12 22 4 8 -23z m74 -21 c-15 -26 -32 -47
-36 -47 -5 0 1 13 12 29 12 16 21 36 21 44 0 13 20 29 28 22 1 -1 -10 -23 -25
-48z m-159 -32 c-4 -8 -13 -15 -22 -15 -13 0 -12 3 4 15 24 18 25 18 18 0z
m305 -12 c-7 -10 -15 -20 -16 -22 -2 -2 -3 5 -3 17 0 14 6 22 16 22 14 0 15
-3 3 -17z m-99 -23 c0 -5 -5 -10 -11 -10 -5 0 -7 5 -4 10 3 6 8 10 11 10 2 0
4 -4 4 -10z m20 -31 c-7 -11 -14 -18 -17 -15 -3 3 0 12 7 21 18 21 23 19 10
-6z m42 4 c-6 -2 -10 -9 -6 -14 3 -5 -2 -12 -10 -15 -9 -3 -14 -9 -12 -13 2
-3 -5 -15 -16 -26 -18 -18 -18 -15 3 27 13 26 31 47 39 47 10 0 11 -2 2 -6z
m-118 -43 c-10 -16 -20 -27 -22 -25 -5 5 26 55 34 55 3 0 -3 -13 -12 -30z m51
0 c-3 -5 -10 -10 -16 -10 -5 0 -9 5 -9 10 0 6 7 10 16 10 8 0 12 -4 9 -10z
m-10 -30 c-3 -5 -12 -10 -19 -10 -8 0 -19 -7 -26 -15 -7 -8 -16 -15 -21 -15
-16 0 36 48 54 49 10 1 15 -3 12 -9z m100 -20 c3 -5 1 -10 -4 -10 -6 0 -11 5
-11 10 0 6 2 10 4 10 3 0 8 -4 11 -10z m-207 -30 c-7 -11 -18 -20 -25 -20 -9
0 -7 6 4 20 10 11 21 20 25 20 5 0 3 -9 -4 -20z m36 -15 c-4 -8 -8 -15 -10
-15 -2 0 -4 7 -4 15 0 8 4 15 10 15 5 0 7 -7 4 -15z m17 -35 c-14 -27 -32 -50
-40 -50 -10 0 -11 3 -2 13 6 8 8 16 5 20 -3 3 4 10 15 17 12 6 19 15 16 20 -4
7 17 27 31 30 1 0 -10 -22 -25 -50z m69 36 c0 -2 -16 -21 -36 -42 l-36 -39 28
42 c25 36 44 53 44 39z m-157 -37 c-6 -23 -32 -33 -28 -11 2 9 4 20 4 23 1 3
7 6 15 6 8 0 11 -7 9 -18z m37 -11 c-12 -22 -66 -78 -76 -78 -8 0 11 29 46 70
37 42 49 46 30 8z m180 8 c0 -11 -19 -15 -25 -6 -3 5 1 10 9 10 9 0 16 -2 16
-4z m-81 -39 c-13 -13 -26 -22 -28 -20 -7 5 31 43 42 43 6 0 -1 -10 -14 -23z
m69 5 c2 -7 -3 -12 -10 -12 -8 0 -20 -10 -27 -23 -13 -25 -51 -53 -51 -38 0 5
7 14 15 21 8 7 15 17 15 23 0 14 33 46 44 43 6 -1 12 -8 14 -14z m-261 -37
c-4 -8 -11 -15 -17 -15 -6 0 -6 7 2 20 14 22 24 19 15 -5z m83 -7 c-10 -13
-26 -32 -34 -43 -14 -18 -15 -18 -16 -2 0 9 5 17 10 17 6 0 16 11 22 25 6 14
17 25 25 25 9 0 7 -7 -7 -22z m117 -84 c-14 -12 -24 -24 -21 -27 2 -2 -2 -10
-11 -17 -24 -20 -20 15 5 40 11 11 20 24 20 29 0 13 24 20 29 8 2 -6 -8 -21
-22 -33z m-62 -17 c-8 -20 -21 -40 -28 -44 -8 -4 -19 -17 -25 -28 -8 -14 -11
-15 -11 -5 0 8 6 24 14 34 22 29 18 42 -5 21 -19 -17 -20 -17 -14 -1 4 9 19
20 35 23 16 3 31 14 35 25 3 11 8 18 10 15 2 -2 -3 -20 -11 -40z m463 5 c2 -7
-3 -12 -12 -12 -9 0 -15 -4 -13 -9 1 -5 -1 -8 -5 -7 -4 0 -19 -16 -33 -36 -14
-21 -34 -42 -45 -48 -11 -6 -20 -16 -20 -23 0 -13 -22 -33 -58 -55 -19 -10
-22 -10 -22 3 0 8 5 15 10 15 6 0 10 4 10 10 0 16 77 101 155 170 13 11 28 7
33 -8z m-563 -22 c-21 -24 -37 -26 -29 -5 4 8 10 13 14 10 4 -3 11 2 14 11 4
9 9 14 13 10 3 -3 -2 -15 -12 -26z m191 13 c-10 -10 -27 -33 -38 -52 -14 -24
-22 -31 -27 -22 -8 13 55 90 73 91 5 0 2 -8 -8 -17z m-285 -36 c-8 -8 -11 -7
-11 4 0 20 13 34 18 19 3 -7 -1 -17 -7 -23z m89 -108 c-7 -11 -14 -18 -17 -15
-3 3 0 12 7 21 18 21 23 19 10 -6z m140 17 c0 -2 -8 -10 -17 -17 -16 -13 -17
-12 -4 4 13 16 21 21 21 13z m-55 -56 c-10 -11 -21 -18 -23 -15 -6 6 31 44 37
39 2 -2 -4 -13 -14 -24z m-165 -14 c0 -2 -6 -16 -14 -31 -9 -17 -16 -22 -19
-13 -5 16 10 48 23 48 6 0 10 -2 10 -4z m110 -26 c0 -11 -5 -20 -11 -20 -7 0
-17 -7 -23 -15 -7 -9 -16 -12 -25 -6 -18 11 -5 31 20 31 11 0 18 4 15 9 -5 8
2 14 22 20 1 1 2 -8 2 -19z"/>
<path d="M1445 3400 c-3 -5 -1 -10 4 -10 6 0 11 5 11 10 0 6 -2 10 -4 10 -3 0
-8 -4 -11 -10z"/>
<path d="M1358 3338 c6 -6 18 -8 28 -6 14 3 12 5 -9 10 -19 3 -25 2 -19 -4z"/>
<path d="M1327 3283 c-12 -12 -7 -22 8 -17 8 4 15 10 15 15 0 11 -14 12 -23 2z"/>
<path d="M1332 3222 c-11 -25 -11 -25 4 -10 9 9 15 21 13 27 -2 6 -10 -2 -17
-17z"/>
<path d="M1391 3214 c0 -11 3 -14 6 -6 3 7 2 16 -1 19 -3 4 -6 -2 -5 -13z"/>
<path d="M1341 3177 c-1 -11 -6 -15 -13 -11 -7 5 -8 3 -3 -5 10 -16 29 2 22
21 -4 8 -6 7 -6 -5z"/>
<path d="M1438 3163 c6 -2 18 -2 25 0 6 3 1 5 -13 5 -14 0 -19 -2 -12 -5z"/>
<path d="M1297 3143 c-4 -3 -7 -11 -7 -17 0 -6 5 -5 12 2 6 6 9 14 7 17 -3 3
-9 2 -12 -2z"/>
<path d="M1328 3103 c7 -3 16 -2 19 1 4 3 -2 6 -13 5 -11 0 -14 -3 -6 -6z"/>
<path d="M1293 3060 c-1 -15 4 -20 21 -20 27 0 53 25 36 35 -5 3 -10 -1 -10
-9 0 -9 -7 -16 -15 -16 -8 0 -15 7 -15 15 0 23 -16 18 -17 -5z"/>
<path d="M1310 2990 c0 -5 7 -7 15 -4 8 4 15 8 15 10 0 2 -7 4 -15 4 -8 0 -15
-4 -15 -10z"/>
<path d="M1300 2959 c0 -5 5 -7 10 -4 6 3 10 8 10 11 0 2 -4 4 -10 4 -5 0 -10
-5 -10 -11z"/>
<path d="M1336 2949 c-20 -19 -14 -23 16 -11 10 4 14 12 10 18 -5 8 -13 5 -26
-7z"/>
<path d="M1465 2940 c3 -5 8 -10 11 -10 2 0 4 5 4 10 0 6 -5 10 -11 10 -5 0
-7 -4 -4 -10z"/>
<path d="M1275 2930 c3 -5 12 -7 20 -3 21 7 19 13 -6 13 -11 0 -18 -4 -14 -10z"/>
<path d="M1343 2913 c-4 -10 -11 -21 -17 -25 -15 -11 14 -9 39 2 17 7 17 9 3
9 -11 1 -15 6 -12 16 4 8 3 15 0 15 -4 0 -10 -8 -13 -17z"/>
<path d="M1470 2713 c5 -2 8 -9 4 -14 -3 -5 0 -9 6 -9 15 0 7 23 -8 26 -7 1
-8 0 -2 -3z"/>
<path d="M1624 2696 c1 -8 5 -18 8 -22 4 -3 5 1 4 10 -1 8 -5 18 -8 22 -4 3
-5 -1 -4 -10z"/>
<path d="M1519 2683 c-11 -13 -11 -17 -1 -20 18 -7 15 -34 -5 -49 -17 -12 -16
-13 4 -8 21 6 38 40 23 49 -4 3 -6 14 -3 25 6 24 0 26 -18 3z"/>
<path d="M1577 2677 c4 -6 0 -8 -10 -4 -10 3 -17 2 -17 -2 0 -5 5 -11 11 -13
9 -3 9 -10 0 -26 -10 -19 -9 -22 5 -22 15 0 15 -2 0 -25 -13 -20 -14 -25 -3
-25 14 0 16 7 20 65 1 26 6 35 20 35 23 0 14 16 -13 23 -13 3 -18 1 -13 -6z"/>
<path d="M1455 2671 c-3 -2 -2 -7 0 -11 6 -10 45 -1 45 11 0 8 -37 8 -45 0z"/>
<path d="M1487 2643 c-4 -3 -7 -11 -7 -17 0 -6 5 -5 12 2 6 6 9 14 7 17 -3 3
-9 2 -12 -2z"/>
<path d="M1670 2629 c0 -7 -10 -9 -24 -7 -14 3 -31 1 -38 -3 -8 -5 5 -9 34 -9
38 0 46 3 42 15 -7 18 -14 20 -14 4z"/>
<path d="M1527 2585 c-4 -8 -3 -16 1 -19 4 -3 9 4 9 15 2 23 -3 25 -10 4z"/>
<path d="M1716 2585 c-3 -8 -1 -15 4 -15 6 0 10 7 10 15 0 8 -2 15 -4 15 -2 0
-6 -7 -10 -15z"/>
<path d="M1610 2575 c-9 -11 -10 -15 -1 -15 8 0 10 -8 6 -21 -5 -13 -3 -19 3
-15 13 8 22 46 10 46 -5 0 -6 5 -3 10 9 15 -1 12 -15 -5z"/>
<path d="M1461 2558 c-13 -22 -13 -22 4 -8 17 14 18 13 12 -9 -4 -18 -3 -21 5
-13 8 8 8 18 2 32 -9 20 -9 20 -23 -2z"/>
<path d="M1660 2570 c-8 -5 -11 -12 -7 -16 4 -4 13 -2 19 4 15 15 7 24 -12 12z"/>
<path d="M1745 2550 c3 -5 8 -10 11 -10 2 0 4 5 4 10 0 6 -5 10 -11 10 -5 0
-7 -4 -4 -10z"/>
<path d="M1700 2539 c0 -5 5 -7 10 -4 6 3 10 8 10 11 0 2 -4 4 -10 4 -5 0 -10
-5 -10 -11z"/>
<path d="M1525 2528 c-4 -10 -16 -18 -27 -18 -12 0 -18 -5 -15 -13 3 -7 -1
-21 -9 -31 -13 -18 -11 -36 5 -36 7 0 9 7 13 50 1 11 7 19 14 16 18 -7 36 10
32 30 -5 18 -5 18 -13 2z"/>
<path d="M1562 2514 c-11 -12 -7 -14 24 -14 34 0 36 -2 30 -26 -5 -17 -3 -23
4 -19 13 8 13 55 0 57 -5 0 -16 1 -22 2 -7 1 -15 4 -18 7 -3 4 -11 1 -18 -7z"/>
<path d="M1662 2501 c1 -16 6 -27 10 -25 5 3 6 10 2 15 -3 6 5 7 23 3 16 -4
25 -3 20 2 -5 5 -13 10 -18 10 -5 1 -14 2 -20 3 -5 0 -7 6 -4 11 3 6 1 10 -5
10 -5 0 -9 -13 -8 -29z"/>
<path d="M1735 2490 c3 -5 8 -10 11 -10 2 0 4 5 4 10 0 6 -5 10 -11 10 -5 0
-7 -4 -4 -10z"/>
<path d="M1527 2483 c-4 -3 -7 -11 -7 -17 0 -6 5 -5 12 2 6 6 9 14 7 17 -3 3
-9 2 -12 -2z"/>
<path d="M1565 2470 c-4 -11 -10 -18 -15 -15 -5 3 -11 1 -15 -5 -4 -6 8 -10
29 -10 20 0 36 5 36 11 0 5 -5 7 -12 3 -8 -5 -9 -2 -5 9 3 9 2 19 -3 22 -5 3
-11 -4 -15 -15z"/>
<path d="M1475 2410 c-3 -5 -1 -10 4 -10 6 0 11 5 11 10 0 6 -2 10 -4 10 -3 0
-8 -4 -11 -10z"/>
<path d="M1665 2410 c-3 -5 -1 -10 4 -10 6 0 11 5 11 10 0 6 -2 10 -4 10 -3 0
-8 -4 -11 -10z"/>
<path d="M1751 2397 c-13 -21 -12 -21 5 -5 10 10 16 20 13 22 -3 3 -11 -5 -18
-17z"/>
<path d="M1892 2390 c-11 -19 -10 -20 24 -20 22 0 33 4 29 11 -4 6 -14 8 -22
5 -11 -4 -13 -2 -9 9 8 22 -7 18 -22 -5z"/>
<path d="M1598 2395 c-2 -2 -16 -6 -32 -9 -47 -8 -41 -14 13 -13 28 1 51 5 51
8 0 8 -26 19 -32 14z"/>
<path d="M1678 2383 c7 -3 16 -2 19 1 4 3 -2 6 -13 5 -11 0 -14 -3 -6 -6z"/>
<path d="M1572 2343 c-17 -31 -17 -30 38 -29 27 0 50 4 50 9 0 4 8 7 18 8 10
0 12 3 4 6 -6 2 -9 9 -6 15 4 5 -5 2 -20 -7 -19 -13 -26 -14 -26 -4 0 10 -3
10 -12 1 -17 -17 -26 -15 -30 6 -3 15 -5 14 -16 -5z"/>
<path d="M1750 2345 c-7 -8 -22 -15 -34 -15 -16 0 -18 -2 -7 -9 18 -11 46 1
55 24 7 19 2 19 -14 0z"/>
<path d="M1792 2340 c-7 -11 -8 -20 -3 -20 9 0 24 30 18 36 -1 2 -8 -6 -15
-16z"/>
<path d="M1525 2340 c-3 -6 1 -7 9 -4 18 7 21 14 7 14 -6 0 -13 -4 -16 -10z"/>
<path d="M1850 2335 c0 -8 4 -15 10 -15 5 0 7 7 4 15 -4 8 -8 15 -10 15 -2 0
-4 -7 -4 -15z"/>
<path d="M1460 2330 c0 -13 18 -22 24 -11 3 5 -1 11 -9 15 -8 3 -15 1 -15 -4z"/>
<path d="M1944 2328 c3 -10 1 -18 -3 -18 -5 0 -11 5 -13 11 -2 7 -11 7 -28 0
-19 -8 -20 -10 -5 -9 11 2 26 -1 33 -6 19 -12 34 6 21 24 -9 13 -10 12 -5 -2z"/>
<path d="M2060 2285 c-7 -9 -19 -14 -26 -11 -7 3 -16 1 -19 -4 -4 -6 11 -10
34 -10 34 0 40 3 38 20 -2 24 -10 25 -27 5z"/>
<path d="M2169 2284 c-9 -11 -22 -14 -42 -10 -19 4 -27 2 -25 -6 2 -6 22 -12
43 -12 33 -1 39 2 40 22 2 26 1 27 -16 6z"/>
<path d="M1570 2245 c-8 -9 -8 -15 -2 -15 12 0 26 19 19 26 -2 2 -10 -2 -17
-11z"/>
<path d="M2305 2250 c-4 -6 -11 -7 -17 -4 -7 5 -8 2 -3 -6 6 -9 4 -12 -6 -8
-8 3 -20 0 -26 -7 -10 -11 -6 -13 19 -12 22 2 33 8 39 25 9 23 5 30 -6 12z"/>
<path d="M2350 2248 c0 -9 -7 -18 -17 -20 -15 -3 -15 -4 0 -16 13 -11 17 -10
27 8 9 16 9 25 1 33 -8 8 -11 6 -11 -5z"/>
<path d="M1655 2240 c-3 -5 -1 -10 4 -10 6 0 11 5 11 10 0 6 -2 10 -4 10 -3 0
-8 -4 -11 -10z"/>
<path d="M1613 2225 c0 -8 4 -15 9 -15 4 0 8 7 8 15 0 8 -4 15 -8 15 -5 0 -9
-7 -9 -15z"/>
<path d="M1690 2230 c0 -5 -11 -10 -25 -10 -38 0 -30 -16 9 -17 26 -1 35 4 39
18 3 12 0 19 -9 19 -8 0 -14 -4 -14 -10z"/>
<path d="M2195 2220 c-3 -5 3 -10 14 -10 12 0 21 5 21 10 0 6 -6 10 -14 10 -8
0 -18 -4 -21 -10z"/>
<path d="M2122 2183 c-13 -24 -42 -32 -42 -12 0 8 -5 8 -15 -1 -12 -10 -15
-10 -15 4 0 21 -9 20 -26 -1 -16 -22 -17 -33 -4 -33 6 0 10 7 10 17 0 15 1 15
18 -1 19 -17 87 -15 119 3 8 4 34 5 58 1 24 -4 50 -3 57 1 8 6 2 9 -19 9 -17
0 -33 6 -36 13 -3 9 -7 9 -20 -2 -10 -7 -17 -9 -17 -3 0 14 -40 3 -41 -12 -1
-6 -4 0 -8 14 l-7 25 -12 -22z"/>
<path d="M2260 2189 c0 -5 5 -7 10 -4 6 3 10 8 10 11 0 2 -4 4 -10 4 -5 0 -10
-5 -10 -11z"/>
<path d="M2300 2189 c0 -5 5 -7 10 -4 6 3 10 8 10 11 0 2 -4 4 -10 4 -5 0 -10
-5 -10 -11z"/>
<path d="M2390 2185 c0 -9 -7 -16 -17 -14 -10 1 -29 1 -42 0 -40 -2 -14 -14
35 -17 42 -3 45 -2 39 19 -5 18 -4 19 5 7 9 -12 11 -12 8 -1 -6 21 -28 26 -28
6z"/>
<path d="M2481 2187 c-6 -6 -22 -12 -33 -12 -12 0 -23 -5 -25 -11 -6 -19 58
-9 69 10 12 22 6 30 -11 13z"/>
<path d="M4775 3599 c-10 -15 3 -25 16 -12 7 7 7 13 1 17 -6 3 -14 1 -17 -5z"/>
<path d="M4376 2898 c3 -5 10 -6 15 -3 13 9 11 12 -6 12 -8 0 -12 -4 -9 -9z"/>
<path d="M4475 2701 c-3 -5 -1 -12 4 -15 5 -3 11 1 15 9 6 16 -9 21 -19 6z"/>
<path d="M410 2684 c0 -8 5 -12 10 -9 6 4 8 11 5 16 -9 14 -15 11 -15 -7z"/>
<path d="M356 2014 c-31 -27 -30 -40 3 -29 18 5 39 41 29 50 -1 2 -16 -8 -32
-21z"/>
<path d="M375 1970 c-4 -6 -11 -7 -17 -4 -6 4 -8 2 -4 -4 3 -6 -2 -15 -11 -21
-10 -5 -15 -13 -11 -17 4 -4 14 -1 22 5 10 8 16 9 21 1 11 -18 34 -11 51 15
24 36 10 42 -20 10 -15 -16 -26 -24 -26 -18 0 5 5 14 11 20 7 7 7 13 1 17 -6
3 -13 2 -17 -4z"/>
<path d="M415 1910 c-4 -6 -11 -7 -17 -4 -7 4 -8 2 -4 -5 4 -6 2 -18 -4 -26
-7 -8 -8 -15 -3 -15 16 0 53 31 53 46 0 16 -16 19 -25 4z"/>
<path d="M447 1891 c-15 -16 -18 -25 -9 -28 18 -7 15 -31 -5 -36 -14 -4 -14
-5 3 -6 14 -1 30 12 48 39 14 22 26 43 26 48 0 17 -42 6 -63 -17z"/>
<path d="M486 1845 c-17 -17 -21 -35 -8 -35 9 0 35 40 29 46 -3 3 -12 -2 -21
-11z"/>
<path d="M1385 2630 c3 -5 8 -10 11 -10 2 0 4 5 4 10 0 6 -5 10 -11 10 -5 0
-7 -4 -4 -10z"/>
<path d="M1060 2235 c-5 -14 -14 -31 -20 -38 -6 -6 -24 -27 -40 -46 -29 -34
-39 -61 -21 -61 13 0 91 90 91 106 0 8 5 14 10 14 6 0 10 11 10 25 0 32 -18
32 -30 0z"/>
<path d="M1078 2126 c-21 -16 -24 -38 -4 -30 10 4 32 46 23 44 -1 0 -10 -7
-19 -14z"/>
<path d="M2423 2061 c-7 -10 -9 -21 -6 -24 7 -8 33 18 33 32 0 17 -14 13 -27
-8z"/>
<path d="M2837 2066 c-24 -18 -23 -40 2 -27 10 6 21 7 25 4 8 -9 7 9 -2 24 -5
8 -11 8 -25 -1z"/>
<path d="M3390 1920 c0 -5 5 -10 11 -10 5 0 7 5 4 10 -3 6 -8 10 -11 10 -2 0
-4 -4 -4 -10z"/>
<path d="M2921 1902 c-7 -13 -10 -30 -7 -37 3 -8 1 -17 -4 -20 -16 -10 -11
-25 8 -25 11 0 18 7 18 20 0 11 -4 20 -9 20 -5 0 -4 7 3 15 6 8 10 22 8 32 -3
16 -5 15 -17 -5z"/>
<path d="M2962 1898 c-16 -16 -15 -25 1 -25 7 0 13 9 13 19 0 21 1 21 -14 6z"/>
<path d="M3065 1899 c-4 -6 -5 -12 -2 -15 2 -3 7 2 10 11 7 17 1 20 -8 4z"/>
<path d="M2995 1880 c3 -5 10 -10 16 -10 5 0 9 5 9 10 0 6 -7 10 -16 10 -8 0
-12 -4 -9 -10z"/>
<path d="M3236 1805 c-3 -8 -1 -17 3 -20 5 -3 11 2 15 10 3 8 1 17 -3 20 -5 3
-11 -2 -15 -10z"/>
<path d="M3186 1785 c-9 -14 -12 -25 -7 -25 5 0 16 11 25 25 9 14 12 25 7 25
-5 0 -16 -11 -25 -25z"/>
<path d="M3275 1799 c-4 -6 -5 -13 -2 -16 7 -7 27 6 27 18 0 12 -17 12 -25 -2z"/>
<path d="M3300 1780 c0 -5 5 -10 10 -10 6 0 10 5 10 10 0 6 -4 10 -10 10 -5 0
-10 -4 -10 -10z"/>
<path d="M3145 1770 c-3 -5 -1 -10 4 -10 6 0 11 5 11 10 0 6 -2 10 -4 10 -3 0
-8 -4 -11 -10z"/>
<path d="M3280 1745 c0 -8 -9 -15 -20 -15 -11 0 -20 -4 -20 -9 0 -5 -3 -18 -7
-28 -6 -16 -5 -16 10 -4 9 7 15 17 12 21 -3 4 4 10 15 13 22 6 37 -8 20 -18
-6 -4 -8 -11 -5 -16 4 -5 1 -9 -4 -9 -6 0 -11 -5 -11 -12 0 -6 3 -8 7 -5 3 4
11 -1 18 -10 10 -13 12 -7 9 35 -1 30 2 50 7 46 5 -3 9 -1 9 4 0 6 -7 13 -16
16 -22 9 -24 8 -24 -9z"/>
<path d="M3051 1731 c-14 -24 -14 -31 -1 -31 14 0 32 38 21 45 -6 3 -15 -3
-20 -14z"/>
<path d="M3190 1742 c0 -10 22 -32 32 -32 4 0 8 7 8 16 0 8 -4 12 -10 9 -5 -3
-10 -1 -10 4 0 6 -4 11 -10 11 -5 0 -10 -4 -10 -8z"/>
<path d="M3085 1710 c4 -6 11 -8 16 -5 14 9 11 15 -7 15 -8 0 -12 -5 -9 -10z"/>
<path d="M3195 1639 c-4 -6 -5 -12 -2 -15 2 -3 7 2 10 11 7 17 1 20 -8 4z"/>
<path d="M3221 1628 c-15 -24 -15 -24 12 -25 12 0 16 1 9 4 -10 4 -10 9 2 22
13 14 13 18 2 18 -7 0 -18 -9 -25 -19z"/>
<path d="M3277 1623 c-4 -3 -7 -11 -7 -17 0 -6 5 -5 12 2 6 6 9 14 7 17 -3 3
-9 2 -12 -2z"/>
<path d="M3324 1588 l-19 -23 23 19 c12 11 22 21 22 23 0 8 -8 2 -26 -19z"/>
<path d="M3090 1561 c0 -13 7 -18 24 -18 22 0 23 2 13 18 -7 11 -17 19 -24 19
-7 0 -13 -8 -13 -19z"/>
<path d="M3130 1570 c0 -5 5 -10 11 -10 5 0 7 5 4 10 -3 6 -8 10 -11 10 -2 0
-4 -4 -4 -10z"/>
<path d="M3240 1530 c-9 -6 -10 -10 -3 -10 6 0 15 5 18 10 8 12 4 12 -15 0z"/>
<path d="M2557 1048 c-8 -18 -13 -35 -11 -37 6 -7 39 25 42 41 5 32 -18 29
-31 -4z"/>
<path d="M2753 1049 c-31 -37 -29 -54 3 -24 14 13 24 30 22 38 -2 9 -10 5 -25
-14z"/>
<path d="M2791 1048 c-13 -16 -21 -32 -17 -35 7 -7 34 14 47 38 16 30 -5 28
-30 -3z"/>
<path d="M2840 1057 c-33 -48 -35 -53 -18 -40 8 7 18 11 21 8 4 -3 5 -2 2 1
-2 4 0 15 6 26 15 28 6 32 -11 5z"/>
<path d="M2524 1055 c-4 -8 -11 -12 -18 -8 -6 3 -8 3 -4 -2 4 -4 3 -14 -3 -22
-6 -7 -7 -13 -2 -13 11 0 53 42 53 53 0 13 -21 7 -26 -8z"/>
<path d="M949 4552 c-38 -35 -40 -39 -19 -38 23 1 25 -2 88 -114 14 -25 33
-57 43 -72 11 -14 19 -31 19 -37 0 -14 62 -101 72 -101 17 0 6 28 -39 95 -74
112 -78 117 -111 176 -38 67 -39 75 -10 98 14 12 18 20 10 25 -7 4 -30 -10
-53 -32z"/>
<path d="M3780 4469 c0 -5 5 -7 10 -4 6 3 10 8 10 11 0 2 -4 4 -10 4 -5 0 -10
-5 -10 -11z"/>
<path d="M4035 4140 c-3 -5 -1 -10 4 -10 6 0 11 5 11 10 0 6 -2 10 -4 10 -3 0
-8 -4 -11 -10z"/>
<path d="M4565 4080 c-10 -11 -13 -20 -7 -20 6 0 14 5 18 11 4 8 9 7 15 -2 6
-10 8 -7 6 9 -2 27 -9 28 -32 2z"/>
<path d="M4560 4025 c-8 -9 -8 -15 -2 -15 12 0 26 19 19 26 -2 2 -10 -2 -17
-11z"/>
<path d="M4608 4026 c-10 -7 -18 -16 -18 -19 0 -12 28 4 34 19 6 17 6 17 -16
0z"/>
<path d="M4584 3945 c-19 -19 -30 -35 -24 -35 11 0 18 6 54 48 30 35 9 26 -30
-13z"/>
<path d="M436 3923 c-6 -14 -5 -15 5 -6 7 7 10 15 7 18 -3 3 -9 -2 -12 -12z"/>
<path d="M441 3764 c0 -11 3 -14 6 -6 3 7 2 16 -1 19 -3 4 -6 -2 -5 -13z"/>
<path d="M398 3725 c-31 -41 -22 -59 12 -24 16 18 27 35 24 40 -8 14 -18 10
-36 -16z"/>
<path d="M3925 3470 c-3 -5 -1 -10 4 -10 6 0 11 5 11 10 0 6 -2 10 -4 10 -3 0
-8 -4 -11 -10z"/>
<path d="M556 3422 c-23 -26 -18 -46 7 -27 10 7 17 21 15 30 -3 15 -5 15 -22
-3z"/>
<path d="M565 3364 c-9 -14 -15 -28 -12 -30 7 -8 57 37 52 47 -10 15 -22 10
-40 -17z"/>
<path d="M589 3331 c-15 -5 -33 -25 -78 -83 -12 -16 -11 -18 3 -18 9 0 16 5
16 12 0 6 19 29 42 50 42 38 47 51 17 39z"/>
<path d="M590 3275 c0 -8 -7 -15 -15 -15 -9 0 -25 -16 -36 -35 -12 -19 -25
-35 -30 -35 -5 0 -9 -4 -9 -10 0 -5 7 -10 15 -10 8 0 15 4 15 8 0 4 16 25 35
45 30 32 46 67 30 67 -3 0 -5 -7 -5 -15z"/>
<path d="M3967 3224 c-16 -19 -24 -34 -18 -34 16 0 51 38 51 55 0 19 0 19 -33
-21z"/>
<path d="M553 3182 c-39 -43 -54 -73 -35 -71 11 0 84 99 80 109 -2 6 -22 -12
-45 -38z"/>
<path d="M3961 3171 c-11 -15 -18 -31 -14 -34 6 -7 53 42 53 56 0 16 -20 5
-39 -22z"/>
<path d="M573 3144 c-39 -44 -65 -84 -54 -84 5 0 18 10 28 23 10 13 24 26 31
31 25 15 10 -10 -34 -59 -71 -79 -88 -105 -70 -105 9 0 16 4 16 8 0 5 16 25
35 45 19 20 35 40 35 44 0 5 9 16 19 25 14 12 20 29 19 57 0 23 -1 41 -2 41 0
0 -11 -12 -23 -26z"/>
<path d="M3973 3122 c-28 -34 -29 -46 -3 -30 19 12 36 45 28 53 -2 2 -13 -9
-25 -23z"/>
<path d="M3847 2511 c-3 -13 -10 -20 -16 -16 -6 3 -11 1 -11 -4 0 -6 4 -11 9
-11 14 0 33 28 29 42 -3 7 -7 2 -11 -11z"/>
<path d="M3879 2504 c-7 -9 -14 -23 -16 -33 -1 -11 4 -8 17 9 28 36 27 57 -1
24z"/>
<path d="M3792 2445 c-12 -14 -18 -25 -14 -25 5 0 19 11 32 25 13 14 19 25 14
25 -6 0 -20 -11 -32 -25z"/>
<path d="M4955 2429 c-4 -6 -5 -12 -2 -15 2 -3 7 2 10 11 7 17 1 20 -8 4z"/>
</g>
</svg>
