<svg width="32" height="32" viewBox="0 0 24 24" xmlns="http://www.w3.org/2000/svg"><path fill="#fefefe" d="M10.32 0h3.4c3.22.47 6.2 2 8.31 4.49-1.66.37-3.31.26-4.93-.31l1.01 2c-1.37-1.75-2.32-1.6-2.85.45-3.3-1.75-1.06.58-.8 1.43-1.25 1.21-1.77 2.61-1.55 4.18.74.08 2.21.23 2.94.31.4 1.87.88 3.73 1.94 5.35 1.48-2.2 2.53-4.67 3.03-7.27-2.12-.67-4.2-1.49-6.22-2.41.96-.02 2.89-.08 3.85-.11l1.31 1.7c1.31.09 4.85-.37 3.9 2.08-1.46 5.98-8.23 8.73-13.89 8-1.65 1.26-3.25 2.58-4.86 3.88l1.02.23H4.12c.29-1.93.59-3.86.89-5.79C2.25 16.02.21 13.03.02 9.4c1.34.92 2.67 1.86 3.99 2.81-.33-.55-.97-1.65-1.29-2.2 2.06-.4 3.53-1.94 5.13-3.17-1.13-1.07-2.28-2.13-3.44-3.18.18 1.04.36 2.08.53 3.12L3.53 6.7l.2-2.22-1.99.3C4.07 2.37 6.99.58 10.32 0M6.14 3.14c.94.8 1.76 1.71 2.45 2.73 1.18-.59 2.31-1.25 3.4-1.99-.68-2.73-4.07-.99-5.85-.74m-.87 9.06c-.8 1.44.11 2.62.98 3.73l-.48 4.1c1.58-1.74 3.3-3.39 4.62-5.34-.8-1.66-3.22-3.02-5.12-2.49z"/></svg>