<?xml version="1.0" encoding="UTF-8" ?>
<!DOCTYPE svg PUBLIC "-//W3C//DTD SVG 1.1//EN" "http://www.w3.org/Graphics/SVG/1.1/DTD/svg11.dtd">
<svg width="24pt" height="24pt" viewBox="0 0 24 24" version="1.1" xmlns="http://www.w3.org/2000/svg">
<g id="#fefefefe">
<path fill="#fefefe" opacity="1.00" d=" M 10.32 0.00 L 13.72 0.00 C 16.94 0.47 19.92 2.00 22.03 4.49 C 20.37 4.86 18.72 4.75 17.10 4.18 L 18.11 6.18 C 16.74 4.43 15.79 4.58 15.26 6.63 C 11.96 4.88 14.20 7.21 14.46 8.06 C 13.21 9.27 12.69 10.67 12.91 12.24 C 13.65 12.32 15.12 12.47 15.85 12.55 C 16.25 14.42 16.73 16.28 17.79 17.90 C 19.27 15.70 20.32 13.23 20.82 10.63 C 18.70 9.96 16.62 9.14 14.60 8.22 C 15.56 8.20 17.49 8.14 18.45 8.11 C 18.89 8.68 19.32 9.24 19.76 9.81 C 21.07 9.90 24.61 9.44 23.66 11.89 C 22.20 17.87 15.43 20.62 9.77 19.89 C 8.12 21.15 6.52 22.47 4.91 23.77 L 5.93 24.00 L 4.12 24.00 C 4.41 22.07 4.71 20.14 5.01 18.21 C 2.25 16.02 0.21 13.03 0.02 9.40 C 1.36 10.32 2.69 11.26 4.01 12.21 C 3.68 11.66 3.04 10.56 2.72 10.01 C 4.78 9.61 6.25 8.07 7.85 6.84 C 6.72 5.77 5.57 4.71 4.41 3.66 C 4.59 4.70 4.77 5.74 4.94 6.78 C 4.58 6.76 3.88 6.72 3.53 6.70 C 3.58 6.15 3.68 5.04 3.73 4.48 L 1.74 4.78 C 4.07 2.37 6.99 0.58 10.32 0.00 M 6.14 3.14 C 7.08 3.94 7.90 4.85 8.59 5.87 C 9.77 5.28 10.90 4.62 11.99 3.88 C 11.31 1.15 7.92 2.89 6.14 3.14 M 5.27 12.20 C 4.47 13.64 5.38 14.82 6.25 15.93 C 6.13 16.95 5.89 19.00 5.77 20.03 C 7.35 18.29 9.07 16.64 10.39 14.69 C 9.59 13.03 7.17 11.67 5.27 12.20 Z" />
</g>
</svg>
