<?xml version="1.0" encoding="UTF-8" ?>
<!DOCTYPE svg PUBLIC "-//W3C//DTD SVG 1.1//EN" "http://www.w3.org/Graphics/SVG/1.1/DTD/svg11.dtd">
<svg width="24pt" height="24pt" viewBox="0 0 24 24" version="1.1" xmlns="http://www.w3.org/2000/svg">
<g id="#ffffffff">
<path fill="#ffffff" opacity="1.00" d=" M 2.27 0.95 C 8.80 0.95 15.33 0.95 21.85 0.96 C 18.60 4.23 15.33 7.50 12.07 10.77 C 8.80 7.50 5.55 4.21 2.27 0.95 Z" />
<path fill="#ffffff" opacity="1.00" d=" M 0.99 2.62 C 5.64 7.14 10.21 11.73 14.97 16.13 C 12.40 18.18 8.78 16.81 5.76 17.26 C 2.99 15.62 2.03 12.60 0.54 9.98 C 1.01 7.56 1.01 5.08 0.99 2.62 Z" />
<path fill="#ffffff" opacity="1.00" d=" M 12.51 12.03 C 16.73 9.99 19.51 5.64 23.13 2.62 C 23.14 4.85 23.14 7.08 23.15 9.32 C 20.08 10.62 16.89 11.65 13.98 13.31 C 13.49 12.88 13.00 12.46 12.51 12.03 Z" />
<path fill="#ffffff" opacity="1.00" d=" M 14.24 14.15 C 17.46 12.75 20.72 11.43 23.99 10.13 L 24.00 10.95 L 24.00 11.33 C 23.54 14.44 23.06 17.56 22.64 20.68 C 21.95 20.11 21.27 19.55 20.59 18.98 C 17.37 22.23 12.58 24.22 8.05 22.63 C 4.32 21.68 2.12 18.32 0.00 15.40 L 0.00 11.65 C 2.05 14.02 3.15 17.50 6.36 18.65 C 10.01 20.37 14.12 18.65 16.72 15.89 C 16.10 15.45 14.86 14.58 14.24 14.15 Z" />
</g>
</svg>
