<svg width="32" height="32" viewBox="0 0 24 24" xmlns="http://www.w3.org/2000/svg"><g fill="#fff"><path d="M2.27.95c6.53 0 13.06 0 19.58.01-3.25 3.27-6.52 6.54-9.78 9.81C8.8 7.5 5.55 4.21 2.27.95zM.99 2.62c4.65 4.52 9.22 9.11 13.98 13.51-2.57 2.05-6.19.68-9.21 1.13C2.99 15.62 2.03 12.6.54 9.98c.47-2.42.47-4.9.45-7.36zm11.52 9.41c4.22-2.04 7-6.39 10.62-9.41.01 2.23.01 4.46.02 6.7-3.07 1.3-6.26 2.33-9.17 3.99-.49-.43-.98-.85-1.47-1.28z"/><path d="M14.24 14.15c3.22-1.4 6.48-2.72 9.75-4.02l.01.82v.38c-.46 3.11-.94 6.23-1.36 9.35-.69-.57-1.37-1.13-2.05-1.7-3.22 3.25-8.01 5.24-12.54 3.65-3.73-.95-5.93-4.31-8.05-7.23v-3.75c2.05 2.37 3.15 5.85 6.36 7 3.65 1.72 7.76 0 10.36-2.76-.62-.44-1.86-1.31-2.48-1.74z"/></g></svg>