<svg width="150" height="100" viewBox="0 0 150 100" xmlns="http://www.w3.org/2000/svg" xmlns:xlink="http://www.w3.org/1999/xlink"><svg width="50" height="50" viewBox="-42.67 -42.67 213.33 213.33"><path d="M0 36.39c21.93-5.96 44.12-11.04 66.14-16.7 1.86-.59 3.84-.85 5.7-.12 18.7 5.16 37.53 9.88 56.16 15.26v2.52c-19.68 5.64-39.32 11.39-58.97 17.12-1.97.54-4.06.24-5.99-.3C42.05 48.43 20.98 42.94.01 37.11l-.01.97v-1.69zM8.89 57c.49-2.71.8-5.81 3.18-7.61 1.16.63 2.14 1.64 2.34 3 1.02 17.51 2.33 35.01 3.37 52.53-1.29 4.13-6.79 6.03-10.4 3.58-1.48-1.12-4.33-1.96-3.83-4.3C5.13 88.45 6.45 72.65 8.89 57zm18.02-.28c.5-.13 1.5-.4 2.01-.53 9.98 2.76 19.9 5.82 29.83 8.78 3.27 1.37 6.85 1.66 10.34 1.19 11.98-3.13 23.98-6.16 35.96-9.29 1.42-.57 2.69.24 3.8 1.03.06 7.31.15 14.64-.03 21.95-.21.3-.63.91-.84 1.22-10.56 5.16-22.38 7.24-34.02 7.91-15.31 1.62-30.59-2.09-44.89-7.29-3.6-1.31-2.5-5.71-2.64-8.66.28-5.42-.59-10.97.48-16.31z" fill="#fff"/></svg><svg width="50" height="50" viewBox="-42.67 -42.67 213.33 213.33" x="50"><g fill="#fff"><path d="M103.62 14.99c2.88-3.49 5.78-6.97 8.56-10.54 6.46.48 13.54 3.37 15.82 9.96v5.17c-2.45 3.03-4.92 6.05-7.32 9.12-3.37-.14-6.88-.69-9.67-2.71-3.74-2.61-5.96-6.78-7.39-11zM0 15.61c27.35-.07 54.71.03 82.06-.17 1.74 3.92 3.57 7.8 5.44 11.66-1.32 1.64-2.66 3.26-4.01 4.88-1.69-3.49-3.27-7.03-4.82-10.59-23.36.01-46.72.2-70.08.17 7.37 30.47 14.79 60.93 22.17 91.4 27.56-5.14 55.17-10.01 82.72-15.23-5.25-11.2-10.33-22.49-15.43-33.76 1.5-1.5 3-3 4.55-4.45 6.83 14.85 13.86 29.61 20.65 44.49-33.35 6.63-66.66 13.4-100.01 20.05C15.47 88.15 7.81 52.22 0 16.33v-.72z"/><path d="M97.89 21.87c.93-1.11 1.91-2.17 2.94-3.18 2.69 6.96 8.75 12.48 16.21 13.76-13.47 16.32-26.76 32.79-40.13 49.19-3.12.46-6.25.68-9.39.9-2.27-2.05-4.54-4.08-6.75-6.19.05-2.89-.14-5.77-.51-8.63C72.71 52.36 85.4 37.19 97.89 21.87zm-78.74 6.8c19.04-.29 38.08-1.04 57.12-1.53.01 1.1.03 3.29.03 4.39-19.04.38-38.08 1.03-57.12 1.6-.03-1.48-.04-2.97-.03-4.46zm5.98 20.11c15.56-.62 31.1-1.72 46.66-2.61-1.67 1.81-2.73 5.06-5.74 4.63-13.62.94-27.26 1.56-40.88 2.47-.02-1.5-.04-2.99-.04-4.49zm5.91 23.12c8.21-.83 16.42-1.66 24.62-2.63.19 1.42.4 2.85.6 4.27-8.25 1-16.56 1.59-24.79 2.77-.15-1.47-.29-2.94-.43-4.41zm24.4 11.2c1.17 3.4 4.38 5.22 7.37 6.82-3.1.89-6.15 1.97-9.22 2.94.49-3.27 1.06-6.54 1.85-9.76zM37.52 97.46c21.35-3.56 42.7-7.22 64.12-10.34.11 1.38.21 2.75.3 4.13-21.19 3.46-42.38 6.91-63.58 10.33-.29-1.37-.58-2.74-.84-4.12z"/></g></svg><svg width="50" height="50" viewBox="-42.67 -42.67 213.33 213.33" y="50"><g fill="#fff"><path d="M19.12 11.58c29.92-.03 59.84-.03 89.75 0 0 13.47.07 26.94-.03 40.41-9.48 7.44-18.85 15.03-28.23 22.59-5.68-4.2-11.05-8.78-16.59-13.16-5.36 4.44-10.92 8.62-16.22 13.13-9.81-7.14-18.96-15.2-28.63-22.56-.13-13.47-.03-26.94-.05-40.41m12 14.52v5.02c9.38-.01 18.76 0 28.15 0V26.1c-9.38-.01-18.77-.01-28.15 0m-.01 12.43c0 1.92.01 3.84.01 5.76 20.77.02 41.54.01 62.32.01v-5.77c-20.78 0-41.55-.01-62.33 0zm-30-.77c4.32-.13 8.64-.14 12.96-.01-.04 3.45 0 6.91-.03 10.37-4.36-3.39-8.66-6.86-12.93-10.36zm112.8.04c4.33-.24 8.68-.14 13.01-.03-4.29 3.49-8.58 6.98-12.96 10.35-.04-3.44.03-6.88-.05-10.32zM0 44.22c14.2 11.65 28.86 22.79 42.9 34.63C28.53 90.17 14.31 101.69 0 113.1V44.22zm89.52 31.29C102.35 65.24 115.2 55 128 44.69v67.95c-14.05-11.2-28.02-22.49-42.11-33.63.74-1.58 2.38-2.4 3.63-3.5z"/><path d="M4.93 116.91c19.65-15.83 39.4-31.54 59.09-47.32 19.71 15.76 39.44 31.5 59.11 47.31-39.4.07-78.8.05-118.2.01z"/></g></svg><svg width="50" height="50" viewBox="-42.67 -42.67 213.33 213.33" x="50" y="50"><path d="M41.52 8.4c9.78-1.06 19.55 1.72 28.4 5.69 10.26 4.55 19.53 11.8 30.87 13.53 9.53 1.81 19.41-1.28 27.2-6.79-.56 3.99-3.69 7.05-6.51 9.71-7.86 6.91-19.38 7.46-29.05 4.69C76.4 31.15 63.7 18.68 47.06 16.42c-9.34-1.7-19.26 1.92-25.47 9.07-.84-1.21-3.39-2.27-2.28-4.03C24.13 13.95 32.72 9.27 41.52 8.4zM8.1 29.87c6.93.12 13.87-.23 20.78.16.55 11.92.05 23.88.25 35.82 9.48-5.23 19.01-10.37 28.49-15.59.13 6.39.03 12.77.07 19.15 9.52-6.38 18.97-12.86 28.53-19.19.06 6.47 0 12.93.04 19.4 9.56-6.42 19.04-12.96 28.63-19.33.03 21.83.01 43.66.01 65.49 2.92 0 5.84 0 8.76.01-.01 1.54-.01 3.09-.01 4.63-12.26 0-24.51.06-36.76-.04.05-15.09-.14-30.19.09-45.28l-1.16.01c.02 15.1 0 30.21.01 45.31-9.03.02-18.06.02-27.08 0-.21-15.96.41-31.95-.32-47.88-1.17 2.34-.72 5.02-.8 7.54.03 13.45.03 26.89 0 40.34-9.16.01-18.32.02-27.49 0 0-14.47-.02-28.95.01-43.42-.07-2.72.39-5.6-.84-8.14-.56 17.17.05 34.38-.3 51.56-9.67.03-19.34 0-29.01.01v-3.97h8.05c.04-28.86-.07-57.73.05-86.59z" fill="#fff"/></svg><svg width="50" height="50" viewBox="-42.67 -42.67 213.33 213.33" x="100"><path fill="#fff" d="M37.18 20.97c-.09-3.02 2.81-5.73 5.83-5.41 14.35.01 28.7-.02 43.05.02 2.79-.07 5.41 2.56 5.28 5.35.02 4.7.06 9.41-.02 14.12.12 1.69-1.32 2.86-2.14 4.16 11.29-.12 22.59-.05 33.88-.06 1.89-.17 3.54.79 4.94 1.95v70c-1.47 1-3.03 2.04-4.91 1.85-39.38-.02-78.78.03-118.16-.03-2.11.19-3.73-1.3-4.93-2.83v-68c1.17-1.59 2.8-3.1 4.93-2.91 11.51-.04 23.02-.1 34.53.04-.94-1.26-2.29-2.48-2.25-4.2-.14-4.68-.09-9.37-.03-14.05m5.98 1.58v16.6h41.7v-16.6h-41.7z"/></svg><svg width="50" height="50" viewBox="-42.67 -42.67 213.33 213.33" x="100" y="50"><path d="M59.19 19.16c9.57-2.82 20.51 3.75 22.54 13.51 2.97 10.52-5.69 22.19-16.58 22.55-9.86 1.01-19.39-7.4-19.58-17.3-.7-8.47 5.42-16.73 13.62-18.76zM18.41 33.64c7.04-3.3 16.24.52 18.78 7.9 3.07 7.2-1.5 16.26-8.97 18.35-6.9 2.39-15.11-1.77-17.38-8.68-2.6-6.67.99-14.85 7.57-17.57zm81.04.09c7-3.4 16.31.26 18.94 7.64 3.44 7.77-2.11 17.71-10.51 18.9-8.03 1.86-16.61-4.98-16.54-13.22-.4-5.55 3.06-11.07 8.11-13.32zm-67.11 46.2c.05-9.81 7.34-18.96 16.79-21.4 7.16-1.61 14.59-.43 21.87-.8 11.75-.57 22.7 9.39 23.28 21.14.13 10.34.02 20.69.05 31.04-20.69.02-41.38.02-62.07 0 .05-9.99-.12-19.99.08-29.98zM16.41 62.45c5.86-.15 11.79-.48 17.62.4-3.39 4.73-6.03 10.21-6.21 16.12-.2 7.81 0 15.62-.09 23.43-9.25-.01-18.49 0-27.73 0V77.75c.96-8.17 8.15-15 16.41-15.3zm76.56 1c2.91-.98 5.98-1.23 9.03-1.15 4.69.12 9.48-.4 14.07.84 5.75 1.58 10.45 6.35 11.93 12.13v27.13c-9.7-.01-19.4.01-29.1-.01-.02-7.48.01-14.95 0-22.43-.03-5.99-2.39-11.75-5.93-16.51z" fill="#fff"/></svg></svg>