<?xml version="1.0" encoding="iso-8859-1"?><!DOCTYPE svg PUBLIC "-//W3C//DTD SVG 1.1//EN" "http://www.w3.org/Graphics/SVG/1.1/DTD/svg11.dtd"><svg width="60" height="60" viewBox="0 0 60 60" xmlns="http://www.w3.org/2000/svg" xmlns:xlink="http://www.w3.org/1999/xlink"><svg viewBox="0 0 48 48" width="30" height="30" id="facebook"><path d="M19.999 39h6V24h4.453l.547-6h-4.768v-2.399c0-1.169.779-1.441 1.326-1.441h3.366V9.019L26.288 9c-5.145 0-6.314 3.834-6.314 6.288V18h-2.975v6h3v15z" fill="#fff"/></svg><svg viewBox="0 0 48 48" width="30" height="30" id="linkedin" x="30"><g fill="#fff"><path d="M9 19h7v20H9z"/><circle cx="12.5" cy="12.5" r="3.5"/><path d="M39 28.009C39 22.612 37.836 19 31.545 19c-3.023 0-5.053 1.123-5.883 2.699h-.086V19H20v20h5.828v-9.913c0-2.614.494-5.145 3.728-5.145 3.186 0 3.443 2.989 3.443 5.314V39h6V28.009z"/></g></svg><svg viewBox="0 0 48 48" width="30" height="30" id="twitter" y="30"><path d="M38.173 12.442a12.442 12.442 0 0 1-3.91 1.472A6.186 6.186 0 0 0 29.771 12c-3.398 0-6.154 2.713-6.154 6.059 0 .475.055.936.158 1.38a17.57 17.57 0 0 1-12.686-6.33 5.963 5.963 0 0 0-.834 3.046c0 2.101 1.089 3.956 2.739 5.042a6.226 6.226 0 0 1-2.788-.757v.076c0 2.935 2.122 5.384 4.938 5.942a6.28 6.28 0 0 1-2.781.103c.785 2.406 3.057 4.159 5.75 4.208a12.476 12.476 0 0 1-7.645 2.594c-.498 0-.986-.029-1.469-.085A17.634 17.634 0 0 0 18.435 36c11.322 0 17.512-9.231 17.512-17.238a17 17 0 0 0-.016-.784 12.385 12.385 0 0 0 3.07-3.137 12.423 12.423 0 0 1-3.535.954 6.096 6.096 0 0 0 2.707-3.353z" fill="#fff"/></svg></svg>