<svg width="252" height="53" viewBox="0 0 252 53" fill="none" xmlns="http://www.w3.org/2000/svg">
<rect width="252" height="52.9999" fill="black" fill-opacity="0"/>
<rect width="163.266" height="17.6925" fill="black" fill-opacity="0" transform="translate(0 25.6517)"/>
<path d="M0 29.8725H1.21237H2.42474V30.7976C2.94433 30.046 3.63711 29.6412 4.61856 29.6412C5.48454 29.6412 6.06186 29.8725 6.52371 30.3351C6.69691 30.5085 6.81237 30.7398 6.92783 30.9711C6.98557 30.8554 7.0433 30.7398 7.15876 30.6242C7.67835 29.9881 8.37113 29.6412 9.29485 29.6412C10.1031 29.6412 10.7381 29.8725 11.1423 30.3351C11.5464 30.7976 11.7773 31.5493 11.7773 32.5322V39.5282H10.5072H9.23711V32.7634C9.23711 32.3009 9.17938 32.0118 9.00619 31.7805C8.83299 31.5493 8.60206 31.4336 8.3134 31.4336C7.96701 31.4336 7.67835 31.5493 7.44742 31.8383C7.27423 32.1274 7.15876 32.5322 7.15876 33.0525V39.586H5.88866H4.56082V32.8213C4.56082 32.3587 4.50309 32.0118 4.3299 31.7805C4.1567 31.5493 3.92577 31.4336 3.63711 31.4336C3.17526 31.4336 2.8866 31.6071 2.7134 31.954C2.54021 32.3009 2.48247 32.8791 2.48247 33.6885V39.6439H1.2701H0V29.8725Z" fill="#845E40"/>
<path d="M15.6454 39.8173C14.8948 39.8173 14.3175 39.586 13.9134 39.1235C13.5093 38.6609 13.2784 38.0249 13.2784 37.2155V36.6373C13.2784 35.4809 13.567 34.6715 14.1443 34.2089C14.7216 33.7464 15.7031 33.5151 17.0887 33.5151H17.8969V32.3009C17.8969 31.954 17.8392 31.6649 17.666 31.4914C17.5505 31.318 17.3196 31.2023 17.0309 31.2023C16.6845 31.2023 16.4536 31.318 16.2804 31.4914C16.1072 31.6649 16.0495 32.0118 16.0495 32.3587V32.6478H13.5093V32.3587C13.5093 31.4336 13.7402 30.7398 14.3175 30.2772C14.8948 29.8147 15.7608 29.6412 16.9732 29.6412C18.1278 29.6412 18.9938 29.8725 19.5711 30.3929C20.1485 30.8554 20.4371 31.6071 20.4371 32.6478V39.586H17.9546V38.7766L17.8392 38.8922C17.3196 39.5282 16.6268 39.8173 15.6454 39.8173ZM17.8392 35.0184H17.4928C16.9155 35.0184 16.4536 35.134 16.2227 35.4231C15.9918 35.6544 15.8763 36.1169 15.8763 36.7529V37.3311C15.8763 37.6202 15.934 37.8515 16.1072 38.0249C16.2804 38.1984 16.4536 38.2562 16.7423 38.2562C17.0887 38.2562 17.3773 38.0828 17.5505 37.7937C17.7237 37.4468 17.8392 36.9842 17.8392 36.3482V35.0184Z" fill="#845E40"/>
<path d="M22.6309 25.7674H25.1711V28.0801H22.6309V25.7674ZM22.6309 29.8725H23.901H25.1711V39.5861H23.901H22.6309V29.8725Z" fill="#845E40"/>
<path d="M31.1753 32.8213V32.5322C31.1753 32.0696 31.1175 31.7805 31.0021 31.5493C30.8866 31.318 30.6557 31.2023 30.367 31.2023C30.0783 31.2023 29.8474 31.2602 29.732 31.4336C29.6165 31.6071 29.501 31.8383 29.501 32.1274C29.501 32.4165 29.6165 32.7056 29.7897 32.8791C29.9629 33.1104 30.3093 33.2838 30.8289 33.5151C32.0412 34.0355 32.8495 34.5558 33.2536 34.9606C33.6577 35.3653 33.8309 36.0013 33.8309 36.7529C33.8309 37.7358 33.5423 38.4875 32.9649 39.0079C32.3876 39.5282 31.5216 39.7595 30.367 39.7595C29.0969 39.7595 28.2309 39.5282 27.6536 39.0079C27.134 38.5453 26.8454 37.7937 26.8454 36.7529V36.6373V36.3482H29.4433V36.6373C29.4433 37.2155 29.501 37.6202 29.6165 37.8515C29.732 38.0828 30.0206 38.1984 30.4247 38.1984C30.7711 38.1984 31.0021 38.0828 31.1753 37.9093C31.3485 37.7359 31.4062 37.4468 31.4062 37.042C31.4062 36.6951 31.2907 36.406 31.0598 36.1747C30.8289 35.9435 30.4825 35.7122 29.9629 35.4809C28.7505 34.9606 27.9423 34.498 27.5381 34.0933C27.134 33.6885 26.9608 33.1104 26.9608 32.4165C26.9608 31.4914 27.2495 30.7976 27.8268 30.3351C28.4041 29.8725 29.2124 29.6412 30.367 29.6412C31.5794 29.6412 32.3876 29.8725 32.9649 30.3351C33.4845 30.7976 33.7732 31.4914 33.7732 32.4165V32.4744V32.8213H31.1753Z" fill="#845E40"/>
<path d="M36.2556 38.95C35.6783 38.3718 35.4474 37.4467 35.4474 36.1169V33.3994C35.4474 32.0696 35.736 31.1445 36.2556 30.5663C36.8329 29.9881 37.6989 29.699 38.969 29.699C40.2391 29.699 41.1051 29.9881 41.6824 30.5663C42.2597 31.1445 42.5484 32.0696 42.5484 33.3994V36.1169C42.5484 37.4467 42.2597 38.3718 41.6824 38.95C41.1051 39.5282 40.2391 39.8173 38.969 39.8173C37.7566 39.8173 36.8329 39.5282 36.2556 38.95ZM39.835 37.7936C39.9504 37.5046 40.0659 36.8686 40.0659 35.8856V33.1682C40.0659 32.4743 40.0082 31.954 39.835 31.6649C39.6618 31.3758 39.4309 31.2023 39.0267 31.2023C38.6226 31.2023 38.3917 31.3758 38.2185 31.6649C38.0453 31.954 37.9876 32.4743 37.9876 33.1682V35.8856C37.9876 36.8686 38.0453 37.5046 38.1608 37.7936C38.2762 38.0827 38.5649 38.2562 38.969 38.2562C39.3731 38.2562 39.6618 38.1406 39.835 37.7936Z" fill="#845E40"/>
<path d="M44.5691 29.8725H45.8392H47.1093V30.7976C47.6867 30.0459 48.4372 29.699 49.4763 29.699C50.2269 29.699 50.7465 29.9303 51.0928 30.335C51.4392 30.7398 51.6124 31.3758 51.6124 32.2431V39.586H50.3423H49.0722V32.5322C49.0722 32.1274 49.0145 31.8383 48.8413 31.6649C48.7258 31.4914 48.4949 31.3758 48.1485 31.3758C47.7444 31.3758 47.398 31.5492 47.2825 31.8961C47.1093 32.2431 47.0516 32.8212 47.0516 33.6307V39.586H45.7815H44.5114V29.8725H44.5691Z" fill="#845E40"/>
<path d="M60.6185 39.8173C59.7525 39.8173 59.1175 39.5282 58.7134 39.0078C58.3092 38.4875 58.136 37.6202 58.136 36.406V32.9947C58.136 31.8961 58.367 31.0867 58.7711 30.5663C59.1752 30.0459 59.8103 29.7568 60.6185 29.7568C61.3113 29.7568 62.0041 30.0459 62.6969 30.6819V25.7095H63.967H65.2371V39.6438H64.0824H62.8701V38.6031L62.7546 38.7766C62.2927 39.4126 61.6 39.8173 60.6185 39.8173ZM61.7154 31.4336C61.3113 31.4336 61.0804 31.5492 60.9072 31.8383C60.7917 32.1274 60.6763 32.59 60.6763 33.3416V36.1747C60.6763 36.8685 60.734 37.3311 60.9072 37.6202C61.0804 37.9093 61.3113 38.0827 61.6577 38.0827C62.0618 38.0827 62.3505 37.9093 62.4659 37.5624C62.5814 37.2154 62.6391 36.5216 62.6391 35.4231V34.0932C62.6391 32.9947 62.5814 32.3009 62.4659 31.9539C62.4082 31.607 62.1196 31.4336 61.7154 31.4336Z" fill="#845E40"/>
<path d="M70.2597 39.8173C69.0474 39.8173 68.2391 39.5282 67.7195 38.95C67.1999 38.3718 66.9113 37.3889 66.9113 36.0591V34.1511C66.9113 32.5321 67.1999 31.3758 67.7195 30.7398C68.2391 30.1037 69.1628 29.7568 70.4907 29.7568C71.8762 29.7568 72.7999 30.0459 73.3195 30.6241C73.8391 31.2023 74.07 32.3009 74.07 33.862V35.2496H69.4515V35.5387C69.4515 36.6373 69.5092 37.3889 69.6824 37.7936C69.7979 38.1405 70.0865 38.314 70.4907 38.314C70.8948 38.314 71.1834 38.1984 71.3566 37.9093C71.5298 37.6202 71.5876 37.2154 71.5298 36.6373V36.2903H74.07V36.5794C74.07 37.678 73.7814 38.4296 73.1463 39.0078C72.5113 39.5282 71.5876 39.8173 70.2597 39.8173ZM71.5298 33.6885V33.1681C71.5298 32.4165 71.4721 31.8961 71.2989 31.607C71.1257 31.3179 70.8948 31.2023 70.4907 31.2023C70.0865 31.2023 69.7979 31.3758 69.6824 31.7227C69.5092 32.0696 69.4515 32.6478 69.4515 33.5729V33.6885H71.5298Z" fill="#845E40"/>
<path d="M79.7855 29.8725H81.0556H82.3835L83.7113 37.0998L85.0969 29.8725H86.367H87.6371L85.3855 39.586H83.7113H82.0371L79.7855 29.8725Z" fill="#845E40"/>
<path d="M89.3113 25.7674H91.8515V28.0801H89.3113V25.7674ZM89.3113 29.8725H90.5814H91.8515V39.5861H90.5814H89.3113V29.8725Z" fill="#845E40"/>
<path d="M100.454 35.9435V36.5216C100.454 37.6202 100.223 38.4297 99.6453 38.95C99.068 39.4704 98.2597 39.7595 97.1051 39.7595C95.8927 39.7595 95.0845 39.4704 94.5649 38.8922C94.0453 38.314 93.7567 37.3889 93.7567 36.0591V33.3994C93.7567 32.0696 94.0453 31.1445 94.5649 30.5663C95.0845 29.9881 95.9505 29.699 97.1051 29.699C98.2597 29.699 99.1257 29.9881 99.6453 30.5085C100.165 31.0289 100.454 31.8383 100.454 32.9947V33.1103V33.3994H97.9134V33.1103C97.9134 32.5322 97.9134 32.1274 97.7402 31.8383C97.6247 31.5492 97.3938 31.4336 97.1051 31.4336C96.8164 31.4336 96.5855 31.5492 96.4701 31.8383C96.3546 32.0696 96.2969 32.59 96.2969 33.226V35.9435C96.2969 36.8107 96.3546 37.4467 96.4701 37.678C96.5855 37.9671 96.8164 38.0827 97.1051 38.0827C97.3938 38.0827 97.6247 37.9671 97.7402 37.7358C97.8556 37.5046 97.9134 37.0998 97.9134 36.5216V35.9435H100.454Z" fill="#845E40"/>
<path d="M107.093 39.7017C106.573 39.7595 105.996 39.8173 105.361 39.8173C104.553 39.8173 103.918 39.586 103.513 39.1235C103.109 38.661 102.878 37.9093 102.878 36.9842V31.6649H101.608V29.9303H102.994V28.3692L105.534 27.3285V29.9303H107.151V31.6649H105.534V36.9842C105.534 37.4468 105.592 37.7359 105.707 37.9093C105.823 38.0828 105.996 38.1406 106.342 38.1406C106.631 38.1406 106.92 38.0828 107.151 38.0828V39.7017H107.093Z" fill="#845E40"/>
<path d="M109.287 38.95C108.709 38.3718 108.478 37.4467 108.478 36.1169V33.3994C108.478 32.0696 108.767 31.1445 109.287 30.5663C109.864 29.9881 110.73 29.699 112 29.699C113.27 29.699 114.136 29.9881 114.713 30.5663C115.291 31.1445 115.579 32.0696 115.579 33.3994V36.1169C115.579 37.4467 115.291 38.3718 114.713 38.95C114.136 39.5282 113.27 39.8173 112 39.8173C110.73 39.8173 109.864 39.5282 109.287 38.95ZM112.808 37.7936C112.924 37.5046 113.039 36.8686 113.039 35.8856V33.1682C113.039 32.4743 112.981 31.954 112.808 31.6649C112.635 31.3758 112.404 31.2023 112 31.2023C111.596 31.2023 111.365 31.3758 111.192 31.6649C111.019 31.954 110.961 32.4743 110.961 33.1682V35.8856C110.961 36.8686 111.019 37.5046 111.134 37.7936C111.249 38.0827 111.538 38.2562 111.942 38.2562C112.346 38.2562 112.693 38.1406 112.808 37.7936Z" fill="#845E40"/>
<path d="M117.6 29.8725H118.812H120.025V31.1445C120.14 30.971 120.198 30.7976 120.313 30.682C120.775 30.1038 121.526 29.7569 122.623 29.699V31.8961C122.449 31.8383 122.276 31.8383 122.045 31.8383C121.295 31.8383 120.775 32.0118 120.487 32.3587C120.198 32.7056 120.082 33.3416 120.082 34.2089V39.5282H118.928H117.658V29.8725H117.6Z" fill="#845E40"/>
<path d="M128.8 25.6517H130.07H131.34V30.7398C131.918 30.046 132.668 29.699 133.707 29.699C134.342 29.699 134.92 29.9303 135.324 30.3929C135.728 30.8554 135.959 31.4914 135.959 32.2431V39.586H134.689H133.361V32.5322C133.361 32.1274 133.303 31.8383 133.13 31.6649C133.014 31.4914 132.784 31.3758 132.437 31.3758C132.033 31.3758 131.744 31.5492 131.571 31.8962C131.398 32.2431 131.34 32.8212 131.34 33.5729V39.5282H130.07H128.8V25.6517Z" fill="#845E40"/>
<path d="M140.577 36.6951C140.577 37.1576 140.635 37.5624 140.808 37.7358C140.981 37.9671 141.212 38.0827 141.501 38.0827C141.963 38.0827 142.252 37.9093 142.425 37.5624C142.598 37.2155 142.656 36.6373 142.656 35.8278V29.8725H143.926H145.196V39.586H143.984H142.771V38.6031C142.078 39.3548 141.328 39.7595 140.404 39.7595C139.596 39.7595 139.019 39.5282 138.614 39.0657C138.21 38.6031 138.037 37.9093 138.037 36.9842V29.8725H139.307H140.577V36.6951Z" fill="#845E40"/>
<path d="M150.68 41.9566C151.027 41.9566 151.258 41.841 151.431 41.6097C151.546 41.3784 151.662 40.9159 151.662 40.3377V38.4875L151.546 38.6031C151.085 39.2391 150.392 39.586 149.526 39.586C148.66 39.586 148.082 39.2969 147.736 38.7766C147.39 38.2562 147.216 37.3311 147.216 36.0591V33.3994C147.216 32.1274 147.39 31.2023 147.794 30.6241C148.198 29.9881 148.775 29.699 149.584 29.699C150.392 29.699 151.142 30.0459 151.662 30.7398L151.72 30.8554V29.8725H154.26V40.2799C154.26 41.3206 153.971 42.0722 153.394 42.5926C152.816 43.113 151.893 43.3442 150.738 43.3442C149.468 43.3442 148.602 43.113 148.082 42.7082C147.563 42.3035 147.274 41.6097 147.274 40.6268V40.3377H149.814V40.6268C149.814 41.0315 149.872 41.3206 149.988 41.5519C150.161 41.841 150.334 41.9566 150.68 41.9566ZM150.68 31.4336C150.392 31.4336 150.103 31.5492 149.988 31.8383C149.872 32.1274 149.757 32.5322 149.757 33.1103V35.77C149.757 36.6373 149.814 37.1576 149.93 37.4467C150.045 37.7358 150.276 37.8515 150.68 37.8515C151.085 37.8515 151.315 37.7358 151.431 37.4467C151.546 37.1576 151.604 36.5795 151.604 35.7122V33.5151C151.604 32.6478 151.546 32.0696 151.431 31.7805C151.315 31.4914 151.085 31.4336 150.68 31.4336Z" fill="#845E40"/>
<path d="M156.973 38.95C156.396 38.3718 156.165 37.4467 156.165 36.1169V33.3994C156.165 32.0696 156.454 31.1445 156.973 30.5663C157.551 29.9881 158.416 29.699 159.687 29.699C160.957 29.699 161.823 29.9881 162.4 30.5663C162.977 31.1445 163.266 32.0696 163.266 33.3994V36.1169C163.266 37.4467 162.977 38.3718 162.4 38.95C161.823 39.5282 160.957 39.8173 159.687 39.8173C158.416 39.8173 157.551 39.5282 156.973 38.95ZM160.495 37.7936C160.61 37.5046 160.668 36.8686 160.668 35.8856V33.1682C160.668 32.4743 160.61 31.954 160.437 31.6649C160.264 31.3758 160.033 31.2023 159.629 31.2023C159.282 31.2023 158.994 31.3758 158.821 31.6649C158.647 31.954 158.59 32.4743 158.59 33.1682V35.8856C158.59 36.8686 158.647 37.5046 158.763 37.7936C158.878 38.0827 159.167 38.2562 159.571 38.2562C160.091 38.2562 160.379 38.1406 160.495 37.7936Z" fill="#845E40"/>
<rect width="95.2" height="7.63206" fill="black" fill-opacity="0" transform="translate(65.1218 45.3679)"/>
<path d="M65.1218 52.7687L66.3341 46.929L68.3548 51.1498L70.4331 46.929L71.53 52.7687H70.6063L70.029 49.473L68.297 53L66.6228 49.473L65.9877 52.7687H65.1218Z" fill="black"/>
<path d="M75.5135 47.3337V50.5716C75.5135 51.0341 75.5712 51.381 75.7444 51.6123C75.9753 51.9014 76.3217 52.0749 76.7836 52.0749C77.2454 52.0749 77.5918 51.9014 77.8228 51.6123C77.996 51.381 78.0537 51.092 78.0537 50.5716V47.3337H78.9197V50.8029C78.9197 51.381 78.7465 51.8436 78.3423 52.1905C77.9382 52.5952 77.3609 52.8265 76.7258 52.8265C76.0908 52.8265 75.5712 52.5952 75.1671 52.1905C74.763 51.8436 74.5898 51.3232 74.5898 50.8029V47.3337H75.5135Z" fill="black"/>
<path d="M85.5589 48.1432L84.8661 48.5479C84.7506 48.3166 84.5774 48.201 84.462 48.1432C84.3465 48.0854 84.1733 48.0276 84.0001 48.0276C83.7692 48.0276 83.5382 48.0854 83.365 48.201C83.1918 48.3166 83.1341 48.4901 83.1341 48.6636C83.1341 48.9527 83.365 49.1261 83.7692 49.2996L84.3465 49.5308C84.8083 49.7043 85.1547 49.9356 85.3857 50.1668C85.6166 50.3981 85.7321 50.745 85.7321 51.0919C85.7321 51.6123 85.5589 52.017 85.2125 52.3061C84.8661 52.653 84.4042 52.7687 83.8846 52.7687C83.365 52.7687 82.9609 52.6531 82.6145 52.364C82.2681 52.0749 82.0949 51.6701 81.9795 51.2076L82.8455 51.0341C82.9032 51.381 82.9609 51.5545 83.0764 51.6701C83.2496 51.9014 83.5382 52.017 83.8846 52.017C84.1733 52.017 84.4042 51.9592 84.5774 51.7858C84.7506 51.6123 84.8661 51.381 84.8661 51.1498C84.8661 51.0341 84.8661 50.9763 84.8083 50.8607C84.7506 50.745 84.7506 50.6872 84.6352 50.6294C84.5774 50.5716 84.4619 50.5138 84.4042 50.3981C84.2888 50.3403 84.1733 50.2825 84.0001 50.2247L83.4228 49.9934C82.6145 49.7043 82.2104 49.2418 82.2104 48.6057C82.2104 48.201 82.3836 47.8541 82.73 47.565C83.0764 47.2759 83.4805 47.1603 84.0001 47.1603C84.6351 47.2759 85.1547 47.565 85.5589 48.1432Z" fill="black"/>
<path d="M91.8516 48.1432H89.4846V49.473H91.7362V50.2247H89.4846V52.0171H91.8516V52.7687H88.6187V47.3338H91.8516V48.1432ZM91.563 45.8883L90.0042 46.8712L89.6001 46.5243L90.8125 45.3679L91.563 45.8883Z" fill="black"/>
<path d="M98.0867 48.1432H95.7197V49.473H97.9713V50.2247H95.7197V52.0171H98.0867V52.7687H94.8537V47.3337H98.0867V48.1432Z" fill="black"/>
<path d="M106.227 47.3338V51.9593H107.959V52.7109H105.361V47.2759H106.227V47.3338Z" fill="black"/>
<path d="M111.538 47.3337V52.7687H110.672V47.3337H111.538Z" fill="black"/>
<path d="M116.446 48.1432V52.7687H115.58V48.1432H114.252V47.3916H117.831V48.1432H116.446Z" fill="black"/>
<path d="M122.046 48.1432V52.7687H121.18V48.1432H119.852V47.3916H123.431V48.1432H122.046Z" fill="black"/>
<path d="M129.262 48.1432H126.895V49.473H129.147V50.2247H126.895V52.0171H129.262V52.7687H126.029V47.3338H129.262V48.1432ZM128.973 45.8883L127.415 46.8712L127.01 46.5243L128.223 45.3679L128.973 45.8883Z" fill="black"/>
<path d="M134.227 50.4559L136.017 52.7687H134.92L133.245 50.5716H133.072V52.7687H132.206V47.3337H133.245C133.996 47.3337 134.573 47.4494 134.92 47.7385C135.324 48.0276 135.497 48.4323 135.497 48.9527C135.497 49.3574 135.382 49.6465 135.151 49.9356C134.92 50.2247 134.631 50.3981 134.227 50.4559ZM133.13 49.8778H133.419C134.227 49.8778 134.689 49.5887 134.689 49.0105C134.689 48.4323 134.285 48.201 133.476 48.201H133.188V49.8778H133.13Z" fill="black"/>
<path d="M142.194 51.4389H139.711L139.076 52.7687H138.153L141.039 46.9868L143.81 52.7687H142.829L142.194 51.4389ZM141.848 50.6872L140.982 48.837L140.058 50.6872H141.848Z" fill="black"/>
<path d="M147.274 47.3337V52.7687H146.408V47.3337H147.274Z" fill="black"/>
<path d="M152.528 50.4559L154.318 52.7687H153.221L151.546 50.5716H151.373V52.7687H150.507V47.3337H151.546C152.297 47.3337 152.874 47.4494 153.221 47.7385C153.625 48.0276 153.798 48.4323 153.798 48.9527C153.798 49.3574 153.683 49.6465 153.452 49.9356C153.221 50.2247 152.932 50.3981 152.528 50.4559ZM151.431 49.8778H151.72C152.528 49.8778 152.99 49.5887 152.99 49.0105C152.99 48.4323 152.586 48.201 151.777 48.201H151.489V49.8778H151.431Z" fill="black"/>
<path d="M160.322 48.1432H157.955V49.473H160.206V50.2247H157.955V52.0171H160.322V52.7687H157.089V47.3337H160.322V48.1432Z" fill="black"/>
<rect width="57.1546" height="14.1078" fill="black" fill-opacity="0" transform="translate(194.845 25.7096)"/>
<path d="M194.845 29.8726H196.115H197.443L198.771 37.0999L200.157 29.8726H201.427H202.697L200.445 39.5861H198.771H197.097L194.845 29.8726Z" fill="#6B6966"/>
<path d="M204.371 25.7674H206.911V28.0801H204.371V25.7674ZM204.371 29.8725H205.641H206.911V39.5861H205.641H204.371V29.8725Z" fill="#6B6966"/>
<path d="M211.183 39.8173C210.433 39.8173 209.856 39.586 209.451 39.1235C209.047 38.6609 208.816 38.0249 208.816 37.2155V36.6373C208.816 35.4809 209.105 34.6715 209.682 34.2089C210.26 33.7464 211.241 33.5151 212.627 33.5151H213.435V32.3009C213.435 31.954 213.377 31.6649 213.204 31.4914C213.089 31.318 212.858 31.2023 212.569 31.2023C212.223 31.2023 211.992 31.318 211.818 31.4914C211.645 31.6649 211.588 32.0118 211.588 32.3587V32.6478H209.047V32.3587C209.047 31.4336 209.278 30.7398 209.856 30.2772C210.433 29.8147 211.299 29.6412 212.511 29.6412C213.666 29.6412 214.532 29.8725 215.109 30.3929C215.686 30.8554 215.975 31.6071 215.975 32.6478V39.586H213.493V38.7766L213.377 38.8922C212.858 39.5282 212.107 39.8173 211.183 39.8173ZM213.377 35.0184H213.031C212.453 35.0184 211.992 35.134 211.761 35.4231C211.53 35.6544 211.357 36.1169 211.357 36.7529V37.3311C211.357 37.6202 211.414 37.8515 211.588 38.0249C211.761 38.1984 211.992 38.2562 212.223 38.2562C212.569 38.2562 212.858 38.0828 213.031 37.7937C213.204 37.4468 213.319 36.9842 213.319 36.3482V35.0184H213.377Z" fill="#6B6966"/>
<path d="M218.111 29.8726H219.381H220.651V30.7977C221.229 30.046 221.979 29.6991 223.018 29.6991C223.769 29.6991 224.289 29.9304 224.635 30.3351C224.981 30.7398 225.155 31.3758 225.155 32.2431V39.5861H223.884H222.614V32.5322C222.614 32.1275 222.557 31.8384 222.383 31.6649C222.268 31.4915 222.037 31.3758 221.691 31.3758C221.287 31.3758 220.94 31.5493 220.825 31.8962C220.651 32.2431 220.594 32.8213 220.594 33.6308V39.5861H219.381H218.111V29.8726Z" fill="#6B6966"/>
<path d="M229.715 39.8173C228.849 39.8173 228.214 39.5283 227.81 39.0079C227.406 38.4875 227.233 37.6202 227.233 36.406V32.9947C227.233 31.8962 227.464 31.0867 227.868 30.5664C228.272 30.046 228.907 29.7569 229.715 29.7569C230.408 29.7569 231.101 30.046 231.794 30.682V25.7096H233.064H234.334V39.6439H233.122H231.909V38.6032L231.794 38.7766C231.39 39.4126 230.639 39.8173 229.715 39.8173ZM230.812 31.4336C230.408 31.4336 230.177 31.5493 230.004 31.8384C229.889 32.1275 229.773 32.59 229.773 33.3417V36.1748C229.773 36.8686 229.831 37.3311 230.004 37.6202C230.177 37.9093 230.408 38.0828 230.755 38.0828C231.159 38.0828 231.447 37.9093 231.563 37.5624C231.678 37.2155 231.736 36.5217 231.736 35.4231V34.0933C231.736 32.9947 231.678 32.3009 231.563 31.954C231.505 31.6071 231.216 31.4336 230.812 31.4336Z" fill="#6B6966"/>
<path d="M239.357 39.8173C238.144 39.8173 237.336 39.5283 236.816 38.9501C236.297 38.3719 236.008 37.389 236.008 36.0591V34.1511C236.008 32.5322 236.297 31.3758 236.816 30.7398C237.336 30.1038 238.26 29.7569 239.588 29.7569C240.973 29.7569 241.897 30.046 242.416 30.6242C242.936 31.2024 243.167 32.3009 243.167 33.862V35.2497H238.548V35.5388C238.548 36.6373 238.606 37.389 238.779 37.7937C238.895 38.1406 239.183 38.3141 239.588 38.3141C239.992 38.3141 240.28 38.1984 240.454 37.9093C240.627 37.6202 240.684 37.2155 240.627 36.6373V36.2904H243.167V36.5795C243.167 37.6781 242.878 38.4297 242.243 39.0079C241.608 39.5282 240.627 39.8173 239.357 39.8173ZM240.627 33.6886V33.1682C240.627 32.4166 240.569 31.8962 240.396 31.6071C240.28 31.318 239.992 31.2024 239.588 31.2024C239.183 31.2024 238.895 31.3758 238.779 31.7227C238.606 32.0696 238.548 32.6478 238.548 33.5729V33.6886H240.627Z" fill="#6B6966"/>
<path d="M244.957 29.8726H246.227H247.497V30.7977C248.074 30.046 248.825 29.6991 249.864 29.6991C250.614 29.6991 251.134 29.9304 251.48 30.3351C251.827 30.7398 252 31.3758 252 32.2431V39.5861H250.73H249.46V32.5322C249.46 32.1275 249.402 31.8384 249.229 31.6649C249.113 31.4915 248.882 31.3758 248.536 31.3758C248.132 31.3758 247.785 31.5493 247.67 31.8962C247.497 32.2431 247.439 32.8213 247.439 33.6308V39.5861H246.169H244.899V29.8726H244.957Z" fill="#6B6966"/>
<rect width="137.256" height="49.6827" fill="black" fill-opacity="0" transform="translate(77.8052)"/>
<rect width="55.7365" height="19.1205" fill="black" fill-opacity="0" transform="translate(77.8052)"/>
<path d="M81.8062 17.2681C81.8062 17.2681 77.3609 17.615 78.4578 13.1051C79.6124 8.59527 81.633 4.54796 90.1774 1.77266C96.932 -0.424446 94.3341 3.62286 94.2186 3.85414C94.2186 3.85414 92.7753 6.34034 90.7547 9.23127C89.0227 11.6597 86.8289 14.3193 84.6351 16.0539C84.2887 16.343 83.6536 16.6321 83.5959 16.8055C83.4805 17.0368 84.7506 18.8292 84.9238 18.887C85.1547 18.9448 85.2701 18.7714 85.6743 18.1932C87.0021 16.4008 90.3506 12.2957 95.5464 9.34691C102.301 5.41524 103.167 6.05124 103.167 6.39816C103.167 6.74507 102.243 7.84362 102.474 7.90144C102.994 8.01708 105.476 6.39816 105.823 5.58869C106.227 4.54796 106.111 2.35085 103.571 3.62286C101.031 4.89487 95.8351 7.84362 95.3155 8.19053C94.7959 8.53745 94.6227 8.24835 95.2 7.1498C95.6619 6.2247 96.1237 5.64651 96.7011 4.54796C97.1052 3.7385 97.3361 2.87122 96.8743 1.54139C96.4124 0.269378 94.7382 -0.135353 93.064 0.038103C91.2165 0.269378 89.4846 0.789746 88.4454 1.2523C87.233 1.77266 85.0969 2.35085 82.1526 5.06833C80.3629 6.68725 78.8619 9.17345 78.0536 12.5269C76.6681 17.7306 81.5176 17.2681 81.8062 17.2681Z" fill="black"/>
<path d="M98.2599 15.1866C98.2599 15.1866 96.297 15.6491 94.5651 18.4822C94.2187 19.1183 95.3733 19.0604 95.6043 18.887C95.8352 18.7135 98.1445 16.1695 98.664 15.707C98.8372 15.5913 98.2599 15.1866 98.2599 15.1866Z" fill="black"/>
<path d="M100.454 12.8738C100.454 12.8738 101.204 12.7004 101.377 12.8738C101.551 13.0473 102.647 14.6662 102.417 14.7819C102.012 15.071 100.28 14.088 100.454 12.8738Z" fill="black"/>
<path d="M109.46 16.1117C109.46 16.1117 109.691 15.2444 109.287 15.2444C109.056 15.2444 106.573 15.2444 106.4 17.3837C106.285 18.8291 107.959 18.7135 108.19 18.7135C108.421 18.7135 108.363 17.9619 108.19 17.904C107.959 17.8462 107.035 17.6728 107.728 16.8633C108.305 16.1117 108.767 16.1117 109.46 16.1117Z" fill="black"/>
<path d="M118.12 13.6833C118.12 13.6833 113.674 17.5572 113.501 18.7136C113.443 19.1183 114.021 19.2339 114.367 19.0027C114.713 18.7714 116.157 16.979 117.311 16.5743C118.293 16.2274 121.468 15.6492 121.872 16.1695C122.219 16.6899 120.891 17.2681 121.006 17.6728C121.122 18.0197 122.045 18.4823 122.392 18.1932C122.738 17.9041 123.489 16.1117 123.258 15.707C122.911 15.1288 119.39 15.3023 118.293 15.5335C117.254 15.7648 118.466 14.6663 118.466 14.6663C118.466 14.6663 119.101 14.1459 118.697 13.799C118.351 13.3943 118.12 13.6833 118.12 13.6833Z" fill="black"/>
<path d="M126.779 17.4415C126.779 17.4415 126.606 19.0605 127.876 19.0026C129.551 18.887 133.419 17.2103 133.534 16.4586C133.65 15.707 132.437 15.9382 132.264 16.0539C132.091 16.1695 129.666 17.8463 128.8 18.0197C127.934 18.1932 127.819 18.4244 127.645 17.4993C127.414 16.5164 126.837 17.1524 126.779 17.4415Z" fill="black"/>
<rect width="63.1488" height="46.9587" fill="black" fill-opacity="0" transform="translate(151.913 2.724)"/>
<path d="M180.817 5.53091C179.431 6.62947 176.544 8.01712 173.831 9.11567C170.771 10.3877 168.058 11.1971 168.058 11.1971C167.711 11.255 165.633 12.1222 165.749 11.8331C166.037 11.255 171.695 4.83709 172.33 3.96981C173.023 3.16035 172.041 2.75562 172.041 2.75562C171.868 2.58216 171.522 3.16035 171.579 3.56508C171.637 3.96981 169.963 5.41528 169.559 5.87783C169.155 6.34038 167.885 7.72802 166.268 9.40476C164.767 10.9659 163.266 12.4692 163.035 12.7004C162.573 13.1052 160.091 13.5677 157.551 14.2037C155.241 14.7819 153.394 15.3601 152.874 15.5335C151.662 15.9383 151.085 18.0197 154.318 18.7714C155.761 19.1183 157.32 18.7136 158.821 17.8463C161.015 16.5165 162.977 14.4928 163.324 14.1459C163.901 13.5099 172.503 10.619 173.081 10.3877C173.658 10.1564 175.159 9.57822 175.043 9.86731C174.928 10.1564 171.81 13.163 171.233 14.0881C170.656 15.0132 170.829 16.8634 172.33 16.7477C173.023 16.6899 174.639 14.8397 176.198 12.8161C178.161 10.3299 180.008 7.49675 180.182 7.32329C180.412 6.97638 181.048 6.51383 181.336 6.39819C181.625 6.28256 181.856 5.76219 181.856 5.76219C181.798 5.53091 181.394 5.06837 180.817 5.53091ZM156.107 17.8463C154.491 18.251 153.856 17.9619 153.683 17.4994C153.509 17.0368 153.798 16.4586 154.202 16.2274C155.357 15.5335 161.303 14.3772 161.072 14.435C161.419 14.435 159.514 17.0368 156.107 17.8463Z" fill="black"/>
<path d="M179.604 14.1459C179.604 14.1459 177.642 16.6321 177.815 17.0946C178.103 17.7306 178.623 18.1354 179.143 17.9619C179.662 17.7884 179.662 16.7477 179.835 16.4008C180.009 16.1117 180.701 14.8975 180.644 14.5506C180.644 14.2615 179.893 13.9146 179.604 14.1459Z" fill="black"/>
<path d="M214.763 15.071C214.475 14.8975 213.089 15.3023 212.627 15.3601C212.223 15.4179 211.992 15.9383 212.569 15.8805C213.782 15.707 214.359 15.9383 213.897 16.6321C213.435 17.2681 211.761 17.8463 210.722 18.0198C209.74 18.1354 209.567 16.6321 210.26 16.1696C210.953 15.707 211.819 14.3194 211.53 13.9146C211.357 13.6255 210.433 13.6834 210.376 14.3772C210.318 15.0132 209.163 15.707 208.355 16.1117C207.604 16.5165 204.487 18.0776 202.524 19.0027C200.503 19.9278 193.691 24.2064 193.171 24.5533C192.479 25.0158 190.285 26.5191 190.112 26.3456C189.765 25.9987 192.825 20.0434 193.98 18.1354C195.134 16.2274 198.079 15.7648 199.06 15.1866C199.695 14.8397 203.39 12.6426 200.85 11.7175C198.31 10.7924 195.134 13.3943 194.788 13.7412C194.557 13.9724 192.536 16.6321 190.343 17.3837C188.033 18.1354 186.244 18.3667 185.089 18.3667C182.895 18.3667 182.549 17.0368 182.549 17.0368C182.491 16.8634 181.856 16.8056 181.683 16.9212C181.51 17.0368 181.163 17.0368 182.491 18.3088C183.934 19.7543 187.514 18.4823 188.206 18.4245C188.437 18.4245 190.169 17.9041 190.112 18.5401C190.054 19.5809 186.359 27.2129 185.378 29.2366C184.858 30.2773 183.299 31.4915 181.856 32.5901C180.528 33.573 179.316 34.4403 178.854 34.845C178.277 35.3075 170.54 40.9738 169.039 43.5756C167.596 46.2353 167.885 49.3575 170.54 49.6466C173.6 49.9935 176.14 47.7964 179.316 45.1367C184.8 40.5112 188.264 29.41 189.015 28.4849C189.765 27.5598 199.291 21.2576 200.677 20.5638C202.004 19.8121 208.817 16.5165 208.817 16.5165C208.817 16.5165 208.759 17.2681 209.048 18.4245C209.394 19.5809 211.53 18.9449 213.551 17.9041C215.629 16.9212 215.052 15.2445 214.763 15.071ZM200.272 12.4692C201.081 12.7004 200.561 13.2786 200.272 13.6255C199.695 14.3194 197.617 15.707 195.885 15.707C195.885 15.707 197.732 11.6597 200.272 12.4692ZM180.182 40.6847C177.584 44.3851 172.907 48.6636 171.118 48.7793C169.848 48.8949 169.097 47.912 169.213 46.4087C169.213 46.4087 169.155 44.9632 171.291 42.4192C173.427 39.8174 177.237 36.6374 178.854 35.481C179.662 34.9028 181.048 33.8621 182.202 32.8791C183.761 31.6071 185.089 30.5086 185.089 30.5086C185.089 30.5086 182.837 36.8686 180.182 40.6847Z" fill="black"/>
</svg>
