<svg width="396" height="52" viewBox="0 0 396 52" fill="none" xmlns="http://www.w3.org/2000/svg">
<path d="M0 7.3H2.1H4.2V9C5 7.6 6.3 7 8 7C9.5 7 10.5 7.4 11.3 8.2C11.6 8.5 11.8 8.9 12 9.3C12.1 9.1 12.2 8.9 12.4 8.7C13.2 7.5 14.4 7 16 7C17.4 7 18.5 7.4 19.2 8.2C19.9 9 20.3 10.3 20.3 12V24.1H18.1H15.9V12.3C15.9 11.5 15.8 11 15.5 10.6C15.2 10.2 14.8 10 14.3 10C13.7 10 13.2 10.2 12.8 10.7C12.5 11.2 12.3 11.9 12.3 12.8V24.1H10.1H7.9V12.4C7.9 11.6 7.8 11 7.5 10.6C7.2 10.2 6.9 10 6.4 10C5.6 10 5.1 10.3 4.8 10.9C4.5 11.5 4.4 12.5 4.4 13.9V24.2H2.2H0V7.3Z" fill="#845E40"/>
<path d="M27.1 24.5C25.8 24.5 24.8 24.1 24.1 23.3C23.4 22.5 23 21.4 23 20V19C23 17 23.5 15.6 24.5 14.8C25.5 14 27.2 13.6 29.6 13.6H31V11.5C31 10.9 30.9 10.4 30.6 10.1C30.4 9.8 30 9.6 29.5 9.6C28.9 9.6 28.5 9.8 28.2 10.1C27.9 10.4 27.8 11 27.8 11.6V12.1H23.4V11.6C23.4 10 23.8 8.8 24.8 8C25.8 7.2 27.3 7 29.4 7C31.4 7 32.9 7.4 33.9 8.3C34.9 9.1 35.4 10.4 35.4 12.2V24.2H31.1V22.8L30.9 23C30 24 28.8 24.5 27.1 24.5ZM30.9 16.2H30.3C29.3 16.2 28.5 16.4 28.1 16.9C27.7 17.3 27.5 18.1 27.5 19.2V20.2C27.5 20.7 27.6 21.1 27.9 21.4C28.2 21.7 28.5 21.8 29 21.8C29.6 21.8 30.1 21.5 30.4 21C30.7 20.4 30.9 19.6 30.9 18.5V16.2Z" fill="#845E40"/>
<path d="M39.2 0.199951H43.6V4.19995H39.2V0.199951ZM39.2 7.29995H41.4H43.6V24.1H41.4H39.2V7.29995Z" fill="#845E40"/>
<path d="M54 12.4V11.9C54 11.1 53.9 10.6 53.7 10.2C53.5 9.80002 53.1 9.60002 52.6 9.60002C52.1 9.60002 51.7 9.70002 51.5 10C51.3 10.3 51.1 10.7 51.1 11.2C51.1 11.7 51.3 12.2 51.6 12.5C51.9 12.9 52.5 13.2 53.4 13.6C55.5 14.5 56.9 15.4 57.6 16.1C58.3 16.8 58.6 17.9 58.6 19.2C58.6 20.9 58.1 22.2 57.1 23.1C56.1 24 54.6 24.4 52.6 24.4C50.4 24.4 48.9 24 47.9 23.1C47 22.3 46.5 21 46.5 19.2V19V18.5H51V19C51 20 51.1 20.7 51.3 21.1C51.5 21.5 52 21.7 52.7 21.7C53.3 21.7 53.7 21.5 54 21.2C54.3 20.9 54.4 20.4 54.4 19.7C54.4 19.1 54.2 18.6 53.8 18.2C53.4 17.8 52.8 17.4 51.9 17C49.8 16.1 48.4 15.3 47.7 14.6C47 13.9 46.7 12.9 46.7 11.7C46.7 10.1 47.2 8.90002 48.2 8.10002C49.2 7.30002 50.6 6.90002 52.6 6.90002C54.7 6.90002 56.1 7.30002 57.1 8.10002C58 8.90002 58.5 10.1 58.5 11.7V11.8V12.3H54V12.4Z" fill="#845E40"/>
<path d="M62.8 23C61.8 22 61.4 20.4 61.4 18.1V13.4C61.4 11.1 61.9 9.5 62.8 8.5C63.8 7.5 65.3 7 67.5 7C69.7 7 71.2 7.5 72.2 8.5C73.2 9.5 73.7 11.1 73.7 13.4V18.1C73.7 20.4 73.2 22 72.2 23C71.2 24 69.7 24.5 67.5 24.5C65.4 24.5 63.8 24 62.8 23ZM69 21C69.2 20.5 69.4 19.4 69.4 17.7V13C69.4 11.8 69.3 10.9 69 10.4C68.7 9.9 68.3 9.6 67.6 9.6C66.9 9.6 66.5 9.9 66.2 10.4C65.9 10.9 65.8 11.8 65.8 13V17.7C65.8 19.4 65.9 20.5 66.1 21C66.3 21.5 66.8 21.8 67.5 21.8C68.2 21.8 68.7 21.6 69 21Z" fill="#845E40"/>
<path d="M77.2 7.3H79.4H81.6V8.9C82.6 7.6 84 7 85.8 7C87 7 88 7.3 88.6 8.1C89.2 8.8 89.5 9.9 89.5 11.4V24.1H87.3H85.1V11.9C85.1 11.2 85 10.7 84.7 10.4C84.5 10.1 84.1 9.9 83.5 9.9C82.8 9.9 82.2 10.2 82 10.8C81.7 11.4 81.6 12.4 81.6 13.8V24.1H79.4H77.2V7.3Z" fill="#845E40"/>
<path d="M105 24.5C103.5 24.5 102.4 24 101.7 23.1C101 22.2 100.7 20.7 100.7 18.6V12.7C100.7 10.8 101.1 9.4 101.8 8.5C102.5 7.6 103.6 7.1 105 7.1C106.2 7.1 107.4 7.6 108.6 8.7V0H110.8H113V24.1H111H108.9V22.3L108.7 22.6C107.9 23.8 106.7 24.5 105 24.5ZM106.9 10C106.2 10 105.8 10.2 105.5 10.7C105.3 11.2 105.1 12 105.1 13.3V18.2C105.1 19.4 105.2 20.2 105.5 20.7C105.8 21.2 106.2 21.5 106.8 21.5C107.5 21.5 108 21.2 108.2 20.6C108.4 20 108.5 18.8 108.5 16.9V14.6C108.5 12.7 108.4 11.5 108.2 10.9C108.1 10.3 107.6 10 106.9 10Z" fill="#845E40"/>
<path d="M121.7 24.5C119.6 24.5 118.2 24 117.3 23C116.4 22 115.9 20.3 115.9 18V14.7C115.9 11.9 116.4 9.89998 117.3 8.79998C118.2 7.69998 119.8 7.09998 122.1 7.09998C124.5 7.09998 126.1 7.59998 127 8.59998C127.9 9.59998 128.3 11.5 128.3 14.2V16.6H120.3V17C120.3 18.9 120.4 20.2 120.7 20.9C120.9 21.5 121.4 21.8 122.1 21.8C122.8 21.8 123.3 21.6 123.6 21.1C123.9 20.6 124 19.9 123.9 18.9V18.4H128.3V18.9C128.3 20.8 127.8 22.1 126.7 23.1C125.6 24 124 24.5 121.7 24.5ZM123.9 13.9V13C123.9 11.7 123.8 10.8 123.5 10.3C123.2 9.79998 122.8 9.59998 122.1 9.59998C121.4 9.59998 120.9 9.89998 120.7 10.5C120.4 11.1 120.3 12.1 120.3 13.7V13.9H123.9Z" fill="#845E40"/>
<path d="M138.2 7.30005H140.4H142.7L145 19.8L147.4 7.30005H149.6H151.8L147.9 24.1H145H142.1L138.2 7.30005Z" fill="#845E40"/>
<path d="M154.7 0.199951H159.1V4.19995H154.7V0.199951ZM154.7 7.29995H156.9H159.1V24.1H156.9H154.7V7.29995Z" fill="#845E40"/>
<path d="M174 17.8V18.8C174 20.7 173.6 22.1 172.6 23C171.6 23.9 170.2 24.4 168.2 24.4C166.1 24.4 164.7 23.9 163.8 22.9C162.9 21.9 162.4 20.3 162.4 18V13.3C162.4 11 162.9 9.40002 163.8 8.40002C164.7 7.40002 166.2 6.90002 168.2 6.90002C170.2 6.90002 171.7 7.40002 172.6 8.30002C173.5 9.20002 174 10.6 174 12.6V12.8V13.3H169.6V12.8C169.6 11.8 169.6 11.1 169.3 10.6C169.1 10.1 168.7 9.90002 168.2 9.90002C167.7 9.90002 167.3 10.1 167.1 10.6C166.9 11 166.8 11.9 166.8 13V17.7C166.8 19.2 166.9 20.3 167.1 20.7C167.3 21.2 167.7 21.4 168.2 21.4C168.7 21.4 169.1 21.2 169.3 20.8C169.5 20.4 169.6 19.7 169.6 18.7V17.7H174V17.8Z" fill="#845E40"/>
<path d="M185.5 24.3C184.6 24.4 183.6 24.5 182.5 24.5C181.1 24.5 180 24.1 179.3 23.3C178.6 22.5 178.2 21.2001 178.2 19.6V10.4H176V7.40005H178.4V4.60005L182.8 2.80005V7.30005H185.6V10.3H182.8V19.5C182.8 20.3 182.9 20.8001 183.1 21.1C183.3 21.4 183.6 21.5 184.2 21.5C184.7 21.5 185.2 21.4 185.6 21.4V24.3H185.5Z" fill="#845E40"/>
<path d="M189.3 23C188.3 22 187.9 20.4 187.9 18.1V13.4C187.9 11.1 188.4 9.5 189.3 8.5C190.3 7.5 191.8 7 194 7C196.2 7 197.7 7.5 198.7 8.5C199.7 9.5 200.2 11.1 200.2 13.4V18.1C200.2 20.4 199.7 22 198.7 23C197.7 24 196.2 24.5 194 24.5C191.8 24.5 190.3 24 189.3 23ZM195.4 21C195.6 20.5 195.8 19.4 195.8 17.7V13C195.8 11.8 195.7 10.9 195.4 10.4C195.1 9.9 194.7 9.6 194 9.6C193.3 9.6 192.9 9.9 192.6 10.4C192.3 10.9 192.2 11.8 192.2 13V17.7C192.2 19.4 192.3 20.5 192.5 21C192.7 21.5 193.2 21.8 193.9 21.8C194.6 21.8 195.2 21.6 195.4 21Z" fill="#845E40"/>
<path d="M203.7 7.3H205.8H207.9V9.5C208.1 9.2 208.2 8.9 208.4 8.7C209.2 7.7 210.5 7.1 212.4 7V10.8C212.1 10.7 211.8 10.7 211.4 10.7C210.1 10.7 209.2 11 208.7 11.6C208.2 12.2 208 13.3 208 14.8V24H206H203.8V7.3H203.7Z" fill="#845E40"/>
<path d="M223.1 0H225.3H227.5V8.8C228.5 7.6 229.8 7 231.6 7C232.7 7 233.7 7.4 234.4 8.2C235.1 9 235.5 10.1 235.5 11.4V24.1H233.3H231V11.9C231 11.2 230.9 10.7 230.6 10.4C230.4 10.1 230 9.9 229.4 9.9C228.7 9.9 228.2 10.2 227.9 10.8C227.6 11.4 227.5 12.4 227.5 13.7V24H225.3H223.1V0Z" fill="#845E40"/>
<path d="M243.5 19.1C243.5 19.9 243.6 20.6 243.9 20.9C244.2 21.3 244.6 21.5 245.1 21.5C245.9 21.5 246.4 21.2 246.7 20.6C247 20 247.1 19 247.1 17.6V7.30005H249.3H251.5V24.1H249.4H247.3V22.4C246.1 23.7 244.8 24.4 243.2 24.4C241.8 24.4 240.8 24 240.1 23.2C239.4 22.4 239.1 21.2 239.1 19.6V7.30005H241.3H243.5V19.1Z" fill="#845E40"/>
<path d="M261 28.2C261.6 28.2 262 28 262.3 27.6C262.5 27.2 262.7 26.4 262.7 25.4V22.2L262.5 22.4C261.7 23.5 260.5 24.1 259 24.1C257.5 24.1 256.5 23.6 255.9 22.7C255.3 21.8 255 20.2 255 18V13.4C255 11.2 255.3 9.6 256 8.6C256.7 7.5 257.7 7 259.1 7C260.5 7 261.8 7.6 262.7 8.8L262.8 9V7.3H267.2V25.3C267.2 27.1 266.7 28.4 265.7 29.3C264.7 30.2 263.1 30.6 261.1 30.6C258.9 30.6 257.4 30.2 256.5 29.5C255.6 28.8 255.1 27.6 255.1 25.9V25.4H259.5V25.9C259.5 26.6 259.6 27.1 259.8 27.5C260.1 28 260.4 28.2 261 28.2ZM261 10C260.5 10 260 10.2 259.8 10.7C259.6 11.2 259.4 11.9 259.4 12.9V17.5C259.4 19 259.5 19.9 259.7 20.4C259.9 20.9 260.3 21.1 261 21.1C261.7 21.1 262.1 20.9 262.3 20.4C262.5 19.9 262.6 18.9 262.6 17.4V13.6C262.6 12.1 262.5 11.1 262.3 10.6C262.1 10.1 261.7 10 261 10Z" fill="#845E40"/>
<path d="M271.9 23C270.9 22 270.5 20.4 270.5 18.1V13.4C270.5 11.1 271 9.5 271.9 8.5C272.9 7.5 274.4 7 276.6 7C278.8 7 280.3 7.5 281.3 8.5C282.3 9.5 282.8 11.1 282.8 13.4V18.1C282.8 20.4 282.3 22 281.3 23C280.3 24 278.8 24.5 276.6 24.5C274.4 24.5 272.9 24 271.9 23ZM278 21C278.2 20.5 278.3 19.4 278.3 17.7V13C278.3 11.8 278.2 10.9 277.9 10.4C277.6 9.9 277.2 9.6 276.5 9.6C275.9 9.6 275.4 9.9 275.1 10.4C274.8 10.9 274.7 11.8 274.7 13V17.7C274.7 19.4 274.8 20.5 275 21C275.2 21.5 275.7 21.8 276.4 21.8C277.3 21.8 277.8 21.6 278 21Z" fill="#845E40"/>
<path d="M297 7.30005H299.2H301.5L303.8 19.8L306.2 7.30005H308.4H310.6L306.7 24.1H303.8H300.9L297 7.30005Z" fill="#6B6966"/>
<path d="M313.5 0.199951H317.9V4.19995H313.5V0.199951ZM313.5 7.29995H315.7H317.9V24.1H315.7H313.5V7.29995Z" fill="#6B6966"/>
<path d="M325.3 24.5C324 24.5 323 24.1 322.3 23.3C321.6 22.5 321.2 21.4 321.2 20V19C321.2 17 321.7 15.6 322.7 14.8C323.7 14 325.4 13.6 327.8 13.6H329.2V11.5C329.2 10.9 329.1 10.4 328.8 10.1C328.6 9.8 328.2 9.6 327.7 9.6C327.1 9.6 326.7 9.8 326.4 10.1C326.1 10.4 326 11 326 11.6V12.1H321.6V11.6C321.6 10 322 8.8 323 8C324 7.2 325.5 7 327.6 7C329.6 7 331.1 7.4 332.1 8.3C333.1 9.1 333.6 10.4 333.6 12.2V24.2H329.3V22.8L329.1 23C328.2 24 326.9 24.5 325.3 24.5ZM329.1 16.2H328.5C327.5 16.2 326.7 16.4 326.3 16.9C325.9 17.3 325.6 18.1 325.6 19.2V20.2C325.6 20.7 325.7 21.1 326 21.4C326.3 21.7 326.7 21.8 327.1 21.8C327.7 21.8 328.2 21.5 328.5 21C328.8 20.4 329 19.6 329 18.5V16.2H329.1Z" fill="#6B6966"/>
<path d="M337.3 7.3H339.5H341.7V8.9C342.7 7.6 344 7 345.8 7C347.1 7 348 7.4 348.6 8.1C349.2 8.8 349.5 9.9 349.5 11.4V24.1H347.3H345.1V11.9C345.1 11.2 345 10.7 344.7 10.4C344.5 10.1 344.1 9.9 343.5 9.9C342.8 9.9 342.2 10.2 342 10.8C341.7 11.4 341.6 12.4 341.6 13.8V24.1H339.5H337.3V7.3Z" fill="#6B6966"/>
<path d="M357.4 24.5C355.9 24.5 354.8 24 354.1 23.1C353.4 22.2 353.1 20.7 353.1 18.6V12.7C353.1 10.8 353.5 9.4 354.2 8.5C354.9 7.6 356 7.1 357.4 7.1C358.6 7.1 359.8 7.6 361 8.7V0H363.2H365.4V24.1H363.3H361.2V22.3L361 22.6C360.3 23.8 359 24.5 357.4 24.5ZM359.3 10C358.6 10 358.2 10.2 357.9 10.7C357.7 11.2 357.5 12 357.5 13.3V18.2C357.5 19.4 357.6 20.2 357.9 20.7C358.2 21.2 358.6 21.5 359.2 21.5C359.9 21.5 360.4 21.2 360.6 20.6C360.8 20 360.9 18.8 360.9 16.9V14.6C360.9 12.7 360.8 11.5 360.6 10.9C360.5 10.3 360 10 359.3 10Z" fill="#6B6966"/>
<path d="M374.1 24.5C372 24.5 370.6 24 369.7 23C368.8 22 368.3 20.3 368.3 18V14.7C368.3 11.9 368.8 9.89998 369.7 8.79998C370.6 7.69998 372.2 7.09998 374.5 7.09998C376.9 7.09998 378.5 7.59998 379.4 8.59998C380.3 9.59998 380.7 11.5 380.7 14.2V16.6H372.7V17C372.7 18.9 372.8 20.2 373.1 20.9C373.3 21.5 373.8 21.8 374.5 21.8C375.2 21.8 375.7 21.6 376 21.1C376.3 20.6 376.4 19.9 376.3 18.9V18.4H380.7V18.9C380.7 20.8 380.2 22.1 379.1 23.1C378 24 376.3 24.5 374.1 24.5ZM376.3 13.9V13C376.3 11.7 376.2 10.8 375.9 10.3C375.7 9.79998 375.2 9.59998 374.5 9.59998C373.8 9.59998 373.3 9.89998 373.1 10.5C372.8 11.1 372.7 12.1 372.7 13.7V13.9H376.3Z" fill="#6B6966"/>
<path d="M383.8 7.3H386H388.2V8.9C389.2 7.6 390.5 7 392.3 7C393.6 7 394.5 7.4 395.1 8.1C395.7 8.8 396 9.9 396 11.4V24.1H393.8H391.6V11.9C391.6 11.2 391.5 10.7 391.2 10.4C391 10.1 390.6 9.9 390 9.9C389.3 9.9 388.7 10.2 388.5 10.8C388.2 11.4 388.1 12.4 388.1 13.8V24.1H385.9H383.7V7.3H383.8Z" fill="#6B6966"/>
<path d="M126 50.7L128.1 40.7L131.6 48L135.2 40.7L137.1 50.8H135.6L134.6 45.1L131.6 51.2L128.7 45.1L127.6 50.8H126V50.7Z" fill="black"/>
<path d="M144 41.4V47C144 47.8 144.1 48.4 144.4 48.8C144.8 49.3 145.4 49.6 146.2 49.6C147 49.6 147.6 49.3 148 48.8C148.3 48.4 148.4 47.9 148.4 47V41.4H150V47.4C150 48.4 149.7 49.2 149 49.8C148.3 50.5 147.3 50.9 146.2 50.9C145.1 50.9 144.2 50.5 143.5 49.8C142.8 49.2 142.5 48.3 142.5 47.4V41.4H144Z" fill="black"/>
<path d="M161.4 42.8L160.2 43.5C160 43.1 159.7 42.9 159.5 42.8C159.3 42.7 159 42.6 158.7 42.6C158.3 42.6 157.9 42.7 157.6 42.9C157.3 43.1 157.2 43.4 157.2 43.7C157.2 44.2 157.6 44.5 158.3 44.8L159.3 45.2C160.1 45.5 160.7 45.9 161.1 46.3C161.5 46.7 161.7 47.3 161.7 47.9C161.7 48.8 161.4 49.5 160.8 50C160.2 50.6 159.4 50.8 158.5 50.8C157.6 50.8 156.9 50.6 156.3 50.1C155.7 49.6 155.4 48.9 155.2 48.1L156.7 47.8C156.8 48.4 156.9 48.7 157.1 48.9C157.4 49.3 157.9 49.5 158.5 49.5C159 49.5 159.4 49.4 159.7 49.1C160 48.8 160.2 48.4 160.2 48C160.2 47.8 160.2 47.7 160.1 47.5C160 47.3 160 47.2 159.8 47.1C159.7 47 159.5 46.9 159.4 46.7C159.2 46.6 159 46.5 158.7 46.4L157.7 46C156.3 45.5 155.6 44.7 155.6 43.6C155.6 42.9 155.9 42.3 156.5 41.8C157.1 41.3 157.8 41.1 158.7 41.1C159.8 41.2 160.7 41.7 161.4 42.8Z" fill="black"/>
<path d="M172.3 42.7H168.2V45H172.1V46.3H168.2V49.4H172.3V50.7H166.7V41.4H172.3V42.7ZM171.8 38.8L169.1 40.5L168.4 40L170.5 38L171.8 38.8Z" fill="black"/>
<path d="M183.1 42.7H179V45H183V46.3H179V49.4H183.1V50.7H177.5V41.4H183.1V42.7Z" fill="black"/>
<path d="M197.2 41.4V49.4H200.2V50.7H195.7V41.4H197.2Z" fill="black"/>
<path d="M206.4 41.4V50.8H204.9V41.4H206.4Z" fill="black"/>
<path d="M214.9 42.7V50.7H213.4V42.7H211V41.4H217.2V42.7H214.9Z" fill="black"/>
<path d="M224.6 42.7V50.7H223V42.7H220.7V41.4H226.9V42.7H224.6Z" fill="black"/>
<path d="M237.1 42.7H233V45H236.9V46.3H233V49.4H237.1V50.7H231.5V41.4H237.1V42.7ZM236.6 38.8L233.9 40.5L233.2 40L235.3 38L236.6 38.8Z" fill="black"/>
<path d="M245.7 46.7L248.8 50.7H247L244.1 46.9H243.8V50.7H242.3V41.4H244.1C245.4 41.4 246.4 41.6 247 42.1C247.7 42.6 248 43.3 248 44.2C248 44.9 247.8 45.4 247.4 45.9C247 46.4 246.4 46.6 245.7 46.7ZM243.8 45.7H244.3C245.7 45.7 246.5 45.2 246.5 44.2C246.5 43.2 245.8 42.8 244.4 42.8H243.9V45.7H243.8Z" fill="black"/>
<path d="M259.6 48.5H255.3L254.2 50.8H252.6L257.6 40.8L262.4 50.8H260.7L259.6 48.5ZM258.9 47.1L257.4 43.9L255.8 47.1H258.9Z" fill="black"/>
<path d="M268.3 41.4V50.8H266.8V41.4H268.3Z" fill="black"/>
<path d="M277.4 46.7L280.5 50.7H278.6L275.7 46.9H275.4V50.7H274V41.4H275.8C277.1 41.4 278.1 41.6 278.7 42.1C279.4 42.6 279.7 43.3 279.7 44.2C279.7 44.9 279.5 45.4 279.1 45.9C278.7 46.4 278.1 46.6 277.4 46.7ZM275.5 45.7H276C277.4 45.7 278.2 45.2 278.2 44.2C278.2 43.2 277.5 42.8 276.1 42.8H275.6V45.7H275.5Z" fill="black"/>
<path d="M290.9 42.7H286.8V45H290.7V46.3H286.8V49.4H290.9V50.7H285.3V41.4H290.9V42.7Z" fill="black"/>
</svg>
