<svg width="128pt" height="128pt" viewBox="0 0 128 128" xmlns="http://www.w3.org/2000/svg"><path d="M0 36.39c21.93-5.96 44.12-11.04 66.14-16.7 1.86-.59 3.84-.85 5.7-.12 18.7 5.16 37.53 9.88 56.16 15.26v2.52c-19.68 5.64-39.32 11.39-58.97 17.12-1.97.54-4.06.24-5.99-.3C42.05 48.43 20.98 42.94.01 37.11l-.01.97v-1.69zM8.89 57c.49-2.71.8-5.81 3.18-7.61 1.16.63 2.14 1.64 2.34 3 1.02 17.51 2.33 35.01 3.37 52.53-1.29 4.13-6.79 6.03-10.4 3.58-1.48-1.12-4.33-1.96-3.83-4.3C5.13 88.45 6.45 72.65 8.89 57zm18.02-.28c.5-.13 1.5-.4 2.01-.53 9.98 2.76 19.9 5.82 29.83 8.78 3.27 1.37 6.85 1.66 10.34 1.19 11.98-3.13 23.98-6.16 35.96-9.29 1.42-.57 2.69.24 3.8 1.03.06 7.31.15 14.64-.03 21.95-.21.3-.63.91-.84 1.22-10.56 5.16-22.38 7.24-34.02 7.91-15.31 1.62-30.59-2.09-44.89-7.29-3.6-1.31-2.5-5.71-2.64-8.66.28-5.42-.59-10.97.48-16.31z" fill="#fff"/></svg>