<svg width="128pt" height="128pt" viewBox="0 0 128 128" xmlns="http://www.w3.org/2000/svg"><g fill="#fff"><path d="M30.94 10.01C43.93 1.97 59.89-1 74.92 1.64c14.39 2.41 27.76 10.07 37.27 21.11 10.09 11.56 15.77 26.92 15.4 42.28.09 18.06-8.35 35.81-22.04 47.52-10.56 9.25-24.27 14.48-38.22 15.45h-6.39c-21.29-1.1-41.57-13.39-52.08-31.97C-.51 79.92-2.17 59.61 4.4 42.17c4.9-13.29 14.42-24.82 26.54-32.16m23.62-4.34C37.9 8.31 22.63 18.45 13.74 32.78 4.72 46.91 2.29 64.98 7.05 81.03c4.46 15.48 15.56 28.88 29.92 36.16 14.43 7.5 32.01 8.53 47.29 3 12.27-4.42 22.98-13.03 29.95-24.06 8.45-13.23 11.38-29.9 7.71-45.19-3.37-14.82-12.72-28.15-25.49-36.39-12.2-8.06-27.46-11.2-41.87-8.88z"/><path d="M28.67 48.93c12.08-3.28 24.29-6.11 36.43-9.2 2.04-.76 4.06.31 6.05.74 9.24 2.63 18.61 4.8 27.79 7.63l.03 1.05c-10.4 3.29-20.97 6.11-31.43 9.26-2.84 1.02-5.69-.42-8.45-1.05-10.11-2.89-20.42-5.18-30.42-8.43zm6.54 6.76c2.41 1.17 1.57 4.14 1.94 6.31.33 8.28 1.36 16.54 1.39 24.83-1.76 2.83-6.28 2.12-7.56-.66.44-6.43 1.19-12.82 1.9-19.22.54-3.79.7-7.73 2.33-11.26zm8.36 16.73c-.15-4.19-.64-8.61.28-12.71 6.8.95 13.22 3.95 19.95 5.39 8.36-.25 16.16-4.8 24.51-4.89-.12 4.26.34 8.57-.24 12.79-12.12 5.61-26.48 6-39.13 1.9-1.82-.69-4.09-.85-5.37-2.48z"/></g></svg>