<?xml version="1.0" encoding="UTF-8" ?>
<!DOCTYPE svg PUBLIC "-//W3C//DTD SVG 1.1//EN" "http://www.w3.org/Graphics/SVG/1.1/DTD/svg11.dtd">
<svg width="128pt" height="128pt" viewBox="0 0 128 128" version="1.1" xmlns="http://www.w3.org/2000/svg">
<g id="#ffffffff">
<path fill="#ffffff" opacity="1.00" d=" M 30.94 10.01 C 43.93 1.97 59.89 -1.00 74.92 1.64 C 89.31 4.05 102.68 11.71 112.19 22.75 C 122.28 34.31 127.96 49.67 127.59 65.03 C 127.68 83.09 119.24 100.84 105.55 112.55 C 94.99 121.80 81.28 127.03 67.33 128.00 L 60.94 128.00 C 39.65 126.90 19.37 114.61 8.86 96.03 C -0.51 79.92 -2.17 59.61 4.40 42.17 C 9.30 28.88 18.82 17.35 30.94 10.01 M 54.56 5.67 C 37.90 8.31 22.63 18.45 13.74 32.78 C 4.72 46.91 2.29 64.98 7.05 81.03 C 11.51 96.51 22.61 109.91 36.97 117.19 C 51.40 124.69 68.98 125.72 84.26 120.19 C 96.53 115.77 107.24 107.16 114.21 96.13 C 122.66 82.90 125.59 66.23 121.92 50.94 C 118.55 36.12 109.20 22.79 96.43 14.55 C 84.23 6.49 68.97 3.35 54.56 5.67 Z" />
<path fill="#ffffff" opacity="1.00" d=" M 28.67 48.93 C 40.75 45.65 52.96 42.82 65.10 39.73 C 67.14 38.97 69.16 40.04 71.15 40.47 C 80.39 43.10 89.76 45.27 98.94 48.10 L 98.97 49.15 C 88.57 52.44 78.00 55.26 67.54 58.41 C 64.70 59.43 61.85 57.99 59.09 57.36 C 48.98 54.47 38.67 52.18 28.67 48.93 Z" />
<path fill="#ffffff" opacity="1.00" d=" M 35.21 55.69 C 37.62 56.86 36.78 59.83 37.15 62.00 C 37.48 70.28 38.51 78.54 38.54 86.83 C 36.78 89.66 32.26 88.95 30.98 86.17 C 31.42 79.74 32.17 73.35 32.88 66.95 C 33.42 63.16 33.58 59.22 35.21 55.69 Z" />
<path fill="#ffffff" opacity="1.00" d=" M 43.57 72.42 C 43.42 68.23 42.93 63.81 43.85 59.71 C 50.65 60.66 57.07 63.66 63.80 65.10 C 72.16 64.85 79.96 60.30 88.31 60.21 C 88.19 64.47 88.65 68.78 88.07 73.00 C 75.95 78.61 61.59 79.00 48.94 74.90 C 47.12 74.21 44.85 74.05 43.57 72.42 Z" />
</g>
</svg>
