<svg width="128pt" height="128pt" viewBox="0 0 128 128" xmlns="http://www.w3.org/2000/svg"><g fill="#fff"><path d="M103.62 14.99c2.88-3.49 5.78-6.97 8.56-10.54 6.46.48 13.54 3.37 15.82 9.96v5.17c-2.45 3.03-4.92 6.05-7.32 9.12-3.37-.14-6.88-.69-9.67-2.71-3.74-2.61-5.96-6.78-7.39-11zM0 15.61c27.35-.07 54.71.03 82.06-.17 1.74 3.92 3.57 7.8 5.44 11.66-1.32 1.64-2.66 3.26-4.01 4.88-1.69-3.49-3.27-7.03-4.82-10.59-23.36.01-46.72.2-70.08.17 7.37 30.47 14.79 60.93 22.17 91.4 27.56-5.14 55.17-10.01 82.72-15.23-5.25-11.2-10.33-22.49-15.43-33.76 1.5-1.5 3-3 4.55-4.45 6.83 14.85 13.86 29.61 20.65 44.49-33.35 6.63-66.66 13.4-100.01 20.05C15.47 88.15 7.81 52.22 0 16.33v-.72z"/><path d="M97.89 21.87c.93-1.11 1.91-2.17 2.94-3.18 2.69 6.96 8.75 12.48 16.21 13.76-13.47 16.32-26.76 32.79-40.13 49.19-3.12.46-6.25.68-9.39.9-2.27-2.05-4.54-4.08-6.75-6.19.05-2.89-.14-5.77-.51-8.63C72.71 52.36 85.4 37.19 97.89 21.87zm-78.74 6.8c19.04-.29 38.08-1.04 57.12-1.53.01 1.1.03 3.29.03 4.39-19.04.38-38.08 1.03-57.12 1.6-.03-1.48-.04-2.97-.03-4.46zm5.98 20.11c15.56-.62 31.1-1.72 46.66-2.61-1.67 1.81-2.73 5.06-5.74 4.63-13.62.94-27.26 1.56-40.88 2.47-.02-1.5-.04-2.99-.04-4.49zm5.91 23.12c8.21-.83 16.42-1.66 24.62-2.63.19 1.42.4 2.85.6 4.27-8.25 1-16.56 1.59-24.79 2.77-.15-1.47-.29-2.94-.43-4.41zm24.4 11.2c1.17 3.4 4.38 5.22 7.37 6.82-3.1.89-6.15 1.97-9.22 2.94.49-3.27 1.06-6.54 1.85-9.76zM37.52 97.46c21.35-3.56 42.7-7.22 64.12-10.34.11 1.38.21 2.75.3 4.13-21.19 3.46-42.38 6.91-63.58 10.33-.29-1.37-.58-2.74-.84-4.12z"/></g></svg>