<svg width="128pt" height="128pt" viewBox="0 0 128 128" xmlns="http://www.w3.org/2000/svg"><g fill="#fff"><path d="M30.93 10.02C43.92 1.97 59.89-1 74.92 1.65c14.39 2.4 27.76 10.06 37.27 21.09 10.07 11.55 15.75 26.88 15.4 42.21.11 18.11-8.34 35.92-22.09 47.64-10.53 9.22-24.19 14.42-38.09 15.41h-6.55c-6.13-.61-12.29-1.53-18.09-3.72-17.29-6.01-31.6-19.96-38.1-37.07-5.36-13.79-5.63-29.49-.83-43.48 4.74-13.94 14.5-26.09 27.09-33.71m23.64-4.35C37.91 8.31 22.63 18.44 13.74 32.78 4.71 46.92 2.29 65 7.05 81.06c4.47 15.46 15.56 28.85 29.9 36.12 14.22 7.39 31.47 8.51 46.59 3.27 12.54-4.34 23.52-13.04 30.62-24.25 8.5-13.26 11.44-29.98 7.75-45.31-3.38-14.8-12.73-28.11-25.48-36.34-12.19-8.06-27.45-11.2-41.86-8.88z"/><path d="M85.43 37.14c1.61-1.9 3.18-3.82 4.74-5.76 4.18.25 9.04 2.94 8.87 7.7-1.24 1.95-2.84 3.63-4.18 5.5-4.64.47-8.3-3.24-9.43-7.44zm-56.49.36c14.92-.04 29.83.05 44.75-.11.99 2.16 1.98 4.32 3 6.47-.77.81-1.56 1.61-2.38 2.37-.81-1.86-1.63-3.71-2.45-5.57-12.72-.02-25.45.1-38.17.08 3.99 16.6 8.07 33.18 12.06 49.78 15.01-2.74 30.02-5.51 45.03-8.24-2.76-6.14-5.6-12.26-8.37-18.41.61-.62 1.81-1.88 2.41-2.5 3.81 8.07 7.56 16.17 11.32 24.26-18.16 3.65-36.31 7.32-54.47 10.94-4.25-19.69-8.5-39.38-12.73-59.07z"/><path d="M83.67 39.16c1.86 3.65 4.88 6.78 9.05 7.56-7.37 8.89-14.58 17.91-21.92 26.82-1.62.14-3.24.34-4.88.33-1.44-.77-2.5-2.1-3.73-3.16-.1-1.61-.23-3.21-.36-4.81 7.2-8.97 14.7-17.71 21.84-26.74zm-44.2 5.47c10.36-.18 20.71-.55 31.07-.86.01.6.01 1.81.02 2.41-10.42.13-20.82.72-31.23.73.03-.57.1-1.71.14-2.28zm3.18 11c8.52-.41 17.02-1.03 25.54-1.43-.56.58-1.66 1.74-2.21 2.32-7.72.77-15.5.91-23.25 1.5l-.08-2.39zm3.3 12.55c4.47-.5 8.96-.93 13.43-1.44l.2 2.35c-4.54.43-9.06.99-13.6 1.37-.01-.57-.02-1.71-.03-2.28zM58.27 80.8c.04-2.14.4-4.26.71-6.37 1.12 1.44 2.51 2.61 4.06 3.56-1.92.76-4.47.95-4.67 3.53l.94-.99c8.28-1.58 16.64-2.75 24.95-4.15l.43 2.23c-11.59 2.03-23.22 3.81-34.82 5.72-.1-.58-.28-1.74-.38-2.32 2.92-.45 5.82-1.04 8.78-1.21z"/></g></svg>