<svg width="32" height="32" viewBox="0 0 24 24" xmlns="http://www.w3.org/2000/svg"><path fill="#fff" opacity=".82" d="M5 0h14.01c-.01 8 0 16 0 24H5V0m1.71 2c0 4.38-.01 8.77.01 13.15 3.5.02 7 .15 10.48-.07.55-4.32.02-8.69.31-13.04-3.6-.04-7.2-.01-10.8-.04m.02 15.9c1.25.87 2 .66 2.24-.66-1.26-.82-2.01-.6-2.24.66m4.5-.75c.14 3.24 3.14-1.46 0 0m3.86.13c.32 1.29 1.09 1.48 2.32.58-.32-1.24-1.1-1.44-2.32-.58M6.59 20c.91 1.34 1.82 1.34 2.73-.01-.92-1.34-1.83-1.34-2.73.01m4.01 0c.92 1.34 1.82 1.34 2.73 0-.92-1.35-1.82-1.35-2.73 0m-3.83 2.18c.2 1.35.91 1.58 2.14.69-.2-1.33-.91-1.56-2.14-.69m4.46-.1c.17 3.3 3.09-1.52 0 0m3.93.08c.22 1.36.94 1.59 2.18.71-.22-1.31-.95-1.54-2.18-.71z"/></svg>