<?xml version="1.0" encoding="UTF-8" ?>
<!DOCTYPE svg PUBLIC "-//W3C//DTD SVG 1.1//EN" "http://www.w3.org/Graphics/SVG/1.1/DTD/svg11.dtd">
<svg width="128pt" height="128pt" viewBox="0 0 128 128" version="1.1" xmlns="http://www.w3.org/2000/svg">
<g id="#ffffffff">
<path fill="#ffffff" opacity="1.00" d=" M 30.99 9.98 C 44.26 1.78 60.62 -1.12 75.92 1.83 C 89.94 4.40 102.91 11.98 112.21 22.76 C 122.26 34.30 127.94 49.61 127.58 64.93 C 127.70 82.54 119.72 99.88 106.63 111.60 C 95.96 121.38 81.86 126.96 67.49 128.00 L 60.70 128.00 C 54.62 127.36 48.51 126.46 42.77 124.28 C 25.47 118.26 11.16 104.31 4.66 87.19 C -1.27 71.94 -0.95 54.37 5.52 39.35 C 10.68 27.23 19.72 16.79 30.99 9.98 M 54.59 5.66 C 37.92 8.30 22.64 18.43 13.75 32.77 C 4.71 46.92 2.28 65.00 7.06 81.07 C 11.52 96.52 22.60 109.89 36.94 117.17 C 50.94 124.46 67.91 125.66 82.86 120.68 C 95.93 116.35 107.35 107.28 114.56 95.56 C 122.75 82.41 125.54 65.99 121.91 50.91 C 118.49 35.87 108.89 22.38 95.85 14.17 C 83.75 6.39 68.76 3.40 54.59 5.66 Z" />
<path fill="#ffffff" opacity="1.00" d=" M 60.48 39.67 C 67.42 36.84 75.44 43.90 73.59 51.12 C 72.45 58.33 62.67 61.72 57.32 56.74 C 51.45 52.20 53.37 41.81 60.48 39.67 Z" />
<path fill="#ffffff" opacity="1.00" d=" M 39.14 47.27 C 44.76 44.56 51.57 50.68 49.44 56.54 C 48.09 61.80 40.80 63.74 36.94 59.99 C 32.82 56.53 34.11 49.16 39.14 47.27 Z" />
<path fill="#ffffff" opacity="1.00" d=" M 82.52 47.70 C 87.58 44.42 94.91 49.18 93.98 55.09 C 93.68 60.59 86.77 63.85 82.27 60.79 C 77.49 58.05 77.63 50.26 82.52 47.70 Z" />
<path fill="#ffffff" opacity="1.00" d=" M 46.65 72.08 C 46.86 66.11 52.07 60.82 58.04 60.50 C 61.67 60.42 65.30 60.42 68.93 60.50 C 74.89 60.81 80.09 66.05 80.33 72.01 C 80.46 77.63 80.34 83.26 80.38 88.88 C 69.12 88.89 57.86 88.87 46.60 88.89 C 46.60 83.29 46.46 77.68 46.65 72.08 Z" />
<path fill="#ffffff" opacity="1.00" d=" M 29.02 71.92 C 29.10 67.60 32.68 63.72 36.94 63.16 C 40.47 62.71 44.04 62.81 47.57 63.23 C 42.50 69.30 44.54 77.56 44.12 84.78 C 39.08 84.78 34.05 84.77 29.01 84.78 C 29.02 80.49 28.95 76.21 29.02 71.92 Z" />
<path fill="#ffffff" opacity="1.00" d=" M 79.65 63.41 C 83.43 62.77 87.31 62.69 91.12 63.16 C 95.37 63.74 98.99 67.64 98.99 71.98 C 99.04 76.24 98.98 80.51 98.99 84.78 C 93.62 84.77 88.25 84.79 82.88 84.77 C 82.49 77.60 84.43 69.57 79.65 63.41 Z" />
</g>
</svg>
