<svg width="128pt" height="128pt" viewBox="0 0 128 128" xmlns="http://www.w3.org/2000/svg"><g fill="#fff"><path d="M19.12 11.58c29.92-.03 59.84-.03 89.75 0 0 13.47.07 26.94-.03 40.41-9.48 7.44-18.85 15.03-28.23 22.59-5.68-4.2-11.05-8.78-16.59-13.16-5.36 4.44-10.92 8.62-16.22 13.13-9.81-7.14-18.96-15.2-28.63-22.56-.13-13.47-.03-26.94-.05-40.41m12 14.52v5.02c9.38-.01 18.76 0 28.15 0V26.1c-9.38-.01-18.77-.01-28.15 0m-.01 12.43c0 1.92.01 3.84.01 5.76 20.77.02 41.54.01 62.32.01v-5.77c-20.78 0-41.55-.01-62.33 0zm-30-.77c4.32-.13 8.64-.14 12.96-.01-.04 3.45 0 6.91-.03 10.37-4.36-3.39-8.66-6.86-12.93-10.36zm112.8.04c4.33-.24 8.68-.14 13.01-.03-4.29 3.49-8.58 6.98-12.96 10.35-.04-3.44.03-6.88-.05-10.32zM0 44.22c14.2 11.65 28.86 22.79 42.9 34.63C28.53 90.17 14.31 101.69 0 113.1V44.22zm89.52 31.29C102.35 65.24 115.2 55 128 44.69v67.95c-14.05-11.2-28.02-22.49-42.11-33.63.74-1.58 2.38-2.4 3.63-3.5z"/><path d="M4.93 116.91c19.65-15.83 39.4-31.54 59.09-47.32 19.71 15.76 39.44 31.5 59.11 47.31-39.4.07-78.8.05-118.2.01z"/></g></svg>