<svg width="128pt" height="128pt" viewBox="0 0 128 128" xmlns="http://www.w3.org/2000/svg"><g fill="#fff"><path d="M30.36 10.37C42.06 2.98 56.25-.36 70.02 1.01c15.02 1.29 29.4 8.3 39.82 19.17C121.36 32 128 48.5 127.58 65.03c.1 17.59-7.9 34.9-20.98 46.6-10.68 9.77-24.78 15.34-39.15 16.37h-6.66c-6.12-.63-12.26-1.53-18.03-3.72-17.05-5.94-31.2-19.58-37.82-36.37-6.1-15.16-6.01-32.7.26-47.78 5-12.23 13.94-22.8 25.16-29.76m24.09-4.68C37.84 8.35 22.63 18.46 13.76 32.75 4.73 46.87 2.29 64.93 7.03 80.98c4.45 15.48 15.54 28.89 29.9 36.18 12.83 6.69 28.15 8.26 42.13 4.64 14.63-3.74 27.61-13.39 35.51-26.25 8.17-13.12 10.97-29.52 7.35-44.58-3.4-15.04-12.98-28.54-26.02-36.77C83.76 6.37 68.69 3.37 54.45 5.69z"/><path d="M39.41 35.31c16.3-.01 32.6-.02 48.9.01 0 7.3-.01 14.61.01 21.91C83.18 61.39 78 65.5 72.85 69.65c-3-2.38-5.98-4.78-8.96-7.18l-8.99 7.19c-5.16-4.13-10.3-8.28-15.48-12.39-.02-7.32 0-14.64-.01-21.96m6.54 7.9v2.74c5.12 0 10.23.01 15.34 0v-2.74H45.95m.1 6.72c-.03.8-.1 2.4-.13 3.2 11.32.01 22.65.01 33.97 0-.01-.79-.04-2.39-.05-3.18-11.26-.02-22.52.01-33.79-.02zm-16.48-.37c2.36-.03 4.72-.03 7.08-.02 0 1.89 0 3.79-.02 5.69-2.35-1.89-4.71-3.77-7.06-5.67zm61.5-.02c2.37-.01 4.73-.01 7.1.02-2.35 1.9-4.71 3.79-7.07 5.68-.02-1.9-.03-3.8-.03-5.7zM29 53.13c7.78 6.28 15.69 12.39 23.36 18.8-7.79 6.2-15.56 12.44-23.34 18.66-.04-12.49-.01-24.98-.02-37.46zm46.69 18.81c7.63-6.43 15.56-12.5 23.31-18.79-.01 12.47.02 24.95-.02 37.42-7.76-6.22-15.52-12.44-23.29-18.63z"/><path d="M31.68 92.68c10.76-8.58 21.43-17.29 32.29-25.74 10.66 8.63 21.42 17.14 32.11 25.74-21.46.04-42.93.02-64.4 0z"/></g></svg>