<?xml version="1.0" encoding="utf-8"?><!DOCTYPE svg PUBLIC "-//W3C//DTD SVG 1.1//EN" "http://www.w3.org/Graphics/SVG/1.1/DTD/svg11.dtd"><svg width="48" height="48" viewBox="0 0 48 48" xmlns="http://www.w3.org/2000/svg" xmlns:xlink="http://www.w3.org/1999/xlink"><svg width="24" height="24" viewBox="0 0 24 24" id="cd-icon-email"><path fill="none" stroke="#D5DDDF" stroke-width="2" stroke-linecap="square" stroke-miterlimit="10" d="M19 7l-7 7-7-7"/><path fill="none" stroke="#D5DDDF" stroke-width="2" stroke-linecap="square" stroke-miterlimit="10" d="M1 3h22v18H1zM7 15l-2 2M17 15l2 2"/></svg><svg width="24" height="24" viewBox="0 0 24 24" id="cd-icon-message" x="24"><path fill="none" stroke="#D5DDDF" stroke-width="2" stroke-linecap="square" stroke-miterlimit="10" d="M9 19H4v-5L16 2l5 5zM4 23h16M13 5l5 5"/></svg><svg width="24" height="24" viewBox="0 0 24 24" id="cd-icon-phone" y="24"><path fill="#d4dcde" d="M7.16 4.56C8.33 4 9.49 3.41 10.65 2.83c.18 1.81 3.44 5.24.15 5.72-.31-.47-.92-1.42-1.23-1.9l.15-2.37c-1.06 3.99 1.12 8.29 2.66 11.97 1.16-.31 2.32-.63 3.48-.96.4 2.02 2.9 4.6.08 5.93-.32-1.17-.94-3.5-1.26-4.67l-.66 1.59c.39.79 1.16 2.38 1.55 3.17-4.56-.48-6.82-4.98-8.17-8.82-.99-2.55-1.02-5.33-.24-7.93z"/></svg><svg width="24" height="24" viewBox="0 0 24 24" id="cd-icon-user" x="24" y="24"><path fill="none" stroke="#D5DDDF" stroke-width="2" stroke-miterlimit="10" d="M8.7 15L3 18.4c-.6.4-1 1-1 1.7V23h20v-2.9c0-.7-.4-1.4-1-1.7L15.3 15"/><path fill="none" stroke="#D5DDDF" stroke-width="2" stroke-linecap="square" stroke-miterlimit="10" d="M12 16c-3.3 0-6-2.7-6-6V7c0-3.3 2.7-6 6-6s6 2.7 6 6v3c0 3.3-2.7 6-6 6z"/></svg></svg>