<?xml version="1.0" encoding="UTF-8" ?>
<!DOCTYPE svg PUBLIC "-//W3C//DTD SVG 1.1//EN" "http://www.w3.org/Graphics/SVG/1.1/DTD/svg11.dtd">
<svg width="128pt" height="128pt" viewBox="0 0 128 128" version="1.1" xmlns="http://www.w3.org/2000/svg">
<g id="#ffffffff">
<path fill="#ffffff" opacity="1.00" d=" M 30.98 9.99 C 43.96 1.97 59.90 -0.99 74.91 1.64 C 89.09 4.01 102.28 11.48 111.77 22.26 C 122.11 33.88 127.97 49.45 127.59 65.02 C 127.68 83.10 119.23 100.87 105.52 112.58 C 94.99 121.80 81.33 126.99 67.44 128.00 L 60.83 128.00 C 54.16 127.36 47.47 126.25 41.23 123.71 C 24.36 117.35 10.57 103.38 4.39 86.46 C -0.71 72.83 -0.88 57.42 3.86 43.67 C 8.61 29.74 18.38 17.60 30.98 9.99 M 54.52 5.68 C 37.86 8.33 22.60 18.47 13.73 32.81 C 6.17 44.66 3.23 59.27 5.31 73.15 C 7.92 91.50 19.78 108.20 36.20 116.79 C 48.01 123.17 62.02 125.11 75.19 122.67 C 89.44 120.02 102.55 111.86 111.29 100.30 C 121.92 86.51 126.00 67.89 121.92 50.95 C 118.51 35.90 108.91 22.40 95.86 14.18 C 83.74 6.38 68.72 3.38 54.52 5.68 Z" />
<path fill="#ffffff" opacity="1.00" d=" M 39.17 41.17 C 43.17 34.52 51.81 32.17 59.05 34.02 C 67.37 35.38 73.88 41.29 81.84 43.61 C 87.81 45.47 94.21 43.59 99.20 40.13 C 96.69 46.47 89.57 50.07 82.93 48.91 C 72.34 47.78 64.50 39.01 53.92 37.84 C 48.97 37.11 44.03 39.30 40.67 42.88 C 40.30 42.45 39.55 41.60 39.17 41.17 Z" />
<path fill="#ffffff" opacity="1.00" d=" M 33.39 45.32 C 37.21 45.31 41.03 45.32 44.85 45.31 C 44.87 51.81 44.85 58.31 44.86 64.82 C 50.08 62.07 55.22 59.20 60.39 56.38 C 60.43 59.86 60.41 63.34 60.43 66.82 C 65.59 63.33 70.75 59.84 75.92 56.37 C 75.95 59.89 75.94 63.41 75.94 66.93 C 81.18 63.46 86.34 59.88 91.57 56.39 C 91.63 68.29 91.56 80.19 91.61 92.08 C 93.22 92.11 94.83 92.13 96.44 92.20 C 96.41 92.80 96.35 94.00 96.32 94.60 C 84.39 94.46 72.44 94.83 60.53 94.39 C 50.04 94.85 39.52 94.43 29.01 94.61 C 29.01 94.07 29.01 92.98 29.01 92.44 C 30.47 92.44 31.93 92.44 33.39 92.44 C 33.40 76.73 33.38 61.03 33.39 45.32 Z" />
</g>
</svg>
