<svg width="128pt" height="128pt" viewBox="0 0 128 128" xmlns="http://www.w3.org/2000/svg"><g fill="#fff"><path d="M30.98 9.99C43.96 1.97 59.9-.99 74.91 1.64c14.18 2.37 27.37 9.84 36.86 20.62 10.34 11.62 16.2 27.19 15.82 42.76.09 18.08-8.36 35.85-22.07 47.56-10.53 9.22-24.19 14.41-38.08 15.42h-6.61c-6.67-.64-13.36-1.75-19.6-4.29-16.87-6.36-30.66-20.33-36.84-37.25-5.1-13.63-5.27-29.04-.53-42.79C8.61 29.74 18.38 17.6 30.98 9.99m23.54-4.31C37.86 8.33 22.6 18.47 13.73 32.81 6.17 44.66 3.23 59.27 5.31 73.15 7.92 91.5 19.78 108.2 36.2 116.79c11.81 6.38 25.82 8.32 38.99 5.88 14.25-2.65 27.36-10.81 36.1-22.37 10.63-13.79 14.71-32.41 10.63-49.35-3.41-15.05-13.01-28.55-26.06-36.77-12.12-7.8-27.14-10.8-41.34-8.5z"/><path d="M39.17 41.17c4-6.65 12.64-9 19.88-7.15 8.32 1.36 14.83 7.27 22.79 9.59 5.97 1.86 12.37-.02 17.36-3.48-2.51 6.34-9.63 9.94-16.27 8.78-10.59-1.13-18.43-9.9-29.01-11.07-4.95-.73-9.89 1.46-13.25 5.04-.37-.43-1.12-1.28-1.5-1.71zm-5.78 4.15c3.82-.01 7.64 0 11.46-.01.02 6.5 0 13 .01 19.51 5.22-2.75 10.36-5.62 15.53-8.44.04 3.48.02 6.96.04 10.44 5.16-3.49 10.32-6.98 15.49-10.45.03 3.52.02 7.04.02 10.56 5.24-3.47 10.4-7.05 15.63-10.54.06 11.9-.01 23.8.04 35.69 1.61.03 3.22.05 4.83.12l-.12 2.4c-11.93-.14-23.88.23-35.79-.21-10.49.46-21.01.04-31.52.22v-2.17h4.38c.01-15.71-.01-31.41 0-47.12z"/></g></svg>