<svg width="128pt" height="128pt" viewBox="0 0 128 128" xmlns="http://www.w3.org/2000/svg"><path d="M41.52 8.4c9.78-1.06 19.55 1.72 28.4 5.69 10.26 4.55 19.53 11.8 30.87 13.53 9.53 1.81 19.41-1.28 27.2-6.79-.56 3.99-3.69 7.05-6.51 9.71-7.86 6.91-19.38 7.46-29.05 4.69C76.4 31.15 63.7 18.68 47.06 16.42c-9.34-1.7-19.26 1.92-25.47 9.07-.84-1.21-3.39-2.27-2.28-4.03C24.13 13.95 32.72 9.27 41.52 8.4zM8.1 29.87c6.93.12 13.87-.23 20.78.16.55 11.92.05 23.88.25 35.82 9.48-5.23 19.01-10.37 28.49-15.59.13 6.39.03 12.77.07 19.15 9.52-6.38 18.97-12.86 28.53-19.19.06 6.47 0 12.93.04 19.4 9.56-6.42 19.04-12.96 28.63-19.33.03 21.83.01 43.66.01 65.49 2.92 0 5.84 0 8.76.01-.01 1.54-.01 3.09-.01 4.63-12.26 0-24.51.06-36.76-.04.05-15.09-.14-30.19.09-45.28l-1.16.01c.02 15.1 0 30.21.01 45.31-9.03.02-18.06.02-27.08 0-.21-15.96.41-31.95-.32-47.88-1.17 2.34-.72 5.02-.8 7.54.03 13.45.03 26.89 0 40.34-9.16.01-18.32.02-27.49 0 0-14.47-.02-28.95.01-43.42-.07-2.72.39-5.6-.84-8.14-.56 17.17.05 34.38-.3 51.56-9.67.03-19.34 0-29.01.01v-3.97h8.05c.04-28.86-.07-57.73.05-86.59z" fill="#fff"/></svg>