<svg width="90" height="60" viewBox="0 0 90 60" xmlns="http://www.w3.org/2000/svg" xmlns:xlink="http://www.w3.org/1999/xlink"><svg width="30" height="30" viewBox="0 0 128 128"><g fill="#fff"><path d="M30.94 10.01C43.93 1.97 59.89-1 74.92 1.64c14.39 2.41 27.76 10.07 37.27 21.11 10.09 11.56 15.77 26.92 15.4 42.28.09 18.06-8.35 35.81-22.04 47.52-10.56 9.25-24.27 14.48-38.22 15.45h-6.39c-21.29-1.1-41.57-13.39-52.08-31.97C-.51 79.92-2.17 59.61 4.4 42.17c4.9-13.29 14.42-24.82 26.54-32.16m23.62-4.34C37.9 8.31 22.63 18.45 13.74 32.78 4.72 46.91 2.29 64.98 7.05 81.03c4.46 15.48 15.56 28.88 29.92 36.16 14.43 7.5 32.01 8.53 47.29 3 12.27-4.42 22.98-13.03 29.95-24.06 8.45-13.23 11.38-29.9 7.71-45.19-3.37-14.82-12.72-28.15-25.49-36.39-12.2-8.06-27.46-11.2-41.87-8.88z"/><path d="M28.67 48.93c12.08-3.28 24.29-6.11 36.43-9.2 2.04-.76 4.06.31 6.05.74 9.24 2.63 18.61 4.8 27.79 7.63l.03 1.05c-10.4 3.29-20.97 6.11-31.43 9.26-2.84 1.02-5.69-.42-8.45-1.05-10.11-2.89-20.42-5.18-30.42-8.43zm6.54 6.76c2.41 1.17 1.57 4.14 1.94 6.31.33 8.28 1.36 16.54 1.39 24.83-1.76 2.83-6.28 2.12-7.56-.66.44-6.43 1.19-12.82 1.9-19.22.54-3.79.7-7.73 2.33-11.26zm8.36 16.73c-.15-4.19-.64-8.61.28-12.71 6.8.95 13.22 3.95 19.95 5.39 8.36-.25 16.16-4.8 24.51-4.89-.12 4.26.34 8.57-.24 12.79-12.12 5.61-26.48 6-39.13 1.9-1.82-.69-4.09-.85-5.37-2.48z"/></g></svg><svg width="30" height="30" viewBox="0 0 128 128" x="30"><g fill="#fff"><path d="M30.93 10.02C43.92 1.97 59.89-1 74.92 1.65c14.39 2.4 27.76 10.06 37.27 21.09 10.07 11.55 15.75 26.88 15.4 42.21.11 18.11-8.34 35.92-22.09 47.64-10.53 9.22-24.19 14.42-38.09 15.41h-6.55c-6.13-.61-12.29-1.53-18.09-3.72-17.29-6.01-31.6-19.96-38.1-37.07-5.36-13.79-5.63-29.49-.83-43.48 4.74-13.94 14.5-26.09 27.09-33.71m23.64-4.35C37.91 8.31 22.63 18.44 13.74 32.78 4.71 46.92 2.29 65 7.05 81.06c4.47 15.46 15.56 28.85 29.9 36.12 14.22 7.39 31.47 8.51 46.59 3.27 12.54-4.34 23.52-13.04 30.62-24.25 8.5-13.26 11.44-29.98 7.75-45.31-3.38-14.8-12.73-28.11-25.48-36.34-12.19-8.06-27.45-11.2-41.86-8.88z"/><path d="M85.43 37.14c1.61-1.9 3.18-3.82 4.74-5.76 4.18.25 9.04 2.94 8.87 7.7-1.24 1.95-2.84 3.63-4.18 5.5-4.64.47-8.3-3.24-9.43-7.44zm-56.49.36c14.92-.04 29.83.05 44.75-.11.99 2.16 1.98 4.32 3 6.47-.77.81-1.56 1.61-2.38 2.37-.81-1.86-1.63-3.71-2.45-5.57-12.72-.02-25.45.1-38.17.08 3.99 16.6 8.07 33.18 12.06 49.78 15.01-2.74 30.02-5.51 45.03-8.24-2.76-6.14-5.6-12.26-8.37-18.41.61-.62 1.81-1.88 2.41-2.5 3.81 8.07 7.56 16.17 11.32 24.26-18.16 3.65-36.31 7.32-54.47 10.94-4.25-19.69-8.5-39.38-12.73-59.07z"/><path d="M83.67 39.16c1.86 3.65 4.88 6.78 9.05 7.56-7.37 8.89-14.58 17.91-21.92 26.82-1.62.14-3.24.34-4.88.33-1.44-.77-2.5-2.1-3.73-3.16-.1-1.61-.23-3.21-.36-4.81 7.2-8.97 14.7-17.71 21.84-26.74zm-44.2 5.47c10.36-.18 20.71-.55 31.07-.86.01.6.01 1.81.02 2.41-10.42.13-20.82.72-31.23.73.03-.57.1-1.71.14-2.28zm3.18 11c8.52-.41 17.02-1.03 25.54-1.43-.56.58-1.66 1.74-2.21 2.32-7.72.77-15.5.91-23.25 1.5l-.08-2.39zm3.3 12.55c4.47-.5 8.96-.93 13.43-1.44l.2 2.35c-4.54.43-9.06.99-13.6 1.37-.01-.57-.02-1.71-.03-2.28zM58.27 80.8c.04-2.14.4-4.26.71-6.37 1.12 1.44 2.51 2.61 4.06 3.56-1.92.76-4.47.95-4.67 3.53l.94-.99c8.28-1.58 16.64-2.75 24.95-4.15l.43 2.23c-11.59 2.03-23.22 3.81-34.82 5.72-.1-.58-.28-1.74-.38-2.32 2.92-.45 5.82-1.04 8.78-1.21z"/></g></svg><svg width="30" height="30" viewBox="0 0 128 128" y="30"><g fill="#fff"><path d="M30.36 10.37C42.06 2.98 56.25-.36 70.02 1.01c15.02 1.29 29.4 8.3 39.82 19.17C121.36 32 128 48.5 127.58 65.03c.1 17.59-7.9 34.9-20.98 46.6-10.68 9.77-24.78 15.34-39.15 16.37h-6.66c-6.12-.63-12.26-1.53-18.03-3.72-17.05-5.94-31.2-19.58-37.82-36.37-6.1-15.16-6.01-32.7.26-47.78 5-12.23 13.94-22.8 25.16-29.76m24.09-4.68C37.84 8.35 22.63 18.46 13.76 32.75 4.73 46.87 2.29 64.93 7.03 80.98c4.45 15.48 15.54 28.89 29.9 36.18 12.83 6.69 28.15 8.26 42.13 4.64 14.63-3.74 27.61-13.39 35.51-26.25 8.17-13.12 10.97-29.52 7.35-44.58-3.4-15.04-12.98-28.54-26.02-36.77C83.76 6.37 68.69 3.37 54.45 5.69z"/><path d="M39.41 35.31c16.3-.01 32.6-.02 48.9.01 0 7.3-.01 14.61.01 21.91C83.18 61.39 78 65.5 72.85 69.65c-3-2.38-5.98-4.78-8.96-7.18l-8.99 7.19c-5.16-4.13-10.3-8.28-15.48-12.39-.02-7.32 0-14.64-.01-21.96m6.54 7.9v2.74c5.12 0 10.23.01 15.34 0v-2.74H45.95m.1 6.72c-.03.8-.1 2.4-.13 3.2 11.32.01 22.65.01 33.97 0-.01-.79-.04-2.39-.05-3.18-11.26-.02-22.52.01-33.79-.02zm-16.48-.37c2.36-.03 4.72-.03 7.08-.02 0 1.89 0 3.79-.02 5.69-2.35-1.89-4.71-3.77-7.06-5.67zm61.5-.02c2.37-.01 4.73-.01 7.1.02-2.35 1.9-4.71 3.79-7.07 5.68-.02-1.9-.03-3.8-.03-5.7zM29 53.13c7.78 6.28 15.69 12.39 23.36 18.8-7.79 6.2-15.56 12.44-23.34 18.66-.04-12.49-.01-24.98-.02-37.46zm46.69 18.81c7.63-6.43 15.56-12.5 23.31-18.79-.01 12.47.02 24.95-.02 37.42-7.76-6.22-15.52-12.44-23.29-18.63z"/><path d="M31.68 92.68c10.76-8.58 21.43-17.29 32.29-25.74 10.66 8.63 21.42 17.14 32.11 25.74-21.46.04-42.93.02-64.4 0z"/></g></svg><svg width="30" height="30" viewBox="0 0 128 128" x="30" y="30"><g fill="#fff"><path d="M30.98 9.99C43.96 1.97 59.9-.99 74.91 1.64c14.18 2.37 27.37 9.84 36.86 20.62 10.34 11.62 16.2 27.19 15.82 42.76.09 18.08-8.36 35.85-22.07 47.56-10.53 9.22-24.19 14.41-38.08 15.42h-6.61c-6.67-.64-13.36-1.75-19.6-4.29-16.87-6.36-30.66-20.33-36.84-37.25-5.1-13.63-5.27-29.04-.53-42.79C8.61 29.74 18.38 17.6 30.98 9.99m23.54-4.31C37.86 8.33 22.6 18.47 13.73 32.81 6.17 44.66 3.23 59.27 5.31 73.15 7.92 91.5 19.78 108.2 36.2 116.79c11.81 6.38 25.82 8.32 38.99 5.88 14.25-2.65 27.36-10.81 36.1-22.37 10.63-13.79 14.71-32.41 10.63-49.35-3.41-15.05-13.01-28.55-26.06-36.77-12.12-7.8-27.14-10.8-41.34-8.5z"/><path d="M39.17 41.17c4-6.65 12.64-9 19.88-7.15 8.32 1.36 14.83 7.27 22.79 9.59 5.97 1.86 12.37-.02 17.36-3.48-2.51 6.34-9.63 9.94-16.27 8.78-10.59-1.13-18.43-9.9-29.01-11.07-4.95-.73-9.89 1.46-13.25 5.04-.37-.43-1.12-1.28-1.5-1.71zm-5.78 4.15c3.82-.01 7.64 0 11.46-.01.02 6.5 0 13 .01 19.51 5.22-2.75 10.36-5.62 15.53-8.44.04 3.48.02 6.96.04 10.44 5.16-3.49 10.32-6.98 15.49-10.45.03 3.52.02 7.04.02 10.56 5.24-3.47 10.4-7.05 15.63-10.54.06 11.9-.01 23.8.04 35.69 1.61.03 3.22.05 4.83.12l-.12 2.4c-11.93-.14-23.88.23-35.79-.21-10.49.46-21.01.04-31.52.22v-2.17h4.38c.01-15.71-.01-31.41 0-47.12z"/></g></svg><svg width="30" height="30" viewBox="0 0 128 128" x="60"><g fill="#fff"><path d="M30.39 10.35C42.08 2.98 56.24-.36 69.99 1c15.04 1.29 29.43 8.31 39.86 19.19 11.52 11.82 18.15 28.32 17.74 44.85.08 17.61-7.93 34.93-21.04 46.62-10.69 9.78-24.82 15.35-39.21 16.34h-6.4c-6.17-.59-12.37-1.52-18.19-3.72-17.05-5.94-31.19-19.59-37.81-36.37-5.63-14-5.99-30.03-1.07-44.29 4.69-13.69 14.22-25.66 26.52-33.27m24.09-4.67C37.86 8.34 22.63 18.46 13.75 32.76 4.71 46.91 2.29 64.99 7.05 81.07c4.47 15.46 15.57 28.85 29.93 36.12 12.83 6.67 28.16 8.23 42.12 4.6 14.38-3.69 27.15-13.08 35.07-25.6 8.49-13.27 11.44-30 7.73-45.32-3.38-14.8-12.73-28.1-25.48-36.33-12.22-8.06-27.5-11.2-41.94-8.86z"/><path d="M51.54 37.56c8.12-.18 16.26-.06 24.39-.06 1.72-.05 3.09 1.7 2.82 3.37-.24 3.16.85 6.72-1.03 9.53 6.08-.12 12.17-.07 18.26-.06 1.47-.15 3.32.87 3.01 2.58.05 12.1-.05 24.21.05 36.32-.95.63-1.88 1.45-3.1 1.28-21.29.01-42.58.01-63.86-.01-1.25.18-2.17-.66-3.11-1.31.08-12.1-.01-24.2.04-36.3-.26-1.71 1.58-2.72 3.06-2.56 6.09-.01 12.19-.05 18.28.04-1.76-2.09-.94-4.94-1.14-7.42-.04-1.98-.22-4.94 2.33-5.4m.96 3.73c0 3.01 0 6.03.01 9.04h22.74c.01-3.01 0-6.02.01-9.03-7.58-.04-15.17-.02-22.76-.01z"/></g></svg><svg width="30" height="30" viewBox="0 0 128 128" x="60" y="30"><g fill="#fff"><path d="M30.99 9.98c13.27-8.2 29.63-11.1 44.93-8.15 14.02 2.57 26.99 10.15 36.29 20.93 10.05 11.54 15.73 26.85 15.37 42.17.12 17.61-7.86 34.95-20.95 46.67-10.67 9.78-24.77 15.36-39.14 16.4H60.7c-6.08-.64-12.19-1.54-17.93-3.72-17.3-6.02-31.61-19.97-38.11-37.09-5.93-15.25-5.61-32.82.86-47.84 5.16-12.12 14.2-22.56 25.47-29.37m23.6-4.32C37.92 8.3 22.64 18.43 13.75 32.77 4.71 46.92 2.28 65 7.06 81.07c4.46 15.45 15.54 28.82 29.88 36.1 14 7.29 30.97 8.49 45.92 3.51 13.07-4.33 24.49-13.4 31.7-25.12 8.19-13.15 10.98-29.57 7.35-44.65-3.42-15.04-13.02-28.53-26.06-36.74C83.75 6.39 68.76 3.4 54.59 5.66z"/><path d="M60.48 39.67c6.94-2.83 14.96 4.23 13.11 11.45-1.14 7.21-10.92 10.6-16.27 5.62-5.87-4.54-3.95-14.93 3.16-17.07zm-21.34 7.6c5.62-2.71 12.43 3.41 10.3 9.27-1.35 5.26-8.64 7.2-12.5 3.45-4.12-3.46-2.83-10.83 2.2-12.72zm43.38.43c5.06-3.28 12.39 1.48 11.46 7.39-.3 5.5-7.21 8.76-11.71 5.7-4.78-2.74-4.64-10.53.25-13.09zM46.65 72.08c.21-5.97 5.42-11.26 11.39-11.58 3.63-.08 7.26-.08 10.89 0 5.96.31 11.16 5.55 11.4 11.51.13 5.62.01 11.25.05 16.87-11.26.01-22.52-.01-33.78.01 0-5.6-.14-11.21.05-16.81zm-17.63-.16c.08-4.32 3.66-8.2 7.92-8.76 3.53-.45 7.1-.35 10.63.07-5.07 6.07-3.03 14.33-3.45 21.55-5.04 0-10.07-.01-15.11 0 .01-4.29-.06-8.57.01-12.86zm50.63-8.51c3.78-.64 7.66-.72 11.47-.25 4.25.58 7.87 4.48 7.87 8.82.05 4.26-.01 8.53 0 12.8-5.37-.01-10.74.01-16.11-.01-.39-7.17 1.55-15.2-3.23-21.36z"/></g></svg></svg>