<svg width="128pt" height="128pt" viewBox="0 0 128 128" xmlns="http://www.w3.org/2000/svg"><path fill="#fff" d="M37.18 20.97c-.09-3.02 2.81-5.73 5.83-5.41 14.35.01 28.7-.02 43.05.02 2.79-.07 5.41 2.56 5.28 5.35.02 4.7.06 9.41-.02 14.12.12 1.69-1.32 2.86-2.14 4.16 11.29-.12 22.59-.05 33.88-.06 1.89-.17 3.54.79 4.94 1.95v70c-1.47 1-3.03 2.04-4.91 1.85-39.38-.02-78.78.03-118.16-.03-2.11.19-3.73-1.3-4.93-2.83v-68c1.17-1.59 2.8-3.1 4.93-2.91 11.51-.04 23.02-.1 34.53.04-.94-1.26-2.29-2.48-2.25-4.2-.14-4.68-.09-9.37-.03-14.05m5.98 1.58v16.6h41.7v-16.6h-41.7z"/></svg>