<svg width="128pt" height="128pt" viewBox="0 0 128 128" xmlns="http://www.w3.org/2000/svg"><g fill="#fff"><path d="M30.39 10.35C42.08 2.98 56.24-.36 69.99 1c15.04 1.29 29.43 8.31 39.86 19.19 11.52 11.82 18.15 28.32 17.74 44.85.08 17.61-7.93 34.93-21.04 46.62-10.69 9.78-24.82 15.35-39.21 16.34h-6.4c-6.17-.59-12.37-1.52-18.19-3.72-17.05-5.94-31.19-19.59-37.81-36.37-5.63-14-5.99-30.03-1.07-44.29 4.69-13.69 14.22-25.66 26.52-33.27m24.09-4.67C37.86 8.34 22.63 18.46 13.75 32.76 4.71 46.91 2.29 64.99 7.05 81.07c4.47 15.46 15.57 28.85 29.93 36.12 12.83 6.67 28.16 8.23 42.12 4.6 14.38-3.69 27.15-13.08 35.07-25.6 8.49-13.27 11.44-30 7.73-45.32-3.38-14.8-12.73-28.1-25.48-36.33-12.22-8.06-27.5-11.2-41.94-8.86z"/><path d="M51.54 37.56c8.12-.18 16.26-.06 24.39-.06 1.72-.05 3.09 1.7 2.82 3.37-.24 3.16.85 6.72-1.03 9.53 6.08-.12 12.17-.07 18.26-.06 1.47-.15 3.32.87 3.01 2.58.05 12.1-.05 24.21.05 36.32-.95.63-1.88 1.45-3.1 1.28-21.29.01-42.58.01-63.86-.01-1.25.18-2.17-.66-3.11-1.31.08-12.1-.01-24.2.04-36.3-.26-1.71 1.58-2.72 3.06-2.56 6.09-.01 12.19-.05 18.28.04-1.76-2.09-.94-4.94-1.14-7.42-.04-1.98-.22-4.94 2.33-5.4m.96 3.73c0 3.01 0 6.03.01 9.04h22.74c.01-3.01 0-6.02.01-9.03-7.58-.04-15.17-.02-22.76-.01z"/></g></svg>