<svg width="128pt" height="128pt" viewBox="0 0 128 128" xmlns="http://www.w3.org/2000/svg"><path d="M59.19 19.16c9.57-2.82 20.51 3.75 22.54 13.51 2.97 10.52-5.69 22.19-16.58 22.55-9.86 1.01-19.39-7.4-19.58-17.3-.7-8.47 5.42-16.73 13.62-18.76zM18.41 33.64c7.04-3.3 16.24.52 18.78 7.9 3.07 7.2-1.5 16.26-8.97 18.35-6.9 2.39-15.11-1.77-17.38-8.68-2.6-6.67.99-14.85 7.57-17.57zm81.04.09c7-3.4 16.31.26 18.94 7.64 3.44 7.77-2.11 17.71-10.51 18.9-8.03 1.86-16.61-4.98-16.54-13.22-.4-5.55 3.06-11.07 8.11-13.32zm-67.11 46.2c.05-9.81 7.34-18.96 16.79-21.4 7.16-1.61 14.59-.43 21.87-.8 11.75-.57 22.7 9.39 23.28 21.14.13 10.34.02 20.69.05 31.04-20.69.02-41.38.02-62.07 0 .05-9.99-.12-19.99.08-29.98zM16.41 62.45c5.86-.15 11.79-.48 17.62.4-3.39 4.73-6.03 10.21-6.21 16.12-.2 7.81 0 15.62-.09 23.43-9.25-.01-18.49 0-27.73 0V77.75c.96-8.17 8.15-15 16.41-15.3zm76.56 1c2.91-.98 5.98-1.23 9.03-1.15 4.69.12 9.48-.4 14.07.84 5.75 1.58 10.45 6.35 11.93 12.13v27.13c-9.7-.01-19.4.01-29.1-.01-.02-7.48.01-14.95 0-22.43-.03-5.99-2.39-11.75-5.93-16.51z" fill="#fff"/></svg>