<svg width="128pt" height="128pt" viewBox="0 0 128 128" xmlns="http://www.w3.org/2000/svg"><g fill="#fff"><path d="M30.99 9.98c13.27-8.2 29.63-11.1 44.93-8.15 14.02 2.57 26.99 10.15 36.29 20.93 10.05 11.54 15.73 26.85 15.37 42.17.12 17.61-7.86 34.95-20.95 46.67-10.67 9.78-24.77 15.36-39.14 16.4H60.7c-6.08-.64-12.19-1.54-17.93-3.72-17.3-6.02-31.61-19.97-38.11-37.09-5.93-15.25-5.61-32.82.86-47.84 5.16-12.12 14.2-22.56 25.47-29.37m23.6-4.32C37.92 8.3 22.64 18.43 13.75 32.77 4.71 46.92 2.28 65 7.06 81.07c4.46 15.45 15.54 28.82 29.88 36.1 14 7.29 30.97 8.49 45.92 3.51 13.07-4.33 24.49-13.4 31.7-25.12 8.19-13.15 10.98-29.57 7.35-44.65-3.42-15.04-13.02-28.53-26.06-36.74C83.75 6.39 68.76 3.4 54.59 5.66z"/><path d="M60.48 39.67c6.94-2.83 14.96 4.23 13.11 11.45-1.14 7.21-10.92 10.6-16.27 5.62-5.87-4.54-3.95-14.93 3.16-17.07zm-21.34 7.6c5.62-2.71 12.43 3.41 10.3 9.27-1.35 5.26-8.64 7.2-12.5 3.45-4.12-3.46-2.83-10.83 2.2-12.72zm43.38.43c5.06-3.28 12.39 1.48 11.46 7.39-.3 5.5-7.21 8.76-11.71 5.7-4.78-2.74-4.64-10.53.25-13.09zM46.65 72.08c.21-5.97 5.42-11.26 11.39-11.58 3.63-.08 7.26-.08 10.89 0 5.96.31 11.16 5.55 11.4 11.51.13 5.62.01 11.25.05 16.87-11.26.01-22.52-.01-33.78.01 0-5.6-.14-11.21.05-16.81zm-17.63-.16c.08-4.32 3.66-8.2 7.92-8.76 3.53-.45 7.1-.35 10.63.07-5.07 6.07-3.03 14.33-3.45 21.55-5.04 0-10.07-.01-15.11 0 .01-4.29-.06-8.57.01-12.86zm50.63-8.51c3.78-.64 7.66-.72 11.47-.25 4.25.58 7.87 4.48 7.87 8.82.05 4.26-.01 8.53 0 12.8-5.37-.01-10.74.01-16.11-.01-.39-7.17 1.55-15.2-3.23-21.36z"/></g></svg>